	.include "MPlayDef.s"

	.equ	song07_grp, voicegroup000
	.equ	song07_pri, 0
	.equ	song07_rev, 0
	.equ	song07_mvl, 127
	.equ	song07_key, 0
	.equ	song07_tbs, 1
	.equ	song07_exg, 0
	.equ	song07_cmp, 1

	.section .rodata
	.global	song07
	.align	2


@**************** Track 1 (Midi-Chn.0) ****************@

song07_001:
@  #01 @000   ----------------------------------------
 .byte   KEYSH , song07_key+0
 .byte   TEMPO , 120*song07_tbs/2
 .byte   VOICE , 1
 .byte   MODT 0
 .byte   LFOS 44
 .byte   MODT 0
 .byte   LFOS 44
 .byte   MODT 0
 .byte   LFOS 44
 .byte   VOL , 66*song07_mvl/mxv
 .byte   PAN , c_v+0
 .byte   VOL , 66*song07_mvl/mxv
 .byte   BEND , c_v+0
 .byte   N48 ,An2 ,v036
 .byte   N12 ,Bn4 ,v048
 .byte   W12
 .byte   N24 ,En4
 .byte   W24
 .byte   N12
 .byte   W12
 .byte   N48 ,Gs2 ,v036
 .byte   N48 ,Fs3
 .byte   N12 ,Ds4 ,v048
 .byte   W12
 .byte   En4
 .byte   W12
 .byte   Fs4
 .byte   W12
 .byte   N72 ,En4 ,v060
 .byte   W12
@  #01 @001   ----------------------------------------
 .byte   N96 ,Cs2 ,v008
 .byte   N12 ,Cs3 ,v028
 .byte   W12
 .byte   Gs2
 .byte   W12
 .byte   Cs3
 .byte   W12
 .byte   Ds3 ,v032
 .byte   W12
 .byte   N48 ,En3
 .byte   W12
 .byte   N12 ,En4 ,v048
 .byte   W12
 .byte   Fs4
 .byte   W12
 .byte   Gs4
 .byte   W12
@  #01 @002   ----------------------------------------
 .byte   N48 ,An2 ,v016
 .byte   N48 ,Cs4
 .byte   W01
 .byte   N10 ,An4 ,v048
 .byte   W11
 .byte   N24 ,Gs4
 .byte   W24
 .byte   N12 ,Fs4
 .byte   W12
 .byte   N48 ,Gs2 ,v036
 .byte   N48 ,Fs3
 .byte   N12 ,En4 ,v048
 .byte   W12
 .byte   N24 ,Ds4
 .byte   W24
 .byte   TIE ,Gs4 ,v060
 .byte   W12
@  #01 @003   ----------------------------------------
 .byte   N12 ,Cs3 ,v048
 .byte   W12
 .byte   Cs2 ,v024
 .byte   W12
 .byte   En2
 .byte   W12
 .byte   Gs2 ,v032
 .byte   W12
 .byte   N24 ,Bn1 ,v036
 .byte   N24 ,An2
 .byte   N24 ,Dn3
 .byte   W24
 .byte   En1
 .byte   N24 ,Bn2
 .byte   N24 ,En3 ,v032
 .byte   W24
@  #01 @004   ----------------------------------------
 .byte   EOT
 .byte   Gs4
 .byte   N48 ,An1 ,v036
 .byte   N48 ,En2
 .byte   N48 ,An2
 .byte   N12 ,Gs4 ,v032
 .byte   N12 ,Bn4 ,v048
 .byte   W12
 .byte   N24 ,En4
 .byte   W24
 .byte   N12
 .byte   W12
 .byte   N48 ,Gs1 ,v036
 .byte   N48 ,Fs2
 .byte   N48 ,Gs2
 .byte   N12 ,Ds4 ,v048
 .byte   W12
 .byte   En4
 .byte   W12
 .byte   Fs4
 .byte   W12
 .byte   N72 ,En4 ,v068
 .byte   W12
@  #01 @005   ----------------------------------------
 .byte   N12 ,Cs2 ,v044
 .byte   N12 ,Bn2
 .byte   W12
 .byte   N24 ,Gs2 ,v028
 .byte   W24
 .byte   N12 ,Cs3 ,v032
 .byte   W12
 .byte   Ds3
 .byte   W12
 .byte   Bn2
 .byte   N12 ,En4 ,v048
 .byte   W12
 .byte   N24 ,Cs2 ,v016
 .byte   N12 ,Fs4 ,v048
 .byte   W12
 .byte   Gs4
 .byte   W12
@  #01 @006   ----------------------------------------
 .byte   N48 ,An1 ,v068
 .byte   N48 ,Gs2
 .byte   N12 ,An4
 .byte   W12
 .byte   N24 ,Gs4 ,v048
 .byte   W24
 .byte   N12 ,Fs4 ,v044
 .byte   W12
 .byte   N36 ,Gs1 ,v052
 .byte   N36 ,Fs2
 .byte   N12 ,En4
 .byte   W12
 .byte   N24 ,Ds4 ,v068
 .byte   W24
 .byte   TIE ,Cs1 ,v076
 .byte   TIE ,Gs1
 .byte   TIE ,Cs2
 .byte   TIE ,Gs4
 .byte   W12
@  #01 @007   ----------------------------------------
 .byte   W96
@  #01 @008   ----------------------------------------
 .byte   EOT
 .byte   Cs1 ,v044
 .byte   Cs2 ,v080
 .byte   N96 ,Cs1 ,v008
 .byte   N96 ,Cs2 ,v036
 .byte   W96
@  #01 @009   ----------------------------------------
 .byte   W96
@  #01 @010   ----------------------------------------
 .byte   W24
Label_0115DD4A:
 .byte   W72
@  #01 @011   ----------------------------------------
 .byte   W96
@  #01 @012   ----------------------------------------
 .byte   W96
@  #01 @013   ----------------------------------------
 .byte   W96
@  #01 @014   ----------------------------------------
 .byte   W96
@  #01 @015   ----------------------------------------
 .byte   W96
@  #01 @016   ----------------------------------------
 .byte   W96
@  #01 @017   ----------------------------------------
 .byte   W96
@  #01 @018   ----------------------------------------
 .byte   W96
@  #01 @019   ----------------------------------------
 .byte   W96
@  #01 @020   ----------------------------------------
 .byte   W96
@  #01 @021   ----------------------------------------
 .byte   W96
@  #01 @022   ----------------------------------------
 .byte   W96
@  #01 @023   ----------------------------------------
 .byte   W96
@  #01 @024   ----------------------------------------
 .byte   N96 ,Cs2 ,v084
 .byte   N96 ,Gs2
 .byte   W96
@  #01 @025   ----------------------------------------
 .byte   As1
 .byte   N96 ,Fs2
 .byte   W96
@  #01 @026   ----------------------------------------
 .byte   W96
@  #01 @027   ----------------------------------------
 .byte   Gs1
 .byte   N96 ,Fs2
 .byte   W96
@  #01 @028   ----------------------------------------
Label_0115DD67:
 .byte   N48 ,Cs2 ,v084
 .byte   N48 ,Fs2
 .byte   W48
 .byte   Ds2
 .byte   N48 ,Gs2
 .byte   W48
 .byte   PEND 
@  #01 @029   ----------------------------------------
 .byte   N96 ,Cs2
 .byte   N96 ,Bn2
 .byte   W96
@  #01 @030   ----------------------------------------
 .byte   En2
 .byte   N96 ,An2
 .byte   W96
@  #01 @031   ----------------------------------------
 .byte   W96
@  #01 @032   ----------------------------------------
 .byte   Cs2
 .byte   N96 ,Gs2
 .byte   W96
@  #01 @033   ----------------------------------------
 .byte   As1
 .byte   N96 ,Fs2
 .byte   W96
@  #01 @034   ----------------------------------------
 .byte   En2
 .byte   N96 ,An2
 .byte   W96
@  #01 @035   ----------------------------------------
 .byte   Gs1
 .byte   N96 ,Fs2
 .byte   W96
@  #01 @036   ----------------------------------------
 .byte   PATT
  .word Label_0115DD67
@  #01 @037   ----------------------------------------
 .byte   N96 ,Cs2 ,v084
 .byte   N96 ,Bn2
 .byte   W96
@  #01 @038   ----------------------------------------
 .byte   En2
 .byte   N96 ,An2
 .byte   W96
@  #01 @039   ----------------------------------------
 .byte   PATT
  .word Label_0115DD67
@  #01 @040   ----------------------------------------
 .byte   W96
@  #01 @041   ----------------------------------------
 .byte   W96
@  #01 @042   ----------------------------------------
 .byte   W96
@  #01 @043   ----------------------------------------
 .byte   W96
@  #01 @044   ----------------------------------------
Label_0115DDA4:
 .byte   N48 ,An1 ,v048
 .byte   N48 ,An2
 .byte   N48 ,Cs3
 .byte   N48 ,En3
 .byte   W48
 .byte   Gs1
 .byte   N48 ,Fs2
 .byte   N48 ,Bn2
 .byte   N48 ,Ds3
 .byte   W48
 .byte   PEND 
@  #01 @045   ----------------------------------------
Label_0115DDB7:
 .byte   N96 ,Cs1 ,v048
 .byte   N96 ,Cs2
 .byte   N96 ,Gs2
 .byte   N96 ,Bn2
 .byte   N96 ,Cs3
 .byte   W96
 .byte   PEND 
@  #01 @046   ----------------------------------------
Label_0115DDC4:
 .byte   N48 ,Fs1 ,v048
 .byte   N48 ,Cs2
 .byte   N48 ,En2
 .byte   N48 ,Fs2
 .byte   W48
 .byte   Gs1
 .byte   N48 ,Ds2
 .byte   N48 ,Fs2
 .byte   N48 ,Gs2
 .byte   W48
 .byte   PEND 
@  #01 @047   ----------------------------------------
Label_0115DDD7:
 .byte   N48 ,Cs1 ,v048
 .byte   N48 ,Cs2
 .byte   N48 ,Fs2
 .byte   N48 ,Gs2
 .byte   N48 ,Bn2
 .byte   W48
 .byte   N24 ,Dn1
 .byte   N24 ,En2
 .byte   N24 ,Fs2
 .byte   N24 ,Bn2
 .byte   W24
 .byte   En1
 .byte   N24 ,Gs2
 .byte   N24 ,Bn2
 .byte   N24 ,En3
 .byte   W24
 .byte   PEND 
@  #01 @048   ----------------------------------------
 .byte   PATT
  .word Label_0115DDA4
@  #01 @049   ----------------------------------------
 .byte   PATT
  .word Label_0115DDB7
@  #01 @050   ----------------------------------------
 .byte   PATT
  .word Label_0115DDC4
@  #01 @051   ----------------------------------------
Label_0115DE04:
 .byte   N96 ,Cs1 ,v048
 .byte   N96 ,Cs2
 .byte   N96 ,Fs2
 .byte   N96 ,Gs2
 .byte   N96 ,Bn2
 .byte   W96
 .byte   PEND 
@  #01 @052   ----------------------------------------
 .byte   N48 ,An1 ,v036
 .byte   N48 ,An2
 .byte   N48 ,Cs3
 .byte   N48 ,En3
 .byte   N12 ,Bn4 ,v084
 .byte   W12
 .byte   N24 ,En4
 .byte   W24
 .byte   N12
 .byte   W12
 .byte   N48 ,Gs1 ,v036
 .byte   N48 ,Fs2
 .byte   N48 ,Bn2
 .byte   N48 ,Ds3
 .byte   N12 ,Ds4 ,v084
 .byte   W12
 .byte   En4
 .byte   W12
 .byte   Fs4
 .byte   W12
 .byte   N72 ,En4 ,v112
 .byte   W12
@  #01 @053   ----------------------------------------
Label_0115DE38:
 .byte   N96 ,Cs1 ,v036
 .byte   N96 ,Cs2
 .byte   N96 ,Gs2
 .byte   N96 ,Bn2
 .byte   N96 ,Cs3
 .byte   W60
 .byte   N12 ,En4 ,v084
 .byte   W12
 .byte   Fs4
 .byte   W12
 .byte   Gs4
 .byte   W12
 .byte   PEND 
@  #01 @054   ----------------------------------------
 .byte   N48 ,Fs1 ,v036
 .byte   N48 ,Cs2
 .byte   N48 ,En2
 .byte   N48 ,Fs2
 .byte   N12 ,An4 ,v084
 .byte   W12
 .byte   N24 ,Gs4
 .byte   W24
 .byte   N12 ,Fs4
 .byte   W12
 .byte   N48 ,Gs1 ,v036
 .byte   N48 ,Ds2
 .byte   N48 ,Fs2
 .byte   N48 ,Gs2
 .byte   N12 ,En4 ,v084
 .byte   W12
 .byte   N24 ,Ds4
 .byte   W24
 .byte   TIE ,Gs4 ,v112
 .byte   W12
@  #01 @055   ----------------------------------------
 .byte   N48 ,Cs1 ,v036
 .byte   N48 ,Cs2
 .byte   N48 ,Fs2
 .byte   N48 ,Gs2
 .byte   N48 ,Bn2
 .byte   W48
 .byte   N24 ,Dn1
 .byte   N24 ,En2
 .byte   N24 ,Fs2
 .byte   N24 ,Bn2
 .byte   W24
 .byte   En1
 .byte   N24 ,Gs2
 .byte   N24 ,Bn2
 .byte   N24 ,En3
 .byte   W24
@  #01 @056   ----------------------------------------
 .byte   EOT
 .byte   Gs4
 .byte   N48 ,An1
 .byte   N48 ,An2
 .byte   N48 ,Cs3
 .byte   N48 ,En3
 .byte   N12 ,Gs4
 .byte   N12 ,Bn4 ,v084
 .byte   W12
 .byte   N24 ,En4
 .byte   W24
 .byte   N12
 .byte   W12
 .byte   N48 ,Gs1 ,v036
 .byte   N48 ,Fs2
 .byte   N48 ,Bn2
 .byte   N48 ,Ds3
 .byte   N12 ,Ds4 ,v084
 .byte   W12
 .byte   En4
 .byte   W12
 .byte   Fs4
 .byte   W12
 .byte   N72 ,En4 ,v120
 .byte   W12
@  #01 @057   ----------------------------------------
 .byte   PATT
  .word Label_0115DE38
@  #01 @058   ----------------------------------------
 .byte   N48 ,Fs1 ,v036
 .byte   N48 ,Cs2
 .byte   N48 ,En2
 .byte   N48 ,Fs2
 .byte   N12 ,An4 ,v112
 .byte   W12
 .byte   N24 ,Gs4 ,v084
 .byte   W24
 .byte   N12 ,Fs4
 .byte   W12
 .byte   N48 ,Gs1 ,v036
 .byte   N48 ,Ds2
 .byte   N48 ,Fs2
 .byte   N48 ,Gs2
 .byte   N12 ,En4 ,v100
 .byte   W12
 .byte   N24 ,Ds4 ,v120
 .byte   W24
 .byte   N12 ,Ds4 ,v127
 .byte   W12
@  #01 @059   ----------------------------------------
 .byte   N96 ,Cs1 ,v036
 .byte   N96 ,Cs2
 .byte   N96 ,Fs2
 .byte   N96 ,Gs2
 .byte   N96 ,Bn2
 .byte   W12
 .byte   N06 ,En4 ,v127
 .byte   W06
 .byte   Ds4
 .byte   W06
 .byte   N72 ,Cs4
 .byte   W72
@  #01 @060   ----------------------------------------
 .byte   W96
@  #01 @061   ----------------------------------------
 .byte   W96
@  #01 @062   ----------------------------------------
 .byte   W24
 .byte   GOTO
  .word Label_0115DD4A
@  #01 @063   ----------------------------------------
 .byte   W72
 .byte   W96
@  #01 @064   ----------------------------------------
 .byte   W96
@  #01 @065   ----------------------------------------
 .byte   W96
@  #01 @066   ----------------------------------------
 .byte   W96
@  #01 @067   ----------------------------------------
 .byte   W96
@  #01 @068   ----------------------------------------
 .byte   W96
@  #01 @069   ----------------------------------------
 .byte   W96
@  #01 @070   ----------------------------------------
 .byte   W96
@  #01 @071   ----------------------------------------
 .byte   W96
@  #01 @072   ----------------------------------------
 .byte   W96
@  #01 @073   ----------------------------------------
 .byte   W96
@  #01 @074   ----------------------------------------
 .byte   W96
@  #01 @075   ----------------------------------------
 .byte   W96
@  #01 @076   ----------------------------------------
 .byte   N96 ,Cs2 ,v084
 .byte   N96 ,Gs2
 .byte   W96
@  #01 @077   ----------------------------------------
 .byte   As1
 .byte   N96 ,Fs2
 .byte   W96
@  #01 @078   ----------------------------------------
 .byte   W96
@  #01 @079   ----------------------------------------
 .byte   Gs1
 .byte   N96 ,Fs2
 .byte   W96
@  #01 @080   ----------------------------------------
 .byte   PATT
  .word Label_0115DD67
@  #01 @081   ----------------------------------------
 .byte   N96 ,Cs2 ,v084
 .byte   N96 ,Bn2
 .byte   W96
@  #01 @082   ----------------------------------------
 .byte   En2
 .byte   N96 ,An2
 .byte   W96
@  #01 @083   ----------------------------------------
 .byte   W96
@  #01 @084   ----------------------------------------
 .byte   Cs2
 .byte   N96 ,Gs2
 .byte   W96
@  #01 @085   ----------------------------------------
 .byte   As1
 .byte   N96 ,Fs2
 .byte   W96
@  #01 @086   ----------------------------------------
 .byte   En2
 .byte   N96 ,An2
 .byte   W96
@  #01 @087   ----------------------------------------
 .byte   Gs1
 .byte   N96 ,Fs2
 .byte   W96
@  #01 @088   ----------------------------------------
 .byte   PATT
  .word Label_0115DD67
@  #01 @089   ----------------------------------------
 .byte   N96 ,Cs2 ,v084
 .byte   N96 ,Bn2
 .byte   W96
@  #01 @090   ----------------------------------------
 .byte   En2
 .byte   N96 ,An2
 .byte   W96
@  #01 @091   ----------------------------------------
 .byte   PATT
  .word Label_0115DD67
@  #01 @092   ----------------------------------------
 .byte   W96
@  #01 @093   ----------------------------------------
 .byte   W96
@  #01 @094   ----------------------------------------
 .byte   W96
@  #01 @095   ----------------------------------------
 .byte   W96
@  #01 @096   ----------------------------------------
 .byte   PATT
  .word Label_0115DDA4
@  #01 @097   ----------------------------------------
 .byte   PATT
  .word Label_0115DDB7
@  #01 @098   ----------------------------------------
 .byte   PATT
  .word Label_0115DDC4
@  #01 @099   ----------------------------------------
 .byte   PATT
  .word Label_0115DDD7
@  #01 @100   ----------------------------------------
 .byte   PATT
  .word Label_0115DDA4
@  #01 @101   ----------------------------------------
 .byte   PATT
  .word Label_0115DDB7
@  #01 @102   ----------------------------------------
 .byte   PATT
  .word Label_0115DDC4
@  #01 @103   ----------------------------------------
 .byte   PATT
  .word Label_0115DE04
 .byte   FINE

@**************** Track 2 (Midi-Chn.1) ****************@

song07_002:
@  #02 @000   ----------------------------------------
 .byte   KEYSH , song07_key+0
 .byte   VOICE , 89
 .byte   MODT 0
 .byte   LFOS 44
 .byte   MODT 0
 .byte   LFOS 44
 .byte   MODT 0
 .byte   LFOS 44
 .byte   PAN , c_v+8
 .byte   VOL , 46*song07_mvl/mxv
 .byte   BEND , c_v+0
 .byte   W96
@  #02 @001   ----------------------------------------
 .byte   W96
@  #02 @002   ----------------------------------------
 .byte   W96
@  #02 @003   ----------------------------------------
 .byte   W96
@  #02 @004   ----------------------------------------
 .byte   N12 ,Bn4 ,v048
 .byte   W12
 .byte   N24 ,En4
 .byte   W24
 .byte   N12
 .byte   W12
 .byte   Ds4
 .byte   W12
 .byte   En4
 .byte   W12
 .byte   Fs4
 .byte   W12
 .byte   N72 ,En4 ,v068
 .byte   W12
@  #02 @005   ----------------------------------------
 .byte   W60
 .byte   N12 ,En4 ,v048
 .byte   W12
 .byte   Fs4
 .byte   W12
 .byte   Gs4
 .byte   W12
@  #02 @006   ----------------------------------------
 .byte   An4 ,v068
 .byte   W12
 .byte   N24 ,Gs4 ,v048
 .byte   W24
 .byte   N12 ,Fs4 ,v044
 .byte   W12
 .byte   En4 ,v052
 .byte   W12
 .byte   N24 ,Ds4 ,v068
 .byte   W24
 .byte   TIE ,Gs3 ,v016
 .byte   TIE ,Cs4
 .byte   TIE ,Gs4
 .byte   W12
@  #02 @007   ----------------------------------------
 .byte   W96
@  #02 @008   ----------------------------------------
 .byte   EOT
 .byte   Gs3 ,v073
 .byte   Gs4
 .byte   W96
@  #02 @009   ----------------------------------------
 .byte   W96
@  #02 @010   ----------------------------------------
 .byte   W24
Label_0115FD70:
 .byte   W72
@  #02 @011   ----------------------------------------
 .byte   W96
@  #02 @012   ----------------------------------------
 .byte   W96
@  #02 @013   ----------------------------------------
 .byte   W96
@  #02 @014   ----------------------------------------
 .byte   W96
@  #02 @015   ----------------------------------------
 .byte   W96
@  #02 @016   ----------------------------------------
 .byte   W96
@  #02 @017   ----------------------------------------
 .byte   W96
@  #02 @018   ----------------------------------------
 .byte   W96
@  #02 @019   ----------------------------------------
 .byte   W96
@  #02 @020   ----------------------------------------
 .byte   W96
@  #02 @021   ----------------------------------------
 .byte   W96
@  #02 @022   ----------------------------------------
 .byte   W96
@  #02 @023   ----------------------------------------
 .byte   W96
@  #02 @024   ----------------------------------------
 .byte   W96
@  #02 @025   ----------------------------------------
 .byte   W96
@  #02 @026   ----------------------------------------
 .byte   W96
@  #02 @027   ----------------------------------------
 .byte   W96
@  #02 @028   ----------------------------------------
 .byte   W96
@  #02 @029   ----------------------------------------
 .byte   W96
@  #02 @030   ----------------------------------------
 .byte   W96
@  #02 @031   ----------------------------------------
 .byte   W96
@  #02 @032   ----------------------------------------
 .byte   W96
@  #02 @033   ----------------------------------------
 .byte   W96
@  #02 @034   ----------------------------------------
 .byte   W96
@  #02 @035   ----------------------------------------
 .byte   W96
@  #02 @036   ----------------------------------------
 .byte   W96
@  #02 @037   ----------------------------------------
 .byte   W96
@  #02 @038   ----------------------------------------
 .byte   W96
@  #02 @039   ----------------------------------------
 .byte   W96
@  #02 @040   ----------------------------------------
 .byte   W96
@  #02 @041   ----------------------------------------
 .byte   W96
@  #02 @042   ----------------------------------------
 .byte   W96
@  #02 @043   ----------------------------------------
 .byte   W96
@  #02 @044   ----------------------------------------
 .byte   W96
@  #02 @045   ----------------------------------------
 .byte   W96
@  #02 @046   ----------------------------------------
 .byte   W96
@  #02 @047   ----------------------------------------
 .byte   W96
@  #02 @048   ----------------------------------------
 .byte   W96
@  #02 @049   ----------------------------------------
 .byte   W96
@  #02 @050   ----------------------------------------
 .byte   W96
@  #02 @051   ----------------------------------------
 .byte   W96
@  #02 @052   ----------------------------------------
Label_0115FD9A:
 .byte   N12 ,Bn4 ,v016
 .byte   W12
 .byte   N24 ,En4
 .byte   W24
 .byte   N12
 .byte   W12
 .byte   Ds4
 .byte   W12
 .byte   En4
 .byte   W12
 .byte   Fs4
 .byte   W12
 .byte   N72 ,En4 ,v024
 .byte   W12
 .byte   PEND 
@  #02 @053   ----------------------------------------
Label_0115FDAE:
 .byte   W60
 .byte   N12 ,En4 ,v016
 .byte   W12
 .byte   Fs4
 .byte   W12
 .byte   Gs4
 .byte   W12
 .byte   PEND 
@  #02 @054   ----------------------------------------
 .byte   An4
 .byte   W12
 .byte   N24 ,Gs4
 .byte   W24
 .byte   N12 ,Fs4
 .byte   W12
 .byte   En4
 .byte   W12
 .byte   N24 ,Ds4
 .byte   W24
 .byte   TIE ,Gs4 ,v024
 .byte   W12
@  #02 @055   ----------------------------------------
 .byte   W96
@  #02 @056   ----------------------------------------
 .byte   EOT
@  #02 @057   ----------------------------------------
 .byte   PATT
  .word Label_0115FD9A
@  #02 @058   ----------------------------------------
 .byte   PATT
  .word Label_0115FDAE
@  #02 @059   ----------------------------------------
 .byte   N12 ,An4 ,v024
 .byte   W12
 .byte   N24 ,Gs4 ,v016
 .byte   W24
 .byte   N12 ,Fs4
 .byte   W12
 .byte   En4 ,v020
 .byte   W12
 .byte   N24 ,Ds4 ,v028
 .byte   W24
 .byte   N24
 .byte   W12
@  #02 @060   ----------------------------------------
 .byte   W12
 .byte   N06 ,En4
 .byte   W06
 .byte   Ds4
 .byte   W06
 .byte   N72 ,Cs4
 .byte   W72
@  #02 @061   ----------------------------------------
 .byte   W96
@  #02 @062   ----------------------------------------
 .byte   W96
@  #02 @063   ----------------------------------------
 .byte   W24
 .byte   GOTO
  .word Label_0115FD70
@  #02 @064   ----------------------------------------
 .byte   W72
 .byte   W96
@  #02 @065   ----------------------------------------
 .byte   W96
@  #02 @066   ----------------------------------------
 .byte   W96
@  #02 @067   ----------------------------------------
 .byte   W96
@  #02 @068   ----------------------------------------
 .byte   W96
@  #02 @069   ----------------------------------------
 .byte   W96
@  #02 @070   ----------------------------------------
 .byte   W96
@  #02 @071   ----------------------------------------
 .byte   W96
@  #02 @072   ----------------------------------------
 .byte   W96
@  #02 @073   ----------------------------------------
 .byte   W96
@  #02 @074   ----------------------------------------
 .byte   W96
@  #02 @075   ----------------------------------------
 .byte   W96
@  #02 @076   ----------------------------------------
 .byte   W96
@  #02 @077   ----------------------------------------
 .byte   W96
@  #02 @078   ----------------------------------------
 .byte   W96
@  #02 @079   ----------------------------------------
 .byte   W96
@  #02 @080   ----------------------------------------
 .byte   W96
@  #02 @081   ----------------------------------------
 .byte   W96
@  #02 @082   ----------------------------------------
 .byte   W96
@  #02 @083   ----------------------------------------
 .byte   W96
@  #02 @084   ----------------------------------------
 .byte   W96
@  #02 @085   ----------------------------------------
 .byte   W96
@  #02 @086   ----------------------------------------
 .byte   W96
@  #02 @087   ----------------------------------------
 .byte   W96
@  #02 @088   ----------------------------------------
 .byte   W96
@  #02 @089   ----------------------------------------
 .byte   W96
@  #02 @090   ----------------------------------------
 .byte   W96
@  #02 @091   ----------------------------------------
 .byte   W96
@  #02 @092   ----------------------------------------
 .byte   W96
@  #02 @093   ----------------------------------------
 .byte   W96
@  #02 @094   ----------------------------------------
 .byte   W96
@  #02 @095   ----------------------------------------
 .byte   W96
@  #02 @096   ----------------------------------------
 .byte   W96
@  #02 @097   ----------------------------------------
 .byte   W96
@  #02 @098   ----------------------------------------
 .byte   W96
@  #02 @099   ----------------------------------------
 .byte   W96
@  #02 @100   ----------------------------------------
 .byte   W96
@  #02 @101   ----------------------------------------
 .byte   W96
@  #02 @102   ----------------------------------------
 .byte   W96
@  #02 @103   ----------------------------------------
 .byte   W96
@  #02 @104   ----------------------------------------
 .byte   W96
 .byte   FINE

@**************** Track 3 (Midi-Chn.2) ****************@

song07_003:
@  #03 @000   ----------------------------------------
 .byte   KEYSH , song07_key+0
 .byte   VOICE , 95
 .byte   MODT 0
 .byte   LFOS 44
 .byte   MODT 0
 .byte   LFOS 44
 .byte   MODT 0
 .byte   LFOS 44
 .byte   PAN , c_v+3
 .byte   VOL , 46*song07_mvl/mxv
 .byte   BEND , c_v+0
 .byte   W96
@  #03 @001   ----------------------------------------
 .byte   W96
@  #03 @002   ----------------------------------------
 .byte   W96
@  #03 @003   ----------------------------------------
 .byte   W96
@  #03 @004   ----------------------------------------
 .byte   W96
@  #03 @005   ----------------------------------------
 .byte   W96
@  #03 @006   ----------------------------------------
 .byte   W80
 .byte   W02
 .byte   VOL , 29*song07_mvl/mxv
 .byte   W02
 .byte   TIE ,Gs3 ,v076
 .byte   TIE ,Gs4
 .byte   TIE ,Gs5
 .byte   W04
 .byte   VOL , 29*song07_mvl/mxv
 .byte   W06
 .byte   VOL , 29*song07_mvl/mxv
 .byte   W02
@  #03 @007   ----------------------------------------
 .byte   W03
 .byte   VOL , 29*song07_mvl/mxv
 .byte   W04
 .byte   VOL , 29*song07_mvl/mxv
 .byte   W08
 .byte   VOL , 29*song07_mvl/mxv
 .byte   W10
 .byte   VOL , 30*song07_mvl/mxv
 .byte   W07
 .byte   VOL , 31*song07_mvl/mxv
 .byte   W08
 .byte   VOL , 31*song07_mvl/mxv
 .byte   W08
 .byte   VOL , 32*song07_mvl/mxv
 .byte   W08
 .byte   VOL , 34*song07_mvl/mxv
 .byte   W05
 .byte   VOL , 36*song07_mvl/mxv
 .byte   W03
 .byte   VOL , 39*song07_mvl/mxv
 .byte   W03
 .byte   VOL , 41*song07_mvl/mxv
 .byte   W05
 .byte   VOL , 44*song07_mvl/mxv
 .byte   W02
 .byte   VOL , 45*song07_mvl/mxv
 .byte   W02
 .byte   VOL , 46*song07_mvl/mxv
 .byte   W20
@  #03 @008   ----------------------------------------
 .byte   EOT
 .byte   Gs3 ,v080
 .byte   Gs5
 .byte   W96
@  #03 @009   ----------------------------------------
 .byte   W96
@  #03 @010   ----------------------------------------
 .byte   W24
Label_54AD92:
 .byte   W72
@  #03 @011   ----------------------------------------
 .byte   W96
@  #03 @012   ----------------------------------------
 .byte   W96
@  #03 @013   ----------------------------------------
 .byte   W96
@  #03 @014   ----------------------------------------
 .byte   W96
@  #03 @015   ----------------------------------------
 .byte   W96
@  #03 @016   ----------------------------------------
 .byte   W96
@  #03 @017   ----------------------------------------
 .byte   W96
@  #03 @018   ----------------------------------------
 .byte   W96
@  #03 @019   ----------------------------------------
 .byte   W96
@  #03 @020   ----------------------------------------
 .byte   W96
@  #03 @021   ----------------------------------------
 .byte   W96
@  #03 @022   ----------------------------------------
 .byte   W96
@  #03 @023   ----------------------------------------
 .byte   W96
@  #03 @024   ----------------------------------------
 .byte   W96
@  #03 @025   ----------------------------------------
 .byte   W96
@  #03 @026   ----------------------------------------
 .byte   W96
@  #03 @027   ----------------------------------------
 .byte   W96
@  #03 @028   ----------------------------------------
 .byte   W96
@  #03 @029   ----------------------------------------
 .byte   W96
@  #03 @030   ----------------------------------------
 .byte   W96
@  #03 @031   ----------------------------------------
 .byte   W96
@  #03 @032   ----------------------------------------
 .byte   W96
@  #03 @033   ----------------------------------------
 .byte   W96
@  #03 @034   ----------------------------------------
 .byte   W96
@  #03 @035   ----------------------------------------
 .byte   W96
@  #03 @036   ----------------------------------------
 .byte   W96
@  #03 @037   ----------------------------------------
 .byte   W96
@  #03 @038   ----------------------------------------
 .byte   W96
@  #03 @039   ----------------------------------------
 .byte   W96
@  #03 @040   ----------------------------------------
 .byte   W96
@  #03 @041   ----------------------------------------
 .byte   W96
@  #03 @042   ----------------------------------------
 .byte   W96
@  #03 @043   ----------------------------------------
 .byte   W96
@  #03 @044   ----------------------------------------
 .byte   W96
@  #03 @045   ----------------------------------------
 .byte   W96
@  #03 @046   ----------------------------------------
 .byte   W96
@  #03 @047   ----------------------------------------
 .byte   W96
@  #03 @048   ----------------------------------------
 .byte   W96
@  #03 @049   ----------------------------------------
 .byte   W96
@  #03 @050   ----------------------------------------
 .byte   W96
@  #03 @051   ----------------------------------------
 .byte   W96
@  #03 @052   ----------------------------------------
 .byte   W96
@  #03 @053   ----------------------------------------
 .byte   W96
@  #03 @054   ----------------------------------------
 .byte   W96
@  #03 @055   ----------------------------------------
 .byte   W96
@  #03 @056   ----------------------------------------
 .byte   W96
@  #03 @057   ----------------------------------------
 .byte   W96
@  #03 @058   ----------------------------------------
 .byte   W96
@  #03 @059   ----------------------------------------
 .byte   W96
@  #03 @060   ----------------------------------------
 .byte   W96
@  #03 @061   ----------------------------------------
 .byte   W96
@  #03 @062   ----------------------------------------
 .byte   W24
 .byte   GOTO
  .word Label_54AD92
@  #03 @063   ----------------------------------------
 .byte   W72
 .byte   W96
@  #03 @064   ----------------------------------------
 .byte   W96
@  #03 @065   ----------------------------------------
 .byte   W96
@  #03 @066   ----------------------------------------
 .byte   W96
@  #03 @067   ----------------------------------------
 .byte   W96
@  #03 @068   ----------------------------------------
 .byte   W96
@  #03 @069   ----------------------------------------
 .byte   W96
@  #03 @070   ----------------------------------------
 .byte   W96
@  #03 @071   ----------------------------------------
 .byte   W96
@  #03 @072   ----------------------------------------
 .byte   W96
@  #03 @073   ----------------------------------------
 .byte   W96
@  #03 @074   ----------------------------------------
 .byte   W96
@  #03 @075   ----------------------------------------
 .byte   W96
@  #03 @076   ----------------------------------------
 .byte   W96
@  #03 @077   ----------------------------------------
 .byte   W96
@  #03 @078   ----------------------------------------
 .byte   W96
@  #03 @079   ----------------------------------------
 .byte   W96
@  #03 @080   ----------------------------------------
 .byte   W96
@  #03 @081   ----------------------------------------
 .byte   W96
@  #03 @082   ----------------------------------------
 .byte   W96
@  #03 @083   ----------------------------------------
 .byte   W96
@  #03 @084   ----------------------------------------
 .byte   W96
@  #03 @085   ----------------------------------------
 .byte   W96
@  #03 @086   ----------------------------------------
 .byte   W96
@  #03 @087   ----------------------------------------
 .byte   W96
@  #03 @088   ----------------------------------------
 .byte   W96
@  #03 @089   ----------------------------------------
 .byte   W96
@  #03 @090   ----------------------------------------
 .byte   W96
@  #03 @091   ----------------------------------------
 .byte   W96
@  #03 @092   ----------------------------------------
 .byte   W96
@  #03 @093   ----------------------------------------
 .byte   W96
@  #03 @094   ----------------------------------------
 .byte   W96
@  #03 @095   ----------------------------------------
 .byte   W96
@  #03 @096   ----------------------------------------
 .byte   W96
@  #03 @097   ----------------------------------------
 .byte   W96
@  #03 @098   ----------------------------------------
 .byte   W96
@  #03 @099   ----------------------------------------
 .byte   W96
@  #03 @100   ----------------------------------------
 .byte   W96
@  #03 @101   ----------------------------------------
 .byte   W96
@  #03 @102   ----------------------------------------
 .byte   W96
@  #03 @103   ----------------------------------------
 .byte   W96
 .byte   FINE

@**************** Track 4 (Midi-Chn.3) ****************@

song07_004:
@  #04 @000   ----------------------------------------
 .byte   KEYSH , song07_key+0
 .byte   VOICE , 40
 .byte   MODT 0
 .byte   LFOS 44
 .byte   MODT 0
 .byte   LFOS 44
 .byte   MODT 0
 .byte   LFOS 44
 .byte   VOL , 22*song07_mvl/mxv
 .byte   PAN , c_v+0
 .byte   VOL , 22*song07_mvl/mxv
 .byte   BEND , c_v+0
 .byte   W96
@  #04 @001   ----------------------------------------
 .byte   W96
@  #04 @002   ----------------------------------------
 .byte   W96
@  #04 @003   ----------------------------------------
 .byte   W96
@  #04 @004   ----------------------------------------
 .byte   W96
@  #04 @005   ----------------------------------------
 .byte   W96
@  #04 @006   ----------------------------------------
 .byte   W96
@  #04 @007   ----------------------------------------
 .byte   W96
@  #04 @008   ----------------------------------------
Label_0115FF04:
 .byte   TIE ,Cs2 ,v127
 .byte   TIE ,Bn2
 .byte   W96
 .byte   PEND 
@  #04 @009   ----------------------------------------
 .byte   W66
 .byte   EOT
 .byte   Cs2 ,v059
 .byte   BEND , c_v-33
 .byte   N01 ,Cs2 ,v060
 .byte   N04 ,Dn2
 .byte   N04 ,Dn3
 .byte   W01
 .byte   BEND , c_v+0
 .byte   W05
 .byte   N18 ,Dn2
 .byte   N18 ,Dn3
 .byte   W24
@  #04 @010   ----------------------------------------
 .byte   W24
Label_0115FF22:
 .byte   TIE ,Bn1 ,v127
 .byte   TIE ,Bn2
 .byte   W72
@  #04 @011   ----------------------------------------
 .byte   W66
 .byte   EOT
 .byte   Bn1 ,v059
 .byte   BEND , c_v-33
 .byte   N01 ,Bn1 ,v060
 .byte   N04 ,Dn2
 .byte   N04 ,Dn3
 .byte   W01
 .byte   BEND , c_v+0
 .byte   W05
 .byte   N18 ,Dn2
 .byte   N18 ,Dn3
 .byte   W24
@  #04 @012   ----------------------------------------
 .byte   PATT
  .word Label_0115FF04
@  #04 @013   ----------------------------------------
 .byte   W66
 .byte   EOT
 .byte   Cs2 ,v059
 .byte   BEND , c_v-33
 .byte   N01 ,Cs2 ,v127
 .byte   N04 ,Dn2
 .byte   N04 ,Dn3
 .byte   W01
 .byte   BEND , c_v+0
 .byte   W05
 .byte   N18 ,Dn2
 .byte   N18 ,Dn3
 .byte   W24
@  #04 @014   ----------------------------------------
Label_0115FF59:
 .byte   W24
 .byte   TIE ,Bn1 ,v127
 .byte   TIE ,Bn2
 .byte   W72
 .byte   PEND 
@  #04 @015   ----------------------------------------
 .byte   W66
 .byte   EOT
 .byte   Bn1 ,v059
 .byte   BEND , c_v-33
 .byte   N01 ,Bn1
 .byte   N04 ,Dn2
 .byte   N04 ,Dn3
 .byte   W01
 .byte   BEND , c_v+0
 .byte   W05
 .byte   N18 ,Dn2
 .byte   N18 ,Dn3
 .byte   W24
@  #04 @016   ----------------------------------------
Label_0115FF76:
 .byte   W24
 .byte   TIE ,Bn2 ,v127
 .byte   W72
 .byte   PEND 
@  #04 @017   ----------------------------------------
 .byte   W96
@  #04 @018   ----------------------------------------
 .byte   EOT
@  #04 @019   ----------------------------------------
 .byte   PATT
  .word Label_0115FF76
@  #04 @020   ----------------------------------------
 .byte   W96
@  #04 @021   ----------------------------------------
 .byte   EOT
 .byte   Bn2
Label_0115FF86:
 .byte   N24 ,Bn2 ,v127
 .byte   W24
 .byte   TIE
 .byte   W72
 .byte   PEND 
@  #04 @022   ----------------------------------------
 .byte   W96
@  #04 @023   ----------------------------------------
 .byte   EOT
@  #04 @024   ----------------------------------------
 .byte   PATT
  .word Label_0115FF86
@  #04 @025   ----------------------------------------
Label_0115FF94:
 .byte   W76
 .byte   W01
 .byte   BEND , c_v+63
 .byte   W01
 .byte   PEND 
 .byte   EOT
 .byte   Bn2
 .byte   BEND , c_v+46
 .byte   N06 ,En2 ,v127
 .byte   N01 ,Bn2
 .byte   N06 ,En3
 .byte   W01
 .byte   BEND , c_v+28
 .byte   W01
 .byte   BEND , c_v+10
 .byte   W01
 .byte   BEND , c_v+0
 .byte   W03
 .byte   N06
 .byte   N06 ,En4
 .byte   W06
 .byte   Cs3
 .byte   N06 ,Cs4
 .byte   W06
@  #04 @026   ----------------------------------------
Label_0115FFB5:
 .byte   N72 ,Ds3 ,v127
 .byte   N72 ,Ds4
 .byte   W72
 .byte   N12 ,Ds3
 .byte   N12 ,Ds4
 .byte   W12
 .byte   N06 ,Bn2
 .byte   N06 ,Bn3
 .byte   W06
 .byte   N12 ,Gs2
 .byte   N12 ,Gs3
 .byte   W06
 .byte   PEND 
@  #04 @027   ----------------------------------------
Label_0115FFCB:
 .byte   W06
 .byte   N18 ,Fs2 ,v127
 .byte   N18 ,Fs3
 .byte   W18
 .byte   N08 ,Gs2
 .byte   N08 ,Gs3
 .byte   W54
 .byte   N06 ,Cs2
 .byte   N06 ,Cs3
 .byte   W06
 .byte   En2
 .byte   N06 ,En3
 .byte   W06
 .byte   Bn2
 .byte   N06 ,Bn3
 .byte   W06
 .byte   PEND 
@  #04 @028   ----------------------------------------
Label_0115FFE5:
 .byte   N72 ,Cs3 ,v127
 .byte   N72 ,Cs4
 .byte   W72
 .byte   N12 ,Cs3
 .byte   N12 ,Cs4
 .byte   W12
 .byte   N06 ,Bn2
 .byte   N06 ,Bn3
 .byte   W06
 .byte   N12 ,Bn2
 .byte   N12 ,Bn3
 .byte   W06
 .byte   PEND 
@  #04 @029   ----------------------------------------
Label_0115FFFB:
 .byte   W06
 .byte   N06 ,An2 ,v127
 .byte   N06 ,An3
 .byte   W06
 .byte   N12 ,An2
 .byte   N12 ,An3
 .byte   W11
 .byte   BEND , c_v+52
 .byte   W01
 .byte   BEND , c_v+40
 .byte   N08 ,Gs2
 .byte   N08 ,Gs3
 .byte   W01
 .byte   BEND , c_v+28
 .byte   W01
 .byte   BEND , c_v+16
 .byte   W01
 .byte   BEND , c_v+4
 .byte   W02
 .byte   BEND , c_v+0
 .byte   W48
 .byte   W01
 .byte   N06 ,Fs2
 .byte   N06 ,Fs3
 .byte   W06
 .byte   Gs2
 .byte   N06 ,Gs3
 .byte   W06
 .byte   Cs3
 .byte   N06 ,Cs4
 .byte   W06
 .byte   PEND 
@  #04 @030   ----------------------------------------
Label_01160028:
 .byte   N48 ,Ds3 ,v127
 .byte   N48 ,Ds4
 .byte   W48
 .byte   N24 ,Ds3
 .byte   N24 ,Ds4
 .byte   W24
 .byte   N12 ,Ds3
 .byte   N12 ,Ds4
 .byte   W12
 .byte   N06 ,Bn2
 .byte   N06 ,Bn3
 .byte   W06
 .byte   N12 ,Gs2
 .byte   N12 ,Gs3
 .byte   W06
 .byte   PEND 
@  #04 @031   ----------------------------------------
Label_01160043:
 .byte   W06
 .byte   N18 ,Fs2 ,v127
 .byte   N18 ,Fs3
 .byte   W18
 .byte   N08 ,Gs2
 .byte   N08 ,Gs3
 .byte   W30
 .byte   N18 ,Cs2
 .byte   N18 ,Cs3
 .byte   W18
 .byte   N12 ,En2
 .byte   N12 ,En3
 .byte   W12
 .byte   Bn2
 .byte   N12 ,Bn3
 .byte   W12
 .byte   PEND 
@  #04 @032   ----------------------------------------
Label_0116005E:
 .byte   N48 ,Cs3 ,v127
 .byte   N48 ,Cs4
 .byte   W48
 .byte   N12 ,Cs3
 .byte   N12 ,Cs4
 .byte   W12
 .byte   N24 ,Bn2
 .byte   N24 ,Bn3
 .byte   W24
 .byte   N06 ,An2
 .byte   N06 ,An3
 .byte   W06
 .byte   An2
 .byte   N06 ,An3
 .byte   W06
 .byte   PEND 
@  #04 @033   ----------------------------------------
Label_01160078:
 .byte   N12 ,An2 ,v127
 .byte   N12 ,An3
 .byte   W12
 .byte   Gs2
 .byte   N12 ,Gs3
 .byte   W12
 .byte   N24 ,Gs2
 .byte   N24 ,Gs3
 .byte   W21
 .byte   BEND , c_v+0
 .byte   W01
 .byte   BEND , c_v-16
 .byte   W01
 .byte   BEND , c_v-32
 .byte   W01
 .byte   BEND , c_v-41
 .byte   W24
 .byte   W01
 .byte   BEND , c_v+0
 .byte   W05
 .byte   N06 ,Fs2
 .byte   N06 ,Fs3
 .byte   W06
 .byte   Gs2
 .byte   N06 ,Gs3
 .byte   W06
 .byte   Cs3
 .byte   N06 ,Cs4
 .byte   W06
 .byte   PEND 
@  #04 @034   ----------------------------------------
Label_011600A1:
 .byte   N72 ,Ds3 ,v127
 .byte   N72 ,Ds4
 .byte   W72
 .byte   N12 ,Ds3
 .byte   N12 ,Ds4
 .byte   W12
 .byte   N06 ,Bn2
 .byte   N06 ,Bn3
 .byte   W06
 .byte   Gs2
 .byte   N06 ,Gs3
 .byte   W06
 .byte   PEND 
@  #04 @035   ----------------------------------------
 .byte   PATT
  .word Label_0115FFCB
@  #04 @036   ----------------------------------------
Label_011600BB:
 .byte   N48 ,Cs3 ,v127
 .byte   N48 ,Cs4
 .byte   W48
 .byte   N24 ,Cs3
 .byte   N24 ,Cs4
 .byte   W24
 .byte   N12 ,Cs3
 .byte   N12 ,Cs4
 .byte   W12
 .byte   N06 ,Bn2
 .byte   N06 ,Bn3
 .byte   W06
 .byte   N12 ,Bn2
 .byte   N12 ,Bn3
 .byte   W06
 .byte   PEND 
@  #04 @037   ----------------------------------------
Label_011600D6:
 .byte   W06
 .byte   N06 ,An2 ,v127
 .byte   N06 ,An3
 .byte   W06
 .byte   N12 ,An2
 .byte   N12 ,An3
 .byte   W12
 .byte   N08 ,Gs2
 .byte   N08 ,Gs3
 .byte   W36
 .byte   N12 ,Fs2
 .byte   N12 ,Fs3
 .byte   W12
 .byte   Gs2
 .byte   N12 ,Gs3
 .byte   W12
 .byte   Cs3
 .byte   N12 ,Cs4
 .byte   W12
 .byte   PEND 
@  #04 @038   ----------------------------------------
Label_011600F5:
 .byte   N48 ,Ds3 ,v127
 .byte   N48 ,Ds4
 .byte   W48
 .byte   N24 ,Ds3
 .byte   N24 ,Ds4
 .byte   W24
 .byte   N12 ,Ds3
 .byte   N12 ,Ds4
 .byte   W12
 .byte   N06 ,Bn2
 .byte   N06 ,Bn3
 .byte   W06
 .byte   Gs2
 .byte   N06 ,Gs3
 .byte   W06
 .byte   PEND 
@  #04 @039   ----------------------------------------
Label_0116010F:
 .byte   W06
 .byte   N18 ,Fs2 ,v127
 .byte   N18 ,Fs3
 .byte   W18
 .byte   N08 ,Gs2
 .byte   N08 ,Gs3
 .byte   W48
 .byte   N12 ,Cs2
 .byte   N12 ,Cs3
 .byte   W12
 .byte   En2
 .byte   N12 ,En3
 .byte   W12
 .byte   PEND 
@  #04 @040   ----------------------------------------
Label_01160125:
 .byte   N12 ,Bn2 ,v127
 .byte   N12 ,Bn3
 .byte   W12
 .byte   An2
 .byte   N12 ,An3
 .byte   W36
 .byte   An2
 .byte   N12 ,An3
 .byte   W12
 .byte   Gs2
 .byte   N12 ,Gs3
 .byte   W24
 .byte   Gs2
 .byte   N12 ,Gs3
 .byte   W12
 .byte   PEND 
@  #04 @041   ----------------------------------------
Label_0116013C:
 .byte   N12 ,Gs2 ,v127
 .byte   N12 ,Gs3
 .byte   W12
 .byte   N06 ,An2
 .byte   N06 ,An3
 .byte   W06
 .byte   Gs2
 .byte   N06 ,Gs3
 .byte   W06
 .byte   N24 ,Fs2
 .byte   N24 ,Fs3
 .byte   W36
 .byte   En2
 .byte   N24 ,En3
 .byte   W24
 .byte   N12 ,Ds2
 .byte   N12 ,Ds3
 .byte   W12
 .byte   PEND 
@  #04 @042   ----------------------------------------
Label_0116015A:
 .byte   TIE ,Cs2 ,v127
 .byte   TIE ,Gs2
 .byte   TIE ,Ds3
 .byte   W96
 .byte   PEND 
@  #04 @043   ----------------------------------------
 .byte   W96
@  #04 @044   ----------------------------------------
 .byte   W96
@  #04 @045   ----------------------------------------
 .byte   W48
 .byte   EOT
 .byte   Cs2 ,v056
 .byte   Ds3
 .byte   N12 ,Bn1 ,v056
 .byte   N12 ,Cs2
 .byte   N12 ,Bn2
 .byte   N12 ,Ds3
 .byte   W12
 .byte   N06 ,Cs2
 .byte   N06 ,Cs3
 .byte   W12
 .byte   N12 ,Cs2
 .byte   N12 ,Cs3
 .byte   W12
 .byte   N06 ,Cs1
 .byte   N06 ,Cs2
 .byte   W06
 .byte   Bn0
 .byte   N06 ,Bn1
 .byte   W06
@  #04 @046   ----------------------------------------
Label_01160187:
 .byte   N12 ,Bn3 ,v127
 .byte   N12 ,Bn4
 .byte   W12
 .byte   N24 ,En3
 .byte   N24 ,En4
 .byte   W24
 .byte   N12 ,En3
 .byte   N12 ,En4
 .byte   W12
 .byte   Ds3
 .byte   N12 ,Ds4
 .byte   W12
 .byte   En3
 .byte   N12 ,En4
 .byte   W12
 .byte   BEND , c_v-54
 .byte   N12 ,Fs3
 .byte   N12 ,Fs4
 .byte   W01
 .byte   BEND , c_v-36
 .byte   W01
 .byte   BEND , c_v-18
 .byte   W01
 .byte   BEND , c_v-9
 .byte   W01
 .byte   BEND , c_v+0
 .byte   W08
 .byte   N48 ,En3
 .byte   N48 ,En4
 .byte   W12
 .byte   PEND 
@  #04 @047   ----------------------------------------
Label_011601B5:
 .byte   W32
 .byte   BEND , c_v-3
 .byte   W01
 .byte   BEND , c_v-21
 .byte   W01
 .byte   BEND , c_v-35
 .byte   W01
 .byte   BEND , c_v-52
 .byte   W01
 .byte   BEND , c_v-63
 .byte   W23
 .byte   BEND , c_v+0
 .byte   W01
 .byte   N12 ,En3 ,v127
 .byte   N12 ,En4
 .byte   W12
 .byte   Fs3
 .byte   N12 ,Fs4
 .byte   W12
 .byte   Gs3
 .byte   N12 ,Gs4
 .byte   W12
 .byte   PEND 
@  #04 @048   ----------------------------------------
 .byte   N08 ,An3
 .byte   N08 ,An4
 .byte   W08
 .byte   N03 ,An3
 .byte   N03 ,An4
 .byte   W03
 .byte   N24 ,Gs3
 .byte   N24 ,Gs4
 .byte   W24
 .byte   W01
 .byte   N12 ,Fs3
 .byte   N12 ,Fs4
 .byte   W12
 .byte   En3
 .byte   N12 ,En4
 .byte   W12
 .byte   N24 ,Ds3
 .byte   N24 ,Ds4
 .byte   W24
 .byte   N84 ,Gs3
 .byte   N84 ,Gs4
 .byte   W04
 .byte   BEND , c_v-4
 .byte   W01
 .byte   BEND , c_v-15
 .byte   W01
 .byte   BEND , c_v-26
 .byte   W01
 .byte   BEND , c_v-37
 .byte   W01
 .byte   MOD 0
 .byte   BEND , c_v-42
 .byte   W01
 .byte   MOD 0
 .byte   BEND , c_v-53
 .byte   W01
 .byte   MOD 1
 .byte   BEND , c_v-53
 .byte   W01
 .byte   MOD 1
 .byte   BEND , c_v-40
 .byte   W01
@  #04 @049   ----------------------------------------
Label_01160212:
 .byte   MOD 1
 .byte   BEND , c_v-27
 .byte   W01
 .byte   MOD 2
 .byte   BEND , c_v-14
 .byte   W01
 .byte   MOD 2
 .byte   BEND , c_v-7
 .byte   W01
 .byte   MOD 2
 .byte   BEND , c_v+0
 .byte   W01
 .byte   MOD 2
 .byte   W01
 .byte   MOD 3
 .byte   W01
 .byte   MOD 3
 .byte   W01
 .byte   MOD 3
 .byte   W01
 .byte   MOD 4
 .byte   W01
 .byte   MOD 4
 .byte   W01
 .byte   MOD 4
 .byte   W01
 .byte   MOD 4
 .byte   W01
 .byte   MOD 4
 .byte   W01
 .byte   MOD 5
 .byte   W01
 .byte   MOD 5
 .byte   W01
 .byte   MOD 6
 .byte   W01
 .byte   MOD 6
 .byte   W01
 .byte   MOD 6
 .byte   W01
 .byte   MOD 6
 .byte   W01
 .byte   MOD 6
 .byte   W01
 .byte   MOD 6
 .byte   W01
 .byte   MOD 7
 .byte   W01
 .byte   MOD 7
 .byte   W01
 .byte   MOD 8
 .byte   W01
 .byte   MOD 8
 .byte   W01
 .byte   MOD 8
 .byte   W01
 .byte   MOD 8
 .byte   W01
 .byte   MOD 8
 .byte   W01
 .byte   MOD 9
 .byte   W01
 .byte   MOD 9
 .byte   W01
 .byte   MOD 10
 .byte   W01
 .byte   MOD 10
 .byte   W01
 .byte   MOD 10
 .byte   W01
 .byte   MOD 10
 .byte   W01
 .byte   MOD 10
 .byte   W01
 .byte   MOD 11
 .byte   W01
 .byte   MOD 11
 .byte   W01
 .byte   MOD 11
 .byte   W01
 .byte   MOD 12
 .byte   W01
 .byte   MOD 12
 .byte   W01
 .byte   MOD 12
 .byte   W01
 .byte   MOD 12
 .byte   W01
 .byte   MOD 12
 .byte   W01
 .byte   MOD 13
 .byte   W01
 .byte   MOD 13
 .byte   W01
 .byte   MOD 14
 .byte   W01
 .byte   MOD 14
 .byte   W01
 .byte   MOD 14
 .byte   W01
 .byte   MOD 14
 .byte   W01
 .byte   MOD 14
 .byte   W01
 .byte   MOD 15
 .byte   W01
 .byte   MOD 15
 .byte   W01
 .byte   MOD 16
 .byte   W01
 .byte   MOD 16
 .byte   W01
 .byte   MOD 16
 .byte   W14
 .byte   BEND , c_v-6
 .byte   W01
 .byte   BEND , c_v-22
 .byte   W01
 .byte   BEND , c_v-38
 .byte   W01
 .byte   BEND , c_v-55
 .byte   W23
 .byte   MOD 0
 .byte   W01
 .byte   BEND , c_v+0
 .byte   W01
 .byte   PEND 
@  #04 @050   ----------------------------------------
 .byte   N12 ,Bn3 ,v127
 .byte   N12 ,Bn4
 .byte   W12
 .byte   N24 ,En3
 .byte   N24 ,En4
 .byte   W24
 .byte   N12 ,En3
 .byte   N12 ,En4
 .byte   W12
 .byte   Ds3
 .byte   N12 ,Ds4
 .byte   W12
 .byte   En3
 .byte   N12 ,En4
 .byte   W12
 .byte   BEND , c_v-57
 .byte   N12 ,Fs3
 .byte   N12 ,Fs4
 .byte   W01
 .byte   BEND , c_v-49
 .byte   W01
 .byte   BEND , c_v-33
 .byte   W01
 .byte   BEND , c_v-17
 .byte   W01
 .byte   BEND , c_v+0
 .byte   W07
 .byte   MOD 7
 .byte   W01
 .byte   N48 ,En3
 .byte   N48 ,En4
 .byte   W12
@  #04 @051   ----------------------------------------
 .byte   W32
 .byte   W01
 .byte   BEND , c_v-11
 .byte   W01
 .byte   BEND , c_v-38
 .byte   W01
 .byte   BEND , c_v-59
 .byte   W23
 .byte   MOD 0
 .byte   BEND , c_v+0
 .byte   W02
 .byte   N12 ,En3
 .byte   N12 ,En4
 .byte   W12
 .byte   Fs3
 .byte   N12 ,Fs4
 .byte   W12
 .byte   Gs3
 .byte   N12 ,Gs4
 .byte   W12
@  #04 @052   ----------------------------------------
Label_011602E8:
 .byte   N12 ,An3 ,v127
 .byte   N12 ,An4
 .byte   W12
 .byte   BEND , c_v+41
 .byte   N24 ,Gs3
 .byte   N24 ,Gs4
 .byte   W01
 .byte   BEND , c_v+32
 .byte   W01
 .byte   BEND , c_v+23
 .byte   W01
 .byte   BEND , c_v+14
 .byte   W01
 .byte   BEND , c_v+5
 .byte   W01
 .byte   BEND , c_v+0
 .byte   W19
 .byte   N12 ,Fs3
 .byte   N12 ,Fs4
 .byte   W12
 .byte   En3
 .byte   N12 ,En4
 .byte   W12
 .byte   N24 ,Ds3
 .byte   N24 ,Ds4
 .byte   W24
 .byte   N12 ,Ds3
 .byte   N24 ,Ds4
 .byte   W12
 .byte   PEND 
@  #04 @053   ----------------------------------------
Label_01160314:
 .byte   W12
 .byte   N06 ,En3 ,v127
 .byte   N06 ,En4
 .byte   W06
 .byte   Ds3
 .byte   N06 ,Ds4
 .byte   W06
 .byte   N54 ,Cs3
 .byte   N54 ,Cs4
 .byte   W44
 .byte   W03
 .byte   BEND , c_v+0
 .byte   W01
 .byte   BEND , c_v-8
 .byte   W01
 .byte   BEND , c_v-17
 .byte   W01
 .byte   BEND , c_v-26
 .byte   W01
 .byte   BEND , c_v-35
 .byte   W01
 .byte   BEND , c_v-39
 .byte   W01
 .byte   BEND , c_v-48
 .byte   W01
 .byte   BEND , c_v-57
 .byte   W01
 .byte   BEND , c_v-62
 .byte   W16
 .byte   BEND , c_v+0
 .byte   W01
 .byte   PEND 
@  #04 @054   ----------------------------------------
 .byte   W96
@  #04 @055   ----------------------------------------
 .byte   W96
@  #04 @056   ----------------------------------------
 .byte   W96
@  #04 @057   ----------------------------------------
 .byte   W96
@  #04 @058   ----------------------------------------
 .byte   W96
@  #04 @059   ----------------------------------------
 .byte   W96
@  #04 @060   ----------------------------------------
 .byte   W96
@  #04 @061   ----------------------------------------
 .byte   W96
@  #04 @062   ----------------------------------------
 .byte   PATT
  .word Label_0115FF04
@  #04 @063   ----------------------------------------
 .byte   W66
 .byte   EOT
 .byte   Cs2 ,v059
 .byte   BEND , c_v-33
 .byte   N01 ,Cs2 ,v127
 .byte   N04 ,Dn2
 .byte   N04 ,Dn3
 .byte   W01
 .byte   BEND , c_v+0
 .byte   W05
 .byte   N18 ,Dn2
 .byte   N18 ,Dn3
 .byte   W24
@  #04 @064   ----------------------------------------
 .byte   W24
 .byte   GOTO
  .word Label_0115FF22
@  #04 @065   ----------------------------------------
 .byte   TIE ,Bn1 ,v127
 .byte   TIE ,Bn2
 .byte   W72
 .byte   W66
@  #04 @066   ----------------------------------------
 .byte   EOT
 .byte   Bn1 ,v059
 .byte   BEND , c_v-33
 .byte   N01 ,Bn1
 .byte   N04 ,Dn2
 .byte   N04 ,Dn3
 .byte   W01
 .byte   BEND , c_v+0
 .byte   W05
 .byte   N18 ,Dn2
 .byte   N18 ,Dn3
 .byte   W24
@  #04 @067   ----------------------------------------
 .byte   PATT
  .word Label_0115FF04
@  #04 @068   ----------------------------------------
 .byte   W66
 .byte   EOT
 .byte   Cs2 ,v059
 .byte   BEND , c_v-33
 .byte   N01 ,Cs2 ,v127
 .byte   N04 ,Dn2
 .byte   N04 ,Dn3
 .byte   W01
 .byte   BEND , c_v+0
 .byte   W05
 .byte   N18 ,Dn2
 .byte   N18 ,Dn3
 .byte   W24
@  #04 @069   ----------------------------------------
 .byte   PATT
  .word Label_0115FF59
@  #04 @070   ----------------------------------------
 .byte   W66
 .byte   EOT
 .byte   Bn1 ,v059
 .byte   BEND , c_v-33
 .byte   N01 ,Bn1 ,v127
 .byte   N04 ,Dn2
 .byte   N04 ,Dn3
 .byte   W01
 .byte   BEND , c_v+0
 .byte   W05
 .byte   N18 ,Dn2
 .byte   N18 ,Dn3
 .byte   W24
@  #04 @071   ----------------------------------------
 .byte   PATT
  .word Label_0115FF76
@  #04 @072   ----------------------------------------
 .byte   W96
@  #04 @073   ----------------------------------------
 .byte   EOT
 .byte   Bn2
@  #04 @074   ----------------------------------------
 .byte   PATT
  .word Label_0115FF86
@  #04 @075   ----------------------------------------
 .byte   W96
@  #04 @076   ----------------------------------------
 .byte   EOT
 .byte   Bn2
@  #04 @077   ----------------------------------------
 .byte   PATT
  .word Label_0115FF86
@  #04 @078   ----------------------------------------
 .byte   W96
@  #04 @079   ----------------------------------------
 .byte   EOT
 .byte   Bn2
@  #04 @080   ----------------------------------------
 .byte   PATT
  .word Label_0115FF86
@  #04 @081   ----------------------------------------
 .byte   PATT
  .word Label_0115FF94
@  #04 @082   ----------------------------------------
 .byte   EOT
 .byte   Bn2
 .byte   BEND , c_v+46
 .byte   N06 ,En2 ,v127
 .byte   N01 ,Bn2
 .byte   N06 ,En3
 .byte   W01
 .byte   BEND , c_v+28
 .byte   W01
 .byte   BEND , c_v+10
 .byte   W01
 .byte   BEND , c_v+0
 .byte   W03
 .byte   N06
 .byte   N06 ,En4
 .byte   W06
 .byte   Cs3
 .byte   N06 ,Cs4
 .byte   W06
@  #04 @083   ----------------------------------------
 .byte   PATT
  .word Label_0115FFB5
@  #04 @084   ----------------------------------------
 .byte   PATT
  .word Label_0115FFCB
@  #04 @085   ----------------------------------------
 .byte   PATT
  .word Label_0115FFE5
@  #04 @086   ----------------------------------------
 .byte   PATT
  .word Label_0115FFFB
@  #04 @087   ----------------------------------------
 .byte   PATT
  .word Label_01160028
@  #04 @088   ----------------------------------------
 .byte   PATT
  .word Label_01160043
@  #04 @089   ----------------------------------------
 .byte   PATT
  .word Label_0116005E
@  #04 @090   ----------------------------------------
 .byte   PATT
  .word Label_01160078
@  #04 @091   ----------------------------------------
 .byte   PATT
  .word Label_011600A1
@  #04 @092   ----------------------------------------
 .byte   PATT
  .word Label_0115FFCB
@  #04 @093   ----------------------------------------
 .byte   PATT
  .word Label_011600BB
@  #04 @094   ----------------------------------------
 .byte   PATT
  .word Label_011600D6
@  #04 @095   ----------------------------------------
 .byte   PATT
  .word Label_011600F5
@  #04 @096   ----------------------------------------
 .byte   PATT
  .word Label_0116010F
@  #04 @097   ----------------------------------------
 .byte   PATT
  .word Label_01160125
@  #04 @098   ----------------------------------------
 .byte   PATT
  .word Label_0116013C
@  #04 @099   ----------------------------------------
 .byte   PATT
  .word Label_0116015A
@  #04 @100   ----------------------------------------
 .byte   W96
@  #04 @101   ----------------------------------------
 .byte   W96
@  #04 @102   ----------------------------------------
 .byte   W48
 .byte   EOT
 .byte   Cs2 ,v056
 .byte   Ds3
 .byte   N12 ,Bn1 ,v127
 .byte   N12 ,Cs2
 .byte   N12 ,Bn2
 .byte   N12 ,Ds3
 .byte   W12
 .byte   N06 ,Cs2
 .byte   N06 ,Cs3
 .byte   W12
 .byte   N12 ,Cs2
 .byte   N12 ,Cs3
 .byte   W12
 .byte   N06 ,Cs1
 .byte   N06 ,Cs2
 .byte   W06
 .byte   Bn0
 .byte   N06 ,Bn1
 .byte   W06
@  #04 @103   ----------------------------------------
 .byte   PATT
  .word Label_01160187
@  #04 @104   ----------------------------------------
 .byte   PATT
  .word Label_011601B5
@  #04 @105   ----------------------------------------
 .byte   N08 ,An3 ,v127
 .byte   N08 ,An4
 .byte   W08
 .byte   N03 ,An3
 .byte   N03 ,An4
 .byte   W03
 .byte   N24 ,Gs3
 .byte   N24 ,Gs4
 .byte   W24
 .byte   W01
 .byte   N12 ,Fs3
 .byte   N12 ,Fs4
 .byte   W12
 .byte   En3
 .byte   N12 ,En4
 .byte   W12
 .byte   N24 ,Ds3
 .byte   N24 ,Ds4
 .byte   W24
 .byte   TIE ,Gs3
 .byte   TIE ,Gs4
 .byte   W04
 .byte   BEND , c_v-4
 .byte   W01
 .byte   BEND , c_v-15
 .byte   W01
 .byte   BEND , c_v-26
 .byte   W01
 .byte   BEND , c_v-37
 .byte   W01
 .byte   MOD 0
 .byte   BEND , c_v-42
 .byte   W01
 .byte   MOD 0
 .byte   BEND , c_v-53
 .byte   W01
 .byte   MOD 1
 .byte   BEND , c_v-53
 .byte   W01
 .byte   MOD 1
 .byte   BEND , c_v-40
 .byte   W01
@  #04 @106   ----------------------------------------
 .byte   PATT
  .word Label_01160212
@  #04 @107   ----------------------------------------
 .byte   N12 ,Bn3 ,v127
 .byte   N12 ,Bn4
 .byte   W12
 .byte   N24 ,En3
 .byte   N24 ,En4
 .byte   W24
 .byte   N12 ,En3
 .byte   N12 ,En4
 .byte   W12
 .byte   Ds3
 .byte   N12 ,Ds4
 .byte   W12
 .byte   En3
 .byte   N12 ,En4
 .byte   W12
 .byte   BEND , c_v-57
 .byte   N12 ,Fs3
 .byte   N12 ,Fs4
 .byte   W01
 .byte   BEND , c_v-49
 .byte   W01
 .byte   BEND , c_v-33
 .byte   W01
 .byte   BEND , c_v-17
 .byte   W01
 .byte   BEND , c_v+0
 .byte   W07
 .byte   MOD 7
 .byte   W01
 .byte   N12 ,En3
 .byte   N12 ,En4
 .byte   W12
@  #04 @108   ----------------------------------------
 .byte   W32
 .byte   W01
 .byte   BEND , c_v-11
 .byte   W01
 .byte   BEND , c_v-38
 .byte   W01
 .byte   BEND , c_v-59
 .byte   W23
 .byte   MOD 0
 .byte   BEND , c_v+0
 .byte   W02
 .byte   N12 ,En3
 .byte   N12 ,En4
 .byte   W12
 .byte   Fs3
 .byte   N12 ,Fs4
 .byte   W12
 .byte   EOT
 .byte   Gs3 ,v080
 .byte   N12 ,Gs3 ,v080
 .byte   N12 ,Gs4
 .byte   W12
@  #04 @109   ----------------------------------------
 .byte   PATT
  .word Label_011602E8
@  #04 @110   ----------------------------------------
 .byte   PATT
  .word Label_01160314
 .byte   FINE

@**************** Track 5 (Midi-Chn.4) ****************@

song07_005:
@  #05 @000   ----------------------------------------
 .byte   KEYSH , song07_key+0
 .byte   VOICE , 20
 .byte   MODT 0
 .byte   LFOS 44
 .byte   MODT 0
 .byte   LFOS 44
 .byte   MODT 0
 .byte   LFOS 44
 .byte   VOL , 66*song07_mvl/mxv
 .byte   PAN , c_v+0
 .byte   VOL , 66*song07_mvl/mxv
 .byte   BEND , c_v+0
 .byte   W96
@  #05 @001   ----------------------------------------
 .byte   W96
@  #05 @002   ----------------------------------------
 .byte   W96
@  #05 @003   ----------------------------------------
 .byte   W96
@  #05 @004   ----------------------------------------
 .byte   W96
@  #05 @005   ----------------------------------------
 .byte   W96
@  #05 @006   ----------------------------------------
 .byte   W96
@  #05 @007   ----------------------------------------
 .byte   W96
@  #05 @008   ----------------------------------------
 .byte   W96
@  #05 @009   ----------------------------------------
 .byte   W96
@  #05 @010   ----------------------------------------
 .byte   W24
Label_0115F56B:
 .byte   W72
@  #05 @011   ----------------------------------------
 .byte   W96
@  #05 @012   ----------------------------------------
 .byte   W96
@  #05 @013   ----------------------------------------
 .byte   W96
@  #05 @014   ----------------------------------------
 .byte   W96
@  #05 @015   ----------------------------------------
 .byte   W96
@  #05 @016   ----------------------------------------
 .byte   W96
@  #05 @017   ----------------------------------------
 .byte   W96
@  #05 @018   ----------------------------------------
 .byte   W96
@  #05 @019   ----------------------------------------
 .byte   W96
@  #05 @020   ----------------------------------------
 .byte   W96
@  #05 @021   ----------------------------------------
 .byte   W96
@  #05 @022   ----------------------------------------
 .byte   W96
@  #05 @023   ----------------------------------------
 .byte   W96
@  #05 @024   ----------------------------------------
 .byte   W96
@  #05 @025   ----------------------------------------
 .byte   W96
@  #05 @026   ----------------------------------------
 .byte   W96
@  #05 @027   ----------------------------------------
 .byte   W96
@  #05 @028   ----------------------------------------
 .byte   W96
@  #05 @029   ----------------------------------------
 .byte   W96
@  #05 @030   ----------------------------------------
 .byte   W96
@  #05 @031   ----------------------------------------
 .byte   W96
@  #05 @032   ----------------------------------------
 .byte   W96
@  #05 @033   ----------------------------------------
Label_0115F582:
 .byte   W44
 .byte   W03
 .byte   BEND , c_v-64
 .byte   W01
 .byte   BEND , c_v-56
 .byte   N05 ,Cs3 ,v076
 .byte   N05 ,Fs3
 .byte   W01
 .byte   BEND , c_v-40
 .byte   W01
 .byte   BEND , c_v-24
 .byte   W01
 .byte   BEND , c_v-16
 .byte   W01
 .byte   BEND , c_v+0
 .byte   W02
 .byte   N05 ,En3 ,v020
 .byte   N05 ,Gs3
 .byte   W06
 .byte   En3 ,v004
 .byte   N05 ,Gs3
 .byte   W06
 .byte   N10 ,En3 ,v032
 .byte   N10 ,Gs3
 .byte   W30
 .byte   PEND 
@  #05 @034   ----------------------------------------
 .byte   W96
@  #05 @035   ----------------------------------------
Label_0115F5AA:
 .byte   W44
 .byte   W03
 .byte   BEND , c_v-64
 .byte   W01
 .byte   BEND , c_v-56
 .byte   N05 ,Cs3 ,v076
 .byte   N05 ,Fs3
 .byte   W01
 .byte   BEND , c_v-40
 .byte   W01
 .byte   BEND , c_v-24
 .byte   W01
 .byte   BEND , c_v-16
 .byte   W01
 .byte   BEND , c_v+0
 .byte   W02
 .byte   N05 ,En3 ,v020
 .byte   N05 ,Gs3
 .byte   W06
 .byte   En3 ,v004
 .byte   N05 ,Gs3
 .byte   W06
 .byte   En3 ,v032
 .byte   N05 ,Gs3
 .byte   W06
 .byte   N10 ,En3 ,v020
 .byte   N10 ,Gs3
 .byte   W12
 .byte   Gs3 ,v016
 .byte   N10 ,Cs4
 .byte   W12
 .byte   PEND 
@  #05 @036   ----------------------------------------
 .byte   W96
@  #05 @037   ----------------------------------------
 .byte   PATT
  .word Label_0115F582
@  #05 @038   ----------------------------------------
 .byte   W96
@  #05 @039   ----------------------------------------
 .byte   W96
@  #05 @040   ----------------------------------------
 .byte   W96
@  #05 @041   ----------------------------------------
 .byte   W96
@  #05 @042   ----------------------------------------
 .byte   W96
@  #05 @043   ----------------------------------------
 .byte   W96
@  #05 @044   ----------------------------------------
 .byte   W96
@  #05 @045   ----------------------------------------
 .byte   W96
@  #05 @046   ----------------------------------------
 .byte   W96
@  #05 @047   ----------------------------------------
 .byte   W96
@  #05 @048   ----------------------------------------
 .byte   W96
@  #05 @049   ----------------------------------------
 .byte   W96
@  #05 @050   ----------------------------------------
 .byte   W96
@  #05 @051   ----------------------------------------
 .byte   W96
@  #05 @052   ----------------------------------------
 .byte   W96
@  #05 @053   ----------------------------------------
 .byte   W96
@  #05 @054   ----------------------------------------
 .byte   W96
@  #05 @055   ----------------------------------------
 .byte   W96
@  #05 @056   ----------------------------------------
 .byte   W96
@  #05 @057   ----------------------------------------
 .byte   W96
@  #05 @058   ----------------------------------------
 .byte   W96
@  #05 @059   ----------------------------------------
 .byte   W96
@  #05 @060   ----------------------------------------
 .byte   W96
@  #05 @061   ----------------------------------------
 .byte   W96
@  #05 @062   ----------------------------------------
 .byte   W24
 .byte   GOTO
  .word Label_0115F56B
@  #05 @063   ----------------------------------------
 .byte   W72
 .byte   W96
@  #05 @064   ----------------------------------------
 .byte   W96
@  #05 @065   ----------------------------------------
 .byte   W96
@  #05 @066   ----------------------------------------
 .byte   W96
@  #05 @067   ----------------------------------------
 .byte   W96
@  #05 @068   ----------------------------------------
 .byte   W96
@  #05 @069   ----------------------------------------
 .byte   W96
@  #05 @070   ----------------------------------------
 .byte   W96
@  #05 @071   ----------------------------------------
 .byte   W96
@  #05 @072   ----------------------------------------
 .byte   W96
@  #05 @073   ----------------------------------------
 .byte   W96
@  #05 @074   ----------------------------------------
 .byte   W96
@  #05 @075   ----------------------------------------
 .byte   W96
@  #05 @076   ----------------------------------------
 .byte   W96
@  #05 @077   ----------------------------------------
 .byte   W96
@  #05 @078   ----------------------------------------
 .byte   W96
@  #05 @079   ----------------------------------------
 .byte   W96
@  #05 @080   ----------------------------------------
 .byte   W96
@  #05 @081   ----------------------------------------
 .byte   W96
@  #05 @082   ----------------------------------------
 .byte   W96
@  #05 @083   ----------------------------------------
 .byte   W96
@  #05 @084   ----------------------------------------
 .byte   W96
@  #05 @085   ----------------------------------------
 .byte   PATT
  .word Label_0115F582
@  #05 @086   ----------------------------------------
 .byte   W96
@  #05 @087   ----------------------------------------
 .byte   PATT
  .word Label_0115F5AA
@  #05 @088   ----------------------------------------
 .byte   W96
@  #05 @089   ----------------------------------------
 .byte   PATT
  .word Label_0115F582
@  #05 @090   ----------------------------------------
 .byte   W96
@  #05 @091   ----------------------------------------
 .byte   W96
@  #05 @092   ----------------------------------------
 .byte   W96
@  #05 @093   ----------------------------------------
 .byte   W96
@  #05 @094   ----------------------------------------
 .byte   W96
@  #05 @095   ----------------------------------------
 .byte   W96
@  #05 @096   ----------------------------------------
 .byte   W96
@  #05 @097   ----------------------------------------
 .byte   W96
@  #05 @098   ----------------------------------------
 .byte   W96
@  #05 @099   ----------------------------------------
 .byte   W96
@  #05 @100   ----------------------------------------
 .byte   W96
@  #05 @101   ----------------------------------------
 .byte   W96
@  #05 @102   ----------------------------------------
 .byte   W96
@  #05 @103   ----------------------------------------
 .byte   W96
 .byte   FINE

@**************** Track 6 (Midi-Chn.5) ****************@

song07_006:
@  #06 @000   ----------------------------------------
 .byte   KEYSH , song07_key+0
 .byte   VOICE , 49
 .byte   MODT 0
 .byte   LFOS 44
 .byte   MODT 0
 .byte   LFOS 44
 .byte   MODT 0
 .byte   LFOS 44
 .byte   VOL , 66*song07_mvl/mxv
 .byte   PAN , c_v+0
 .byte   VOL , 66*song07_mvl/mxv
 .byte   BEND , c_v+0
 .byte   W96
@  #06 @001   ----------------------------------------
 .byte   W96
@  #06 @002   ----------------------------------------
 .byte   W96
@  #06 @003   ----------------------------------------
 .byte   W96
@  #06 @004   ----------------------------------------
 .byte   W96
@  #06 @005   ----------------------------------------
 .byte   W96
@  #06 @006   ----------------------------------------
 .byte   W96
@  #06 @007   ----------------------------------------
 .byte   W96
@  #06 @008   ----------------------------------------
Label_01161B20:
 .byte   BEND , c_v-52
 .byte   N06 ,Cs1 ,v036
 .byte   N06 ,Cs2
 .byte   W01
 .byte   BEND , c_v-39
 .byte   W01
 .byte   BEND , c_v-13
 .byte   W01
 .byte   BEND , c_v+0
 .byte   W08
 .byte   BEND , c_v-63
 .byte   W01
 .byte   BEND , c_v-45
 .byte   N06 ,Cs1 ,v028
 .byte   N06 ,Cs2
 .byte   W01
 .byte   BEND , c_v-36
 .byte   W01
 .byte   BEND , c_v-18
 .byte   W01
 .byte   BEND , c_v+0
 .byte   W09
 .byte   N36 ,Cs1
 .byte   N36 ,Cs2
 .byte   W36
 .byte   N12 ,Gs1
 .byte   N12 ,Gs2
 .byte   W12
 .byte   N06 ,Cs1
 .byte   N06 ,Cs2
 .byte   W06
 .byte   Gs1
 .byte   N06 ,Gs2
 .byte   W18
 .byte   PEND 
@  #06 @009   ----------------------------------------
Label_01161B53:
 .byte   N24 ,Gs1 ,v028
 .byte   N24 ,Gs2
 .byte   W24
 .byte   N12 ,Cs1
 .byte   N12 ,Cs2
 .byte   W12
 .byte   Gs1
 .byte   N12 ,Gs2
 .byte   W12
 .byte   Gs1
 .byte   N12 ,Gs2
 .byte   W12
 .byte   N06 ,Cs1
 .byte   N06 ,Cs2
 .byte   W12
 .byte   N24 ,Dn1
 .byte   N24 ,Dn2
 .byte   W24
 .byte   PEND 
@  #06 @010   ----------------------------------------
Label_01161B71:
 .byte   BEND , c_v-52
 .byte   N06 ,Cs1 ,v036
 .byte   N06 ,Cs2
 .byte   W01
 .byte   BEND , c_v-39
 .byte   W01
 .byte   BEND , c_v-13
 .byte   W01
 .byte   BEND , c_v+0
 .byte   W08
 .byte   BEND , c_v-63
 .byte   W01
 .byte   BEND , c_v-45
 .byte   N06 ,Cs1 ,v028
 .byte   N06 ,Cs2
 .byte   W01
 .byte   BEND , c_v-36
 .byte   W01
 .byte   BEND , c_v-18
 .byte   W01
 .byte   BEND , c_v+0
 .byte   W09
 .byte   PEND 
Label_01161B91:
 .byte   N36 ,Cs1 ,v028
 .byte   N36 ,Cs2
 .byte   W36
 .byte   N12 ,Gs1
 .byte   N12 ,Gs2
 .byte   W12
 .byte   N06 ,Cs1
 .byte   N06 ,Cs2
 .byte   W06
 .byte   Gs1
 .byte   N06 ,Gs2
 .byte   W18
@  #06 @011   ----------------------------------------
 .byte   PATT
  .word Label_01161B53
@  #06 @012   ----------------------------------------
 .byte   PATT
  .word Label_01161B20
@  #06 @013   ----------------------------------------
 .byte   PATT
  .word Label_01161B53
@  #06 @014   ----------------------------------------
 .byte   PATT
  .word Label_01161B20
@  #06 @015   ----------------------------------------
 .byte   PATT
  .word Label_01161B53
@  #06 @016   ----------------------------------------
Label_01161BBE:
 .byte   BEND , c_v-52
 .byte   N06 ,Cs1 ,v084
 .byte   N06 ,Cs2
 .byte   W01
 .byte   BEND , c_v-39
 .byte   W01
 .byte   BEND , c_v-13
 .byte   W01
 .byte   BEND , c_v+0
 .byte   W08
 .byte   BEND , c_v-63
 .byte   W01
 .byte   BEND , c_v-45
 .byte   N06 ,Cs1 ,v052
 .byte   N06 ,Cs2
 .byte   W01
 .byte   BEND , c_v-36
 .byte   W01
 .byte   BEND , c_v-18
 .byte   W01
 .byte   BEND , c_v+0
 .byte   W09
 .byte   N12 ,Cs1
 .byte   N12 ,Cs2
 .byte   W12
 .byte   N06 ,Gs0
 .byte   N06 ,Gs1
 .byte   W06
 .byte   N12 ,Cs1
 .byte   N12 ,Cs2
 .byte   W30
 .byte   Bn0
 .byte   N12 ,Bn1
 .byte   W12
 .byte   N06 ,Cs1
 .byte   N06 ,Cs2
 .byte   W12
 .byte   PEND 
@  #06 @017   ----------------------------------------
Label_01161BF6:
 .byte   N12 ,Gs1 ,v052
 .byte   N12 ,Gs2
 .byte   W12
 .byte   N06 ,Cs1
 .byte   N06 ,Cs2
 .byte   W06
 .byte   Gs1
 .byte   N06 ,Gs2
 .byte   W30
 .byte   N12 ,Bn0
 .byte   N12 ,Bn1
 .byte   W12
 .byte   N06 ,Cs1
 .byte   N06 ,Cs2
 .byte   W12
 .byte   N12 ,Gs1
 .byte   N12 ,Gs2
 .byte   W24
 .byte   PEND 
@  #06 @018   ----------------------------------------
Label_01161C15:
 .byte   BEND , c_v-52
 .byte   N06 ,Cs1 ,v084
 .byte   N06 ,Cs2
 .byte   W01
 .byte   BEND , c_v-39
 .byte   W01
 .byte   BEND , c_v-13
 .byte   W01
 .byte   BEND , c_v+0
 .byte   W08
 .byte   BEND , c_v-63
 .byte   W01
 .byte   BEND , c_v-45
 .byte   N06 ,Cs1 ,v052
 .byte   N06 ,Cs2
 .byte   W01
 .byte   BEND , c_v-36
 .byte   W01
 .byte   BEND , c_v-18
 .byte   W01
 .byte   BEND , c_v+0
 .byte   W09
 .byte   N12 ,Cs1
 .byte   N12 ,Cs2
 .byte   W12
 .byte   N06 ,Gs0
 .byte   N06 ,Cs1
 .byte   W06
 .byte   N12
 .byte   N12 ,Cs2
 .byte   W30
 .byte   Bn0
 .byte   N12 ,Bn1
 .byte   W12
 .byte   N06 ,Cs1
 .byte   N06 ,Cs2
 .byte   W12
 .byte   PEND 
@  #06 @019   ----------------------------------------
 .byte   PATT
  .word Label_01161BF6
@  #06 @020   ----------------------------------------
 .byte   PATT
  .word Label_01161C15
@  #06 @021   ----------------------------------------
 .byte   PATT
  .word Label_01161BF6
@  #06 @022   ----------------------------------------
 .byte   PATT
  .word Label_01161C15
@  #06 @023   ----------------------------------------
Label_01161C60:
 .byte   N12 ,Gs1 ,v052
 .byte   N12 ,Gs2
 .byte   W12
 .byte   N06 ,Cs1
 .byte   N06 ,Cs2
 .byte   W06
 .byte   Gs1
 .byte   N06 ,Gs2
 .byte   W30
 .byte   N12 ,Bn0
 .byte   N12 ,Bn1
 .byte   W12
 .byte   N06 ,Cs1
 .byte   W12
 .byte   N12 ,Gs1
 .byte   N12 ,Gs2
 .byte   W24
 .byte   PEND 
@  #06 @024   ----------------------------------------
Label_01161C7D:
 .byte   N12 ,Bn1 ,v020
 .byte   N12 ,Bn2
 .byte   W12
 .byte   N10 ,Cs2
 .byte   N10 ,Cs3
 .byte   W12
 .byte   Cs2
 .byte   N10 ,Cs3
 .byte   W12
 .byte   N06 ,Cs2
 .byte   N06 ,Cs3
 .byte   W06
 .byte   N04 ,Bn1
 .byte   N04 ,Bn2
 .byte   W06
 .byte   N06 ,Bn1
 .byte   N06 ,Bn2
 .byte   W06
 .byte   N04 ,Cs2
 .byte   N04 ,Cs3
 .byte   W06
 .byte   N10 ,Cs2
 .byte   N10 ,Cs3
 .byte   W12
 .byte   Cs2
 .byte   N10 ,Cs3
 .byte   W12
 .byte   N06 ,Cs2
 .byte   N06 ,Cs3
 .byte   W06
 .byte   N04 ,Bn1
 .byte   N04 ,Bn2
 .byte   W06
 .byte   PEND 
@  #06 @025   ----------------------------------------
Label_01161CB4:
 .byte   N04 ,Cs2 ,v020
 .byte   N04 ,Cs3
 .byte   W06
 .byte   N18 ,As1
 .byte   N18 ,As2
 .byte   W18
 .byte   N12 ,Cs2
 .byte   N12 ,Cs3
 .byte   W12
 .byte   N04 ,Cs2
 .byte   N04 ,Cs3
 .byte   W06
 .byte   Cs2
 .byte   N04 ,Cs3
 .byte   W06
 .byte   Bn1
 .byte   N04 ,Bn2
 .byte   W06
 .byte   Cs2
 .byte   N04 ,Cs3
 .byte   W06
 .byte   Cs2
 .byte   N04 ,Cs3
 .byte   W06
 .byte   N18 ,Cs2
 .byte   N18 ,Cs3
 .byte   W18
 .byte   N06 ,Cs2
 .byte   N06 ,Cs3
 .byte   W06
 .byte   Bn1
 .byte   N06 ,Bn2
 .byte   W06
 .byte   PEND 
@  #06 @026   ----------------------------------------
 .byte   PATT
  .word Label_01161C7D
@  #06 @027   ----------------------------------------
Label_01161CED:
 .byte   N06 ,Fs1 ,v020
 .byte   N06 ,Fs2
 .byte   W06
 .byte   N04 ,Gs1
 .byte   N04 ,Gs2
 .byte   W06
 .byte   N10 ,Gs1
 .byte   N10 ,Gs2
 .byte   W12
 .byte   N06 ,Gs1 ,v036
 .byte   N06 ,Gs2
 .byte   W06
 .byte   N04 ,Bn1 ,v016
 .byte   N04 ,Bn2
 .byte   W06
 .byte   Bn1
 .byte   N04 ,Bn2
 .byte   W06
 .byte   Bn1 ,v012
 .byte   N04 ,Bn2
 .byte   W06
 .byte   Bn1 ,v048
 .byte   N04 ,Bn2
 .byte   W06
 .byte   Cs2 ,v020
 .byte   N04 ,Cs3
 .byte   W06
 .byte   Cs2 ,v032
 .byte   N04 ,Cs3
 .byte   W06
 .byte   N12 ,Cs2 ,v028
 .byte   N12 ,Cs3
 .byte   W12
 .byte   N18 ,Bn1 ,v020
 .byte   N18 ,Bn2
 .byte   W18
 .byte   PEND 
@  #06 @028   ----------------------------------------
Label_01161D2E:
 .byte   N18 ,Fs1 ,v044
 .byte   N18 ,Fs2
 .byte   W24
 .byte   N10 ,Fs1 ,v060
 .byte   N18 ,Fs2
 .byte   W10
 .byte   BEND , c_v+8
 .byte   W01
 .byte   BEND , c_v+26
 .byte   W01
 .byte   BEND , c_v+35
 .byte   W01
 .byte   BEND , c_v+53
 .byte   W01
 .byte   BEND , c_v+62
 .byte   W01
 .byte   BEND , c_v+28
 .byte   W01
 .byte   BEND , c_v+10
 .byte   W01
 .byte   BEND , c_v-25
 .byte   W01
 .byte   BEND , c_v-60
 .byte   W01
 .byte   BEND , c_v-48
 .byte   W01
 .byte   BEND , c_v-24
 .byte   W01
 .byte   BEND , c_v-12
 .byte   W01
 .byte   BEND , c_v+0
 .byte   W02
 .byte   N18 ,Gs1 ,v020
 .byte   N18 ,Gs2
 .byte   W24
 .byte   Bn1
 .byte   N18 ,Bn2
 .byte   W24
 .byte   PEND 
@  #06 @029   ----------------------------------------
Label_01161D60:
 .byte   N06 ,Bn1 ,v020
 .byte   N06 ,Bn2
 .byte   W06
 .byte   N04 ,Cs2
 .byte   N04 ,Cs3
 .byte   W06
 .byte   N10 ,Cs2
 .byte   N10 ,Cs3
 .byte   W09
 .byte   BEND , c_v-8
 .byte   W01
 .byte   BEND , c_v-25
 .byte   W01
 .byte   BEND , c_v-33
 .byte   W01
 .byte   BEND , c_v-50
 .byte   N14 ,Cs2
 .byte   N14 ,Cs3
 .byte   W01
 .byte   BEND , c_v-38
 .byte   W01
 .byte   BEND , c_v-13
 .byte   W01
 .byte   BEND , c_v+0
 .byte   W15
 .byte   N04 ,Bn1
 .byte   N04 ,Bn2
 .byte   W06
 .byte   N19 ,Cs2
 .byte   N19 ,Cs3
 .byte   W24
 .byte   N09 ,Cs2
 .byte   N09 ,Cs3
 .byte   W09
 .byte   BEND , c_v+14
 .byte   W01
 .byte   BEND , c_v+43
 .byte   W01
 .byte   BEND , c_v+58
 .byte   W01
 .byte   BEND , c_v+20
 .byte   N09 ,Bn1
 .byte   N09 ,Bn2
 .byte   W01
 .byte   BEND , c_v+0
 .byte   W01
 .byte   BEND , c_v-38
 .byte   W01
 .byte   BEND , c_v-58
 .byte   W01
 .byte   BEND , c_v-29
 .byte   W01
 .byte   BEND , c_v+0
 .byte   W07
 .byte   PEND 
@  #06 @030   ----------------------------------------
Label_01161DAC:
 .byte   N09 ,An1 ,v020
 .byte   N09 ,An2
 .byte   W12
 .byte   An1
 .byte   N09 ,An2
 .byte   W12
 .byte   N18 ,An1
 .byte   N18 ,An2
 .byte   W24
 .byte   N06 ,Gs1
 .byte   N06 ,Gs2
 .byte   W06
 .byte   N04 ,An1
 .byte   N04 ,An2
 .byte   W06
 .byte   N10 ,An1
 .byte   N10 ,An2
 .byte   W12
 .byte   An1
 .byte   N10 ,An2
 .byte   W12
 .byte   N06 ,An1
 .byte   N06 ,An2
 .byte   W06
 .byte   N04 ,Gs1
 .byte   N04 ,Gs2
 .byte   W06
 .byte   PEND 
@  #06 @031   ----------------------------------------
Label_01161DD9:
 .byte   N06 ,Fs1 ,v036
 .byte   N06 ,Fs2
 .byte   W06
 .byte   N04 ,Gs1 ,v020
 .byte   N04 ,Gs2
 .byte   W06
 .byte   N10 ,Gs1 ,v032
 .byte   N10 ,Gs2
 .byte   W12
 .byte   N21 ,Gs1
 .byte   N21 ,Gs2
 .byte   W23
 .byte   BEND , c_v+62
 .byte   W01
 .byte   BEND , c_v+57
 .byte   N21 ,Gs1 ,v044
 .byte   N21 ,Gs2
 .byte   W01
 .byte   BEND , c_v+53
 .byte   W01
 .byte   BEND , c_v+48
 .byte   W01
 .byte   BEND , c_v+43
 .byte   W01
 .byte   BEND , c_v+38
 .byte   W01
 .byte   BEND , c_v+34
 .byte   W01
 .byte   BEND , c_v+29
 .byte   W01
 .byte   BEND , c_v+24
 .byte   W01
 .byte   BEND , c_v+19
 .byte   W01
 .byte   BEND , c_v+15
 .byte   W01
 .byte   BEND , c_v+10
 .byte   W01
 .byte   BEND , c_v+5
 .byte   W01
 .byte   BEND , c_v+0
 .byte   W12
 .byte   N06 ,Gs1 ,v020
 .byte   N06 ,Gs2
 .byte   W06
 .byte   Fs1
 .byte   N06 ,Fs2
 .byte   W06
 .byte   Gs1
 .byte   N06 ,Gs2
 .byte   W06
 .byte   Cs2
 .byte   N06 ,Cs3
 .byte   W06
 .byte   PEND 
@  #06 @032   ----------------------------------------
 .byte   PATT
  .word Label_01161C7D
@  #06 @033   ----------------------------------------
 .byte   PATT
  .word Label_01161CB4
@  #06 @034   ----------------------------------------
 .byte   PATT
  .word Label_01161C7D
@  #06 @035   ----------------------------------------
Label_01161E35:
 .byte   N06 ,Fs1 ,v020
 .byte   N06 ,Fs2
 .byte   W06
 .byte   N04 ,Gs1
 .byte   N04 ,Gs2
 .byte   W06
 .byte   N10 ,Gs1
 .byte   N10 ,Gs2
 .byte   W12
 .byte   N06 ,Gs1
 .byte   N06 ,Gs2
 .byte   W06
 .byte   N04 ,Fs1
 .byte   N04 ,Fs2
 .byte   W06
 .byte   Fs1
 .byte   N04 ,Fs2
 .byte   W06
 .byte   Fs1
 .byte   N04 ,Fs2
 .byte   W06
 .byte   N18 ,Gs1 ,v036
 .byte   N18 ,Gs2
 .byte   W18
 .byte   N06 ,Cs2 ,v028
 .byte   N06 ,Cs3
 .byte   W12
 .byte   N18 ,Bn1 ,v020
 .byte   N18 ,Bn2
 .byte   W18
 .byte   PEND 
@  #06 @036   ----------------------------------------
Label_01161E6A:
 .byte   N12 ,En1 ,v020
 .byte   N12 ,En2
 .byte   W12
 .byte   N10 ,Fs1
 .byte   N10 ,Fs2
 .byte   W12
 .byte   Fs1
 .byte   N10 ,Fs2
 .byte   W12
 .byte   N06 ,Fs1
 .byte   N06 ,Fs2
 .byte   W06
 .byte   N04 ,En1
 .byte   N04 ,En2
 .byte   W06
 .byte   N06 ,Fs1
 .byte   N06 ,Fs2
 .byte   W06
 .byte   N04 ,Gs1
 .byte   N04 ,Gs2
 .byte   W06
 .byte   N10 ,Gs1
 .byte   N10 ,Gs2
 .byte   W12
 .byte   Gs1
 .byte   N10 ,Gs2
 .byte   W12
 .byte   N06 ,Gs1
 .byte   N06 ,Gs2
 .byte   W06
 .byte   N04 ,Fs1
 .byte   N04 ,Fs2
 .byte   W06
 .byte   PEND 
@  #06 @037   ----------------------------------------
Label_01161EA1:
 .byte   N06 ,Bn1 ,v020
 .byte   N06 ,Bn2
 .byte   W06
 .byte   N04 ,Cs2
 .byte   N04 ,Cs3
 .byte   W06
 .byte   N10 ,Cs2
 .byte   N10 ,Cs3
 .byte   W12
 .byte   Cs2
 .byte   N10 ,Cs3
 .byte   W12
 .byte   N06 ,Cs2
 .byte   N06 ,Cs3
 .byte   W06
 .byte   N04 ,Bn1
 .byte   N04 ,Bn2
 .byte   W06
 .byte   N06 ,Bn1
 .byte   N06 ,Bn2
 .byte   W06
 .byte   N04 ,Cs2
 .byte   N04 ,Cs3
 .byte   W06
 .byte   Cs2
 .byte   N04 ,Cs3
 .byte   W06
 .byte   Cs2
 .byte   N04 ,Cs3
 .byte   W06
 .byte   Cs2
 .byte   N04 ,Cs3
 .byte   W12
 .byte   Bn1
 .byte   N04 ,Bn2
 .byte   W12
 .byte   PEND 
@  #06 @038   ----------------------------------------
Label_01161EDA:
 .byte   N12 ,Gs1 ,v020
 .byte   N12 ,Gs2
 .byte   W12
 .byte   N10 ,An1
 .byte   N10 ,An2
 .byte   W12
 .byte   An1
 .byte   N10 ,An2
 .byte   W12
 .byte   N06 ,An1
 .byte   N06 ,An2
 .byte   W06
 .byte   N04 ,Gs1
 .byte   N04 ,Gs2
 .byte   W06
 .byte   N06 ,Gs1
 .byte   N06 ,Gs2
 .byte   W06
 .byte   N04 ,An1
 .byte   N04 ,An2
 .byte   W06
 .byte   N10 ,An1
 .byte   N10 ,An2
 .byte   W12
 .byte   An1
 .byte   N10 ,An2
 .byte   W12
 .byte   N06 ,An1
 .byte   N06 ,An2
 .byte   W06
 .byte   N04 ,Gs1
 .byte   N04 ,Gs2
 .byte   W06
 .byte   PEND 
@  #06 @039   ----------------------------------------
Label_01161F11:
 .byte   N06 ,En1 ,v020
 .byte   N06 ,En2
 .byte   W06
 .byte   N04 ,Fs1
 .byte   N04 ,Fs2
 .byte   W06
 .byte   N10 ,Fs1
 .byte   N10 ,Fs2
 .byte   W12
 .byte   Fs1
 .byte   N10 ,Fs2
 .byte   W12
 .byte   N06 ,Fs1
 .byte   N06 ,Fs2
 .byte   W06
 .byte   N04 ,En1
 .byte   N04 ,En2
 .byte   W06
 .byte   BEND , c_v+0
 .byte   N06 ,Fs1
 .byte   N06 ,Fs2
 .byte   W01
 .byte   BEND , c_v+31
 .byte   W01
 .byte   BEND , c_v+63
 .byte   W01
 .byte   BEND , c_v+54
 .byte   W01
 .byte   BEND , c_v+36
 .byte   W01
 .byte   BEND , c_v+27
 .byte   W01
 .byte   BEND , c_v+9
 .byte   N04 ,Gs1
 .byte   N04 ,Gs2
 .byte   W01
 .byte   BEND , c_v+0
 .byte   W05
 .byte   N04 ,Gs1
 .byte   N04 ,Gs2
 .byte   W06
 .byte   Gs1
 .byte   N04 ,Gs2
 .byte   W06
 .byte   Gs1
 .byte   N04 ,Gs2
 .byte   W06
 .byte   Fs1
 .byte   N04 ,Fs2
 .byte   W06
 .byte   Fs1
 .byte   N04 ,Fs2
 .byte   W06
 .byte   Fs1
 .byte   N04 ,Fs2
 .byte   W06
 .byte   PEND 
@  #06 @040   ----------------------------------------
Label_01161F64:
 .byte   TIE ,Cs1 ,v048
 .byte   TIE ,Gs1
 .byte   TIE ,Cs2
 .byte   W96
 .byte   PEND 
@  #06 @041   ----------------------------------------
 .byte   W96
@  #06 @042   ----------------------------------------
 .byte   W96
@  #06 @043   ----------------------------------------
 .byte   W24
 .byte   EOT
 .byte   Cs1 ,v044
 .byte   Cs2
 .byte   N12 ,Bn0 ,v084
 .byte   N12 ,Cs1 ,v008
 .byte   N12 ,Bn1 ,v084
 .byte   N12 ,Cs2 ,v008
 .byte   W12
 .byte   N06 ,Cs1 ,v068
 .byte   N06 ,Cs2 ,v028
 .byte   W12
 .byte   N11 ,Bn1 ,v112
 .byte   N11 ,Bn2
 .byte   W12
 .byte   N06 ,Cs2
 .byte   N06 ,Cs3
 .byte   W12
 .byte   N12 ,Cs2
 .byte   N12 ,Cs3
 .byte   W12
 .byte   N06 ,Cs1 ,v016
 .byte   N06 ,Cs2
 .byte   W06
 .byte   Bn0 ,v008
 .byte   N06 ,Bn1
 .byte   W06
@  #06 @044   ----------------------------------------
Label_01161FA3:
 .byte   N04 ,An0 ,v068
 .byte   N04 ,An1
 .byte   W12
 .byte   An0 ,v048
 .byte   N04 ,An1
 .byte   W12
 .byte   An0 ,v068
 .byte   N04 ,An1
 .byte   W12
 .byte   An0 ,v048
 .byte   N04 ,An1
 .byte   W06
 .byte   BEND , c_v+0
 .byte   W01
 .byte   BEND , c_v+4
 .byte   W01
 .byte   BEND , c_v+13
 .byte   N09 ,Gs0
 .byte   N09 ,Gs1
 .byte   W01
 .byte   BEND , c_v+18
 .byte   W01
 .byte   BEND , c_v+27
 .byte   W01
 .byte   BEND , c_v+31
 .byte   W01
 .byte   BEND , c_v+34
 .byte   W01
 .byte   BEND , c_v+17
 .byte   W01
 .byte   BEND , c_v+9
 .byte   W01
 .byte   BEND , c_v+0
 .byte   W09
 .byte   N04 ,Gs0
 .byte   N04 ,Gs1
 .byte   W12
 .byte   Gs0 ,v060
 .byte   N04 ,Gs1
 .byte   W12
 .byte   N12 ,Cs1 ,v048
 .byte   N12 ,Cs2
 .byte   W12
 .byte   PEND 
@  #06 @045   ----------------------------------------
Label_01161FE3:
 .byte   N12 ,Cs1 ,v048
 .byte   N12 ,Cs2
 .byte   W12
 .byte   N04 ,Cs1 ,v068
 .byte   N04 ,Cs2
 .byte   W12
 .byte   Cs1 ,v052
 .byte   N04 ,Cs2
 .byte   W12
 .byte   Cs1 ,v048
 .byte   N04 ,Cs2
 .byte   W12
 .byte   Cs1 ,v052
 .byte   N04 ,Cs2
 .byte   W12
 .byte   Cs1 ,v048
 .byte   N04 ,Cs2
 .byte   W12
 .byte   Cs1 ,v052
 .byte   N04 ,Cs2
 .byte   W12
 .byte   Cs1 ,v048
 .byte   N04 ,Cs2
 .byte   W05
 .byte   BEND , c_v+4
 .byte   W01
 .byte   BEND , c_v+9
 .byte   N09 ,Fs0
 .byte   N09 ,Fs1
 .byte   W01
 .byte   BEND , c_v+19
 .byte   W01
 .byte   BEND , c_v+23
 .byte   W01
 .byte   BEND , c_v+33
 .byte   W01
 .byte   BEND , c_v+38
 .byte   W01
 .byte   BEND , c_v+35
 .byte   W01
 .byte   PEND 
@  #06 @046   ----------------------------------------
Label_01162022:
 .byte   BEND , c_v+18
 .byte   W01
 .byte   BEND , c_v+9
 .byte   W01
 .byte   BEND , c_v+0
 .byte   W10
 .byte   N04 ,Fs0 ,v048
 .byte   N04 ,Fs1
 .byte   W12
 .byte   Fs0
 .byte   N04 ,Fs1
 .byte   W12
 .byte   Fs0
 .byte   N04 ,Fs1
 .byte   W12
 .byte   Gs0 ,v060
 .byte   N04 ,Gs1
 .byte   W12
 .byte   Gs0
 .byte   N04 ,Gs1
 .byte   W12
 .byte   Gs0
 .byte   N04 ,Gs1
 .byte   W12
 .byte   N12 ,Cs1 ,v048
 .byte   N12 ,Cs2
 .byte   W12
 .byte   PEND 
@  #06 @047   ----------------------------------------
Label_0116204B:
 .byte   N12 ,Cs1 ,v048
 .byte   N12 ,Cs2
 .byte   W12
 .byte   N06 ,Cs1 ,v068
 .byte   N06 ,Cs2
 .byte   W12
 .byte   N12 ,Cs1 ,v048
 .byte   N12 ,Cs2
 .byte   W12
 .byte   Bn0
 .byte   N12 ,Bn1
 .byte   W12
 .byte   Bn0
 .byte   N12 ,Bn1
 .byte   W12
 .byte   En1
 .byte   N12 ,En2
 .byte   W12
 .byte   N21 ,En1
 .byte   N21 ,En2
 .byte   W15
 .byte   BEND , c_v+0
 .byte   W01
 .byte   BEND , c_v+17
 .byte   W01
 .byte   BEND , c_v+34
 .byte   W01
 .byte   BEND , c_v+42
 .byte   W01
 .byte   BEND , c_v+60
 .byte   W01
 .byte   BEND , c_v+40
 .byte   W01
 .byte   BEND , c_v+0
 .byte   W03
 .byte   PEND 
@  #06 @048   ----------------------------------------
 .byte   PATT
  .word Label_01161FA3
@  #06 @049   ----------------------------------------
 .byte   PATT
  .word Label_01161FE3
@  #06 @050   ----------------------------------------
 .byte   PATT
  .word Label_01162022
@  #06 @051   ----------------------------------------
Label_0116208D:
 .byte   N12 ,Cs1 ,v048
 .byte   N12 ,Cs2
 .byte   W12
 .byte   N04 ,Cs1 ,v068
 .byte   N04 ,Cs2
 .byte   W12
 .byte   Cs1 ,v048
 .byte   N04 ,Cs2
 .byte   W12
 .byte   Cs1
 .byte   N04 ,Cs2
 .byte   W12
 .byte   Cs1
 .byte   N04 ,Cs2
 .byte   W12
 .byte   Cs1
 .byte   N04 ,Cs2
 .byte   W12
 .byte   Cs1
 .byte   N04 ,Cs2
 .byte   W12
 .byte   Cs1
 .byte   N04 ,Cs2
 .byte   W12
 .byte   PEND 
@  #06 @052   ----------------------------------------
 .byte   PATT
  .word Label_01161FA3
@  #06 @053   ----------------------------------------
 .byte   PATT
  .word Label_01161FE3
@  #06 @054   ----------------------------------------
 .byte   PATT
  .word Label_01162022
@  #06 @055   ----------------------------------------
 .byte   PATT
  .word Label_0116204B
@  #06 @056   ----------------------------------------
 .byte   PATT
  .word Label_01161FA3
@  #06 @057   ----------------------------------------
 .byte   PATT
  .word Label_01161FE3
@  #06 @058   ----------------------------------------
 .byte   PATT
  .word Label_01162022
@  #06 @059   ----------------------------------------
 .byte   PATT
  .word Label_0116208D
@  #06 @060   ----------------------------------------
 .byte   PATT
  .word Label_01161B20
@  #06 @061   ----------------------------------------
 .byte   PATT
  .word Label_01161B53
@  #06 @062   ----------------------------------------
 .byte   PATT
  .word Label_01161B71
@  #06 @063   ----------------------------------------
 .byte   GOTO
  .word Label_01161B91
@  #06 @064   ----------------------------------------
 .byte   N36 ,Cs1 ,v028
 .byte   N36 ,Cs2
 .byte   W36
 .byte   N12 ,Gs1
 .byte   N12 ,Gs2
 .byte   W12
 .byte   N06 ,Cs1
 .byte   N06 ,Cs2
 .byte   W06
 .byte   Gs1
 .byte   N06 ,Gs2
 .byte   W18
@  #06 @065   ----------------------------------------
 .byte   PATT
  .word Label_01161B53
@  #06 @066   ----------------------------------------
 .byte   PATT
  .word Label_01161B20
@  #06 @067   ----------------------------------------
 .byte   PATT
  .word Label_01161B53
@  #06 @068   ----------------------------------------
 .byte   PATT
  .word Label_01161B20
@  #06 @069   ----------------------------------------
 .byte   PATT
  .word Label_01161B53
@  #06 @070   ----------------------------------------
 .byte   PATT
  .word Label_01161BBE
@  #06 @071   ----------------------------------------
 .byte   PATT
  .word Label_01161BF6
@  #06 @072   ----------------------------------------
 .byte   PATT
  .word Label_01161C15
@  #06 @073   ----------------------------------------
 .byte   PATT
  .word Label_01161BF6
@  #06 @074   ----------------------------------------
 .byte   PATT
  .word Label_01161C15
@  #06 @075   ----------------------------------------
 .byte   PATT
  .word Label_01161BF6
@  #06 @076   ----------------------------------------
 .byte   PATT
  .word Label_01161C15
@  #06 @077   ----------------------------------------
 .byte   PATT
  .word Label_01161C60
@  #06 @078   ----------------------------------------
 .byte   PATT
  .word Label_01161C7D
@  #06 @079   ----------------------------------------
 .byte   PATT
  .word Label_01161CB4
@  #06 @080   ----------------------------------------
 .byte   PATT
  .word Label_01161C7D
@  #06 @081   ----------------------------------------
 .byte   PATT
  .word Label_01161CED
@  #06 @082   ----------------------------------------
 .byte   PATT
  .word Label_01161D2E
@  #06 @083   ----------------------------------------
 .byte   PATT
  .word Label_01161D60
@  #06 @084   ----------------------------------------
 .byte   PATT
  .word Label_01161DAC
@  #06 @085   ----------------------------------------
 .byte   PATT
  .word Label_01161DD9
@  #06 @086   ----------------------------------------
 .byte   PATT
  .word Label_01161C7D
@  #06 @087   ----------------------------------------
 .byte   PATT
  .word Label_01161CB4
@  #06 @088   ----------------------------------------
 .byte   PATT
  .word Label_01161C7D
@  #06 @089   ----------------------------------------
 .byte   PATT
  .word Label_01161E35
@  #06 @090   ----------------------------------------
 .byte   PATT
  .word Label_01161E6A
@  #06 @091   ----------------------------------------
 .byte   PATT
  .word Label_01161EA1
@  #06 @092   ----------------------------------------
 .byte   PATT
  .word Label_01161EDA
@  #06 @093   ----------------------------------------
 .byte   PATT
  .word Label_01161F11
@  #06 @094   ----------------------------------------
 .byte   PATT
  .word Label_01161F64
@  #06 @095   ----------------------------------------
 .byte   W96
@  #06 @096   ----------------------------------------
 .byte   W96
@  #06 @097   ----------------------------------------
 .byte   W24
 .byte   EOT
 .byte   Cs1 ,v044
 .byte   Cs2
 .byte   N12 ,Bn0 ,v084
 .byte   N12 ,Cs1 ,v008
 .byte   N12 ,Bn1 ,v084
 .byte   N12 ,Cs2 ,v008
 .byte   W12
 .byte   N06 ,Cs1 ,v068
 .byte   N06 ,Cs2 ,v028
 .byte   W12
 .byte   N11 ,Bn1 ,v112
 .byte   N11 ,Bn2
 .byte   W12
 .byte   N06 ,Cs2
 .byte   N06 ,Cs3
 .byte   W12
 .byte   N12 ,Cs2
 .byte   N12 ,Cs3
 .byte   W12
 .byte   N06 ,Cs1 ,v016
 .byte   N06 ,Cs2
 .byte   W06
 .byte   Bn0 ,v008
 .byte   N06 ,Bn1
 .byte   W06
@  #06 @098   ----------------------------------------
 .byte   PATT
  .word Label_01161FA3
@  #06 @099   ----------------------------------------
 .byte   PATT
  .word Label_01161FE3
@  #06 @100   ----------------------------------------
 .byte   PATT
  .word Label_01162022
@  #06 @101   ----------------------------------------
 .byte   PATT
  .word Label_0116204B
@  #06 @102   ----------------------------------------
 .byte   PATT
  .word Label_01161FA3
@  #06 @103   ----------------------------------------
 .byte   PATT
  .word Label_01161FE3
@  #06 @104   ----------------------------------------
 .byte   PATT
  .word Label_01162022
@  #06 @105   ----------------------------------------
 .byte   PATT
  .word Label_0116208D
 .byte   FINE

@**************** Track 7 (Midi-Chn.6) ****************@

song07_007:
@  #07 @000   ----------------------------------------
 .byte   KEYSH , song07_key+0
 .byte   VOICE , 117
 .byte   MODT 0
 .byte   LFOS 44
 .byte   MODT 0
 .byte   LFOS 44
 .byte   MODT 0
 .byte   LFOS 44
 .byte   PAN , c_v+3
 .byte   VOL , 66*song07_mvl/mxv
 .byte   BEND , c_v+0
 .byte   W96
@  #07 @001   ----------------------------------------
 .byte   W96
@  #07 @002   ----------------------------------------
 .byte   W96
@  #07 @003   ----------------------------------------
 .byte   W96
@  #07 @004   ----------------------------------------
 .byte   W96
@  #07 @005   ----------------------------------------
 .byte   W96
@  #07 @006   ----------------------------------------
 .byte   W96
@  #07 @007   ----------------------------------------
 .byte   W96
@  #07 @008   ----------------------------------------
Label_0115E90A:
 .byte   N24 ,Fs2 ,v048
 .byte   W48
 .byte   N48 ,Gs2
 .byte   W48
 .byte   PEND 
@  #07 @009   ----------------------------------------
 .byte   W24
 .byte   N72 ,Gn2
 .byte   W72
@  #07 @010   ----------------------------------------
 .byte   N24 ,Fs2
 .byte   W24
Label_0115E919:
 .byte   W12
 .byte   N60 ,An2 ,v048
 .byte   W60
@  #07 @011   ----------------------------------------
 .byte   W24
 .byte   N72 ,Fs2
 .byte   W72
@  #07 @012   ----------------------------------------
 .byte   PATT
  .word Label_0115E90A
@  #07 @013   ----------------------------------------
 .byte   W24
 .byte   N24 ,Gn2 ,v048
 .byte   W72
@  #07 @014   ----------------------------------------
Label_0115E92C:
 .byte   N24 ,Fs2 ,v048
 .byte   W36
 .byte   N60 ,An2
 .byte   W60
 .byte   PEND 
@  #07 @015   ----------------------------------------
 .byte   W24
 .byte   N24 ,Fs2
 .byte   W72
@  #07 @016   ----------------------------------------
 .byte   PATT
  .word Label_0115E90A
@  #07 @017   ----------------------------------------
 .byte   W24
 .byte   N24 ,Gn2 ,v048
 .byte   W72
@  #07 @018   ----------------------------------------
 .byte   PATT
  .word Label_0115E92C
@  #07 @019   ----------------------------------------
 .byte   W24
 .byte   N24 ,Fs2 ,v048
 .byte   W72
@  #07 @020   ----------------------------------------
 .byte   PATT
  .word Label_0115E90A
@  #07 @021   ----------------------------------------
 .byte   W24
 .byte   N24 ,Gn2 ,v048
 .byte   W72
@  #07 @022   ----------------------------------------
 .byte   PATT
  .word Label_0115E92C
@  #07 @023   ----------------------------------------
 .byte   W24
 .byte   N24 ,Fs2 ,v048
 .byte   W72
@  #07 @024   ----------------------------------------
 .byte   W96
@  #07 @025   ----------------------------------------
 .byte   W96
@  #07 @026   ----------------------------------------
 .byte   W96
@  #07 @027   ----------------------------------------
 .byte   W96
@  #07 @028   ----------------------------------------
 .byte   W30
 .byte   N66 ,Fs2 ,v092
 .byte   W66
@  #07 @029   ----------------------------------------
Label_0115E969:
 .byte   W18
 .byte   N24 ,Cs3 ,v020
 .byte   W60
 .byte   N18 ,Cn3
 .byte   W18
 .byte   PEND 
@  #07 @030   ----------------------------------------
 .byte   W96
@  #07 @031   ----------------------------------------
 .byte   W96
@  #07 @032   ----------------------------------------
 .byte   W96
@  #07 @033   ----------------------------------------
 .byte   W96
@  #07 @034   ----------------------------------------
 .byte   W96
@  #07 @035   ----------------------------------------
 .byte   W96
@  #07 @036   ----------------------------------------
 .byte   W96
@  #07 @037   ----------------------------------------
 .byte   W96
@  #07 @038   ----------------------------------------
 .byte   W96
@  #07 @039   ----------------------------------------
 .byte   W42
 .byte   N54 ,Bn2 ,v032
 .byte   W54
@  #07 @040   ----------------------------------------
 .byte   W96
@  #07 @041   ----------------------------------------
 .byte   W96
@  #07 @042   ----------------------------------------
 .byte   W96
@  #07 @043   ----------------------------------------
 .byte   W18
 .byte   N18 ,Cs3 ,v048
 .byte   W78
@  #07 @044   ----------------------------------------
Label_0115E988:
 .byte   W42
 .byte   W01
 .byte   N09 ,An2 ,v020
 .byte   W52
 .byte   W01
 .byte   PEND 
@  #07 @045   ----------------------------------------
 .byte   W90
 .byte   N06 ,Fs2
 .byte   W06
@  #07 @046   ----------------------------------------
 .byte   W96
@  #07 @047   ----------------------------------------
 .byte   W90
 .byte   Gn2 ,v016
 .byte   W06
@  #07 @048   ----------------------------------------
 .byte   PATT
  .word Label_0115E988
@  #07 @049   ----------------------------------------
 .byte   W90
 .byte   N09 ,Fs2 ,v020
 .byte   W06
@  #07 @050   ----------------------------------------
 .byte   W96
@  #07 @051   ----------------------------------------
 .byte   W96
@  #07 @052   ----------------------------------------
Label_0115E9A5:
 .byte   W42
 .byte   W01
 .byte   N09 ,An2 ,v012
 .byte   W52
 .byte   W01
 .byte   PEND 
@  #07 @053   ----------------------------------------
 .byte   W90
 .byte   N06 ,Fs2
 .byte   W06
@  #07 @054   ----------------------------------------
 .byte   W96
@  #07 @055   ----------------------------------------
 .byte   W90
 .byte   Gn2 ,v008
 .byte   W06
@  #07 @056   ----------------------------------------
 .byte   PATT
  .word Label_0115E9A5
@  #07 @057   ----------------------------------------
 .byte   W90
 .byte   N09 ,Fs2 ,v012
 .byte   W06
@  #07 @058   ----------------------------------------
 .byte   W96
@  #07 @059   ----------------------------------------
 .byte   W96
@  #07 @060   ----------------------------------------
 .byte   PATT
  .word Label_0115E90A
@  #07 @061   ----------------------------------------
 .byte   W24
 .byte   N24 ,Gn2 ,v048
 .byte   W72
@  #07 @062   ----------------------------------------
 .byte   Fs2
 .byte   W24
 .byte   GOTO
  .word Label_0115E919
@  #07 @063   ----------------------------------------
 .byte   W12
 .byte   N60 ,An2 ,v048
 .byte   W60
 .byte   W24
@  #07 @064   ----------------------------------------
 .byte   N24 ,Fs2
 .byte   W72
@  #07 @065   ----------------------------------------
 .byte   PATT
  .word Label_0115E90A
@  #07 @066   ----------------------------------------
 .byte   W24
 .byte   N24 ,Gn2 ,v048
 .byte   W72
@  #07 @067   ----------------------------------------
 .byte   PATT
  .word Label_0115E92C
@  #07 @068   ----------------------------------------
 .byte   W24
 .byte   N24 ,Fs2 ,v048
 .byte   W72
@  #07 @069   ----------------------------------------
 .byte   PATT
  .word Label_0115E90A
@  #07 @070   ----------------------------------------
 .byte   W24
 .byte   N24 ,Gn2 ,v048
 .byte   W72
@  #07 @071   ----------------------------------------
 .byte   PATT
  .word Label_0115E92C
@  #07 @072   ----------------------------------------
 .byte   W24
 .byte   N24 ,Fs2 ,v048
 .byte   W72
@  #07 @073   ----------------------------------------
 .byte   PATT
  .word Label_0115E90A
@  #07 @074   ----------------------------------------
 .byte   W24
 .byte   N24 ,Gn2 ,v048
 .byte   W72
@  #07 @075   ----------------------------------------
 .byte   PATT
  .word Label_0115E92C
@  #07 @076   ----------------------------------------
 .byte   W24
 .byte   N24 ,Fs2 ,v048
 .byte   W72
@  #07 @077   ----------------------------------------
 .byte   W96
@  #07 @078   ----------------------------------------
 .byte   W96
@  #07 @079   ----------------------------------------
 .byte   W96
@  #07 @080   ----------------------------------------
 .byte   W96
@  #07 @081   ----------------------------------------
 .byte   W30
 .byte   N66 ,Fs2 ,v092
 .byte   W66
@  #07 @082   ----------------------------------------
 .byte   PATT
  .word Label_0115E969
@  #07 @083   ----------------------------------------
 .byte   W96
@  #07 @084   ----------------------------------------
 .byte   W96
@  #07 @085   ----------------------------------------
 .byte   W96
@  #07 @086   ----------------------------------------
 .byte   W96
@  #07 @087   ----------------------------------------
 .byte   W96
@  #07 @088   ----------------------------------------
 .byte   W96
@  #07 @089   ----------------------------------------
 .byte   W96
@  #07 @090   ----------------------------------------
 .byte   W96
@  #07 @091   ----------------------------------------
 .byte   W96
@  #07 @092   ----------------------------------------
 .byte   W42
 .byte   N24 ,Bn2 ,v032
 .byte   W54
@  #07 @093   ----------------------------------------
 .byte   W96
@  #07 @094   ----------------------------------------
 .byte   W96
@  #07 @095   ----------------------------------------
 .byte   W96
@  #07 @096   ----------------------------------------
 .byte   W18
 .byte   N18 ,Cs3 ,v048
 .byte   W78
@  #07 @097   ----------------------------------------
 .byte   PATT
  .word Label_0115E988
@  #07 @098   ----------------------------------------
 .byte   W90
 .byte   N09 ,Fs2 ,v020
 .byte   W06
@  #07 @099   ----------------------------------------
 .byte   W96
@  #07 @100   ----------------------------------------
 .byte   W90
 .byte   N06 ,Gn2 ,v016
 .byte   W06
@  #07 @101   ----------------------------------------
 .byte   PATT
  .word Label_0115E988
@  #07 @102   ----------------------------------------
 .byte   W90
 .byte   N09 ,Fs2 ,v020
 .byte   W06
@  #07 @103   ----------------------------------------
 .byte   W96
@  #07 @104   ----------------------------------------
 .byte   W96
 .byte   FINE

@**************** Track 8 (Midi-Chn.7) ****************@

song07_008:
@  #08 @000   ----------------------------------------
 .byte   KEYSH , song07_key+0
 .byte   VOICE , 81
 .byte   MODT 0
 .byte   LFOS 44
 .byte   MODT 0
 .byte   LFOS 44
 .byte   MODT 0
 .byte   LFOS 44
 .byte   PAN , c_v+3
 .byte   VOL , 109*song07_mvl/mxv
 .byte   BEND , c_v+0
 .byte   W96
@  #08 @001   ----------------------------------------
 .byte   W96
@  #08 @002   ----------------------------------------
 .byte   W96
@  #08 @003   ----------------------------------------
 .byte   W96
@  #08 @004   ----------------------------------------
 .byte   W96
@  #08 @005   ----------------------------------------
 .byte   W96
@  #08 @006   ----------------------------------------
 .byte   W96
@  #08 @007   ----------------------------------------
 .byte   W96
@  #08 @008   ----------------------------------------
Label_0115D92E:
 .byte   N12 ,Bn1 ,v092
 .byte   N12 ,Bn2
 .byte   W12
 .byte   N06 ,Cs2
 .byte   N06 ,Cs3
 .byte   W12
 .byte   N12 ,Cs2
 .byte   N12 ,Cs3
 .byte   W18
 .byte   N18 ,Bn1
 .byte   N18 ,Bn2
 .byte   W18
 .byte   N12 ,Cs2
 .byte   N12 ,Cs3
 .byte   W12
 .byte   N06 ,Bn1
 .byte   N06 ,Bn2
 .byte   W06
 .byte   N12 ,Cs2
 .byte   N12 ,Cs3
 .byte   W18
 .byte   PEND 
@  #08 @009   ----------------------------------------
Label_0115D953:
 .byte   N06 ,Bn1 ,v092
 .byte   N06 ,Bn2
 .byte   W06
 .byte   Cs2
 .byte   N06 ,Cs3
 .byte   W12
 .byte   Bn1
 .byte   N06 ,Bn2
 .byte   W06
 .byte   N12 ,Bn1
 .byte   N12 ,Bn2
 .byte   W12
 .byte   N06 ,Cs2
 .byte   N06 ,Cs3
 .byte   W12
 .byte   N12 ,Bn1
 .byte   N12 ,Bn2
 .byte   W12
 .byte   Cs2
 .byte   N12 ,Cs3
 .byte   W12
 .byte   N06 ,Cs2
 .byte   N06 ,Cs3
 .byte   W06
 .byte   N18 ,Dn2
 .byte   N18 ,Dn3
 .byte   W18
 .byte   PEND 
@  #08 @010   ----------------------------------------
Label_0115D97F:
 .byte   N06 ,Bn1 ,v092
 .byte   N06 ,Bn2
 .byte   W06
 .byte   Cs2
 .byte   N06 ,Cs3
 .byte   W18
 .byte   PEND 
Label_0115D98A:
 .byte   N12 ,Cs2 ,v092
 .byte   N12 ,Cs3
 .byte   W18
 .byte   N18 ,Bn1
 .byte   N18 ,Bn2
 .byte   W18
 .byte   N12 ,Cs2
 .byte   N12 ,Cs3
 .byte   W12
 .byte   N06 ,Bn1
 .byte   N06 ,Bn2
 .byte   W06
 .byte   N12 ,Cs2
 .byte   N12 ,Cs3
 .byte   W18
@  #08 @011   ----------------------------------------
 .byte   PATT
  .word Label_0115D953
@  #08 @012   ----------------------------------------
 .byte   PATT
  .word Label_0115D92E
@  #08 @013   ----------------------------------------
 .byte   PATT
  .word Label_0115D953
@  #08 @014   ----------------------------------------
Label_0115D9B3:
 .byte   N06 ,Bn1 ,v092
 .byte   N06 ,Bn2
 .byte   W06
 .byte   Cs2
 .byte   N06 ,Cs3
 .byte   W18
 .byte   N12 ,Cs2
 .byte   N12 ,Cs3
 .byte   W18
 .byte   N18 ,Bn1
 .byte   N18 ,Bn2
 .byte   W18
 .byte   N12 ,Cs2
 .byte   N12 ,Cs3
 .byte   W12
 .byte   N06 ,Bn1
 .byte   N06 ,Bn2
 .byte   W06
 .byte   N12 ,Cs2
 .byte   N12 ,Cs3
 .byte   W18
 .byte   PEND 
@  #08 @015   ----------------------------------------
 .byte   PATT
  .word Label_0115D953
@  #08 @016   ----------------------------------------
 .byte   PATT
  .word Label_0115D92E
@  #08 @017   ----------------------------------------
 .byte   PATT
  .word Label_0115D953
@  #08 @018   ----------------------------------------
 .byte   PATT
  .word Label_0115D9B3
@  #08 @019   ----------------------------------------
 .byte   PATT
  .word Label_0115D953
@  #08 @020   ----------------------------------------
 .byte   PATT
  .word Label_0115D92E
@  #08 @021   ----------------------------------------
 .byte   PATT
  .word Label_0115D953
@  #08 @022   ----------------------------------------
 .byte   PATT
  .word Label_0115D9B3
@  #08 @023   ----------------------------------------
 .byte   PATT
  .word Label_0115D953
@  #08 @024   ----------------------------------------
 .byte   W96
@  #08 @025   ----------------------------------------
 .byte   W96
@  #08 @026   ----------------------------------------
 .byte   W96
@  #08 @027   ----------------------------------------
 .byte   W96
@  #08 @028   ----------------------------------------
 .byte   W96
@  #08 @029   ----------------------------------------
 .byte   W96
@  #08 @030   ----------------------------------------
 .byte   W96
@  #08 @031   ----------------------------------------
 .byte   W96
@  #08 @032   ----------------------------------------
 .byte   W96
@  #08 @033   ----------------------------------------
 .byte   W96
@  #08 @034   ----------------------------------------
 .byte   W96
@  #08 @035   ----------------------------------------
 .byte   W96
@  #08 @036   ----------------------------------------
 .byte   W96
@  #08 @037   ----------------------------------------
 .byte   W96
@  #08 @038   ----------------------------------------
 .byte   W96
@  #08 @039   ----------------------------------------
 .byte   W96
@  #08 @040   ----------------------------------------
Label_0115DA14:
 .byte   N12 ,Bn1 ,v092
 .byte   N12 ,Bn2
 .byte   W12
 .byte   Cs2
 .byte   N12 ,Cs3
 .byte   W12
 .byte   Cs2
 .byte   N12 ,Cs3
 .byte   W12
 .byte   N03 ,Cs2 ,v064
 .byte   N03 ,Cs3
 .byte   W06
 .byte   N18 ,Bn1 ,v092
 .byte   N18 ,Bn2
 .byte   W18
 .byte   N06 ,Cs2
 .byte   N06 ,Cs3
 .byte   W12
 .byte   N12 ,Bn1
 .byte   N12 ,Bn2
 .byte   W12
 .byte   N06 ,Cs2
 .byte   N06 ,Cs3
 .byte   W12
 .byte   PEND 
@  #08 @041   ----------------------------------------
Label_0115DA3E:
 .byte   N12 ,Cs2 ,v092
 .byte   N12 ,Cs3
 .byte   W12
 .byte   N03 ,Cs2 ,v064
 .byte   N03 ,Cs3
 .byte   W06
 .byte   N18 ,Bn1 ,v088
 .byte   N18 ,Bn2
 .byte   W18
 .byte   N06 ,Cs2 ,v092
 .byte   N06 ,Cs3
 .byte   W12
 .byte   N12 ,Bn1
 .byte   N12 ,Bn2
 .byte   W12
 .byte   N06 ,Cs2
 .byte   N06 ,Cs3
 .byte   W12
 .byte   N18 ,Cs2
 .byte   N18 ,Cs3
 .byte   W18
 .byte   N06 ,Bn1 ,v076
 .byte   N06 ,Bn2
 .byte   W06
 .byte   PEND 
@  #08 @042   ----------------------------------------
Label_0115DA6C:
 .byte   N12 ,Bn1 ,v092
 .byte   N12 ,Bn2
 .byte   W12
 .byte   N06 ,Cs2
 .byte   N06 ,Cs3
 .byte   W12
 .byte   N18 ,Cs2
 .byte   N18 ,Cs3
 .byte   W18
 .byte   N12 ,Bn1
 .byte   N12 ,Bn2
 .byte   W18
 .byte   N06 ,Cs2
 .byte   N06 ,Cs3
 .byte   W12
 .byte   N12 ,Bn1
 .byte   N12 ,Bn2
 .byte   W12
 .byte   N06 ,Cs2
 .byte   N06 ,Cs3
 .byte   W12
 .byte   PEND 
@  #08 @043   ----------------------------------------
Label_0115DA91:
 .byte   N16 ,Cs2 ,v092
 .byte   N16 ,Cs3
 .byte   W16
 .byte   N20 ,Bn1
 .byte   N20 ,Bn2
 .byte   W20
 .byte   N06 ,Cs2
 .byte   N06 ,Cs3
 .byte   W12
 .byte   N12 ,Bn1
 .byte   N12 ,Bn2
 .byte   W12
 .byte   N06 ,Cs2
 .byte   N06 ,Cs3
 .byte   W12
 .byte   N12 ,Cs2
 .byte   N12 ,Cs3
 .byte   W12
 .byte   N06 ,Cs1
 .byte   N06 ,Cs2
 .byte   W06
 .byte   Bn0
 .byte   N06 ,Bn1
 .byte   W06
 .byte   PEND 
@  #08 @044   ----------------------------------------
 .byte   W96
@  #08 @045   ----------------------------------------
 .byte   W96
@  #08 @046   ----------------------------------------
 .byte   W96
@  #08 @047   ----------------------------------------
 .byte   W96
@  #08 @048   ----------------------------------------
 .byte   W96
@  #08 @049   ----------------------------------------
 .byte   W96
@  #08 @050   ----------------------------------------
 .byte   W96
@  #08 @051   ----------------------------------------
 .byte   W96
@  #08 @052   ----------------------------------------
 .byte   W96
@  #08 @053   ----------------------------------------
 .byte   W96
@  #08 @054   ----------------------------------------
 .byte   W96
@  #08 @055   ----------------------------------------
 .byte   W96
@  #08 @056   ----------------------------------------
 .byte   W96
@  #08 @057   ----------------------------------------
 .byte   W96
@  #08 @058   ----------------------------------------
 .byte   W96
@  #08 @059   ----------------------------------------
 .byte   W96
@  #08 @060   ----------------------------------------
 .byte   PATT
  .word Label_0115D92E
@  #08 @061   ----------------------------------------
 .byte   PATT
  .word Label_0115D953
@  #08 @062   ----------------------------------------
 .byte   PATT
  .word Label_0115D97F
@  #08 @063   ----------------------------------------
 .byte   GOTO
  .word Label_0115D98A
@  #08 @064   ----------------------------------------
 .byte   N12 ,Cs2 ,v092
 .byte   N12 ,Cs3
 .byte   W18
 .byte   N18 ,Bn1
 .byte   N18 ,Bn2
 .byte   W18
 .byte   N12 ,Cs2
 .byte   N12 ,Cs3
 .byte   W12
 .byte   N06 ,Bn1
 .byte   N06 ,Bn2
 .byte   W06
 .byte   N12 ,Cs2
 .byte   N12 ,Cs3
 .byte   W18
@  #08 @065   ----------------------------------------
 .byte   PATT
  .word Label_0115D953
@  #08 @066   ----------------------------------------
 .byte   PATT
  .word Label_0115D92E
@  #08 @067   ----------------------------------------
 .byte   PATT
  .word Label_0115D953
@  #08 @068   ----------------------------------------
 .byte   PATT
  .word Label_0115D9B3
@  #08 @069   ----------------------------------------
 .byte   PATT
  .word Label_0115D953
@  #08 @070   ----------------------------------------
 .byte   PATT
  .word Label_0115D92E
@  #08 @071   ----------------------------------------
 .byte   PATT
  .word Label_0115D953
@  #08 @072   ----------------------------------------
 .byte   PATT
  .word Label_0115D9B3
@  #08 @073   ----------------------------------------
 .byte   PATT
  .word Label_0115D953
@  #08 @074   ----------------------------------------
 .byte   PATT
  .word Label_0115D92E
@  #08 @075   ----------------------------------------
 .byte   PATT
  .word Label_0115D953
@  #08 @076   ----------------------------------------
 .byte   PATT
  .word Label_0115D9B3
@  #08 @077   ----------------------------------------
 .byte   PATT
  .word Label_0115D953
@  #08 @078   ----------------------------------------
 .byte   W96
@  #08 @079   ----------------------------------------
 .byte   W96
@  #08 @080   ----------------------------------------
 .byte   W96
@  #08 @081   ----------------------------------------
 .byte   W96
@  #08 @082   ----------------------------------------
 .byte   W96
@  #08 @083   ----------------------------------------
 .byte   W96
@  #08 @084   ----------------------------------------
 .byte   W96
@  #08 @085   ----------------------------------------
 .byte   W96
@  #08 @086   ----------------------------------------
 .byte   W96
@  #08 @087   ----------------------------------------
 .byte   W96
@  #08 @088   ----------------------------------------
 .byte   W96
@  #08 @089   ----------------------------------------
 .byte   W96
@  #08 @090   ----------------------------------------
 .byte   W96
@  #08 @091   ----------------------------------------
 .byte   W96
@  #08 @092   ----------------------------------------
 .byte   W96
@  #08 @093   ----------------------------------------
 .byte   W96
@  #08 @094   ----------------------------------------
 .byte   PATT
  .word Label_0115DA14
@  #08 @095   ----------------------------------------
 .byte   PATT
  .word Label_0115DA3E
@  #08 @096   ----------------------------------------
 .byte   PATT
  .word Label_0115DA6C
@  #08 @097   ----------------------------------------
 .byte   PATT
  .word Label_0115DA91
@  #08 @098   ----------------------------------------
 .byte   W96
@  #08 @099   ----------------------------------------
 .byte   W96
@  #08 @100   ----------------------------------------
 .byte   W96
@  #08 @101   ----------------------------------------
 .byte   W96
@  #08 @102   ----------------------------------------
 .byte   W96
@  #08 @103   ----------------------------------------
 .byte   W96
@  #08 @104   ----------------------------------------
 .byte   W96
@  #08 @105   ----------------------------------------
 .byte   W96
 .byte   FINE

@**************** Track 9 (Midi-Chn.8) ****************@

song07_009:
@  #09 @000   ----------------------------------------
 .byte   KEYSH , song07_key+0
 .byte   VOICE , 39
 .byte   MODT 0
 .byte   LFOS 44
 .byte   MODT 0
 .byte   LFOS 44
 .byte   MODT 0
 .byte   LFOS 44
 .byte   VOL , 75*song07_mvl/mxv
 .byte   PAN , c_v+0
 .byte   VOL , 75*song07_mvl/mxv
 .byte   BEND , c_v+0
 .byte   W96
@  #09 @001   ----------------------------------------
 .byte   W96
@  #09 @002   ----------------------------------------
 .byte   W96
@  #09 @003   ----------------------------------------
 .byte   W96
@  #09 @004   ----------------------------------------
 .byte   W96
@  #09 @005   ----------------------------------------
 .byte   W96
@  #09 @006   ----------------------------------------
 .byte   W96
@  #09 @007   ----------------------------------------
 .byte   W96
@  #09 @008   ----------------------------------------
Label_0115E260:
 .byte   N12 ,Bn0 ,v048
 .byte   W12
 .byte   N06 ,Cs1
 .byte   W12
 .byte   N12
 .byte   W18
 .byte   N18 ,Bn0
 .byte   W18
 .byte   N12 ,Cs1
 .byte   W12
 .byte   N06 ,Bn0
 .byte   W06
 .byte   N12 ,Cs1
 .byte   W18
 .byte   PEND 
@  #09 @009   ----------------------------------------
Label_0115E276:
 .byte   N06 ,Bn0 ,v048
 .byte   W06
 .byte   N12 ,Cs1
 .byte   W12
 .byte   N06 ,Bn0
 .byte   W06
 .byte   N12
 .byte   W12
 .byte   N06 ,Cs1
 .byte   W12
 .byte   N12 ,Bn0
 .byte   W12
 .byte   Cs1
 .byte   W12
 .byte   N06
 .byte   W06
 .byte   N18 ,Dn1
 .byte   W18
 .byte   PEND 
@  #09 @010   ----------------------------------------
Label_0115E290:
 .byte   N06 ,Bn0 ,v048
 .byte   W06
 .byte   N18 ,Cs1
 .byte   W18
 .byte   PEND 
Label_0115E298:
 .byte   N12 ,Cs1 ,v048
 .byte   W18
 .byte   N18 ,Bn0
 .byte   W18
 .byte   N12 ,Cs1
 .byte   W12
 .byte   N06 ,Bn0
 .byte   W06
 .byte   N12 ,Cs1
 .byte   W18
@  #09 @011   ----------------------------------------
 .byte   PATT
  .word Label_0115E276
@  #09 @012   ----------------------------------------
 .byte   PATT
  .word Label_0115E260
@  #09 @013   ----------------------------------------
 .byte   PATT
  .word Label_0115E276
@  #09 @014   ----------------------------------------
Label_0115E2B7:
 .byte   N06 ,Bn0 ,v048
 .byte   W06
 .byte   N18 ,Cs1
 .byte   W18
 .byte   N12
 .byte   W18
 .byte   N18 ,Bn0
 .byte   W18
 .byte   N12 ,Cs1
 .byte   W12
 .byte   N06 ,Bn0
 .byte   W06
 .byte   N12 ,Cs1
 .byte   W18
 .byte   PEND 
@  #09 @015   ----------------------------------------
 .byte   PATT
  .word Label_0115E276
@  #09 @016   ----------------------------------------
 .byte   PATT
  .word Label_0115E260
@  #09 @017   ----------------------------------------
 .byte   PATT
  .word Label_0115E276
@  #09 @018   ----------------------------------------
 .byte   PATT
  .word Label_0115E2B7
@  #09 @019   ----------------------------------------
 .byte   PATT
  .word Label_0115E276
@  #09 @020   ----------------------------------------
 .byte   PATT
  .word Label_0115E260
@  #09 @021   ----------------------------------------
 .byte   PATT
  .word Label_0115E276
@  #09 @022   ----------------------------------------
 .byte   PATT
  .word Label_0115E2B7
@  #09 @023   ----------------------------------------
 .byte   PATT
  .word Label_0115E276
@  #09 @024   ----------------------------------------
Label_0115E2FA:
 .byte   N12 ,Bn0 ,v048
 .byte   W12
 .byte   N10 ,Cs1
 .byte   W12
 .byte   N10
 .byte   W12
 .byte   N06
 .byte   W06
 .byte   N04 ,Bn0
 .byte   W06
 .byte   N06
 .byte   W06
 .byte   N04 ,Cs1
 .byte   W06
 .byte   N10
 .byte   W12
 .byte   N10
 .byte   W12
 .byte   N06
 .byte   W06
 .byte   N04 ,Bn0
 .byte   W06
 .byte   PEND 
@  #09 @025   ----------------------------------------
Label_0115E317:
 .byte   N06 ,Bn0 ,v048
 .byte   W06
 .byte   N04 ,Cs1
 .byte   W06
 .byte   N10
 .byte   W12
 .byte   N10
 .byte   W12
 .byte   N06
 .byte   W06
 .byte   N04 ,Bn0
 .byte   W06
 .byte   N06
 .byte   W06
 .byte   N04 ,Cs1
 .byte   W06
 .byte   N04
 .byte   W06
 .byte   N04
 .byte   W06
 .byte   N04
 .byte   W06
 .byte   N06 ,Bn0
 .byte   W06
 .byte   N04
 .byte   W06
 .byte   N04
 .byte   W06
 .byte   PEND 
@  #09 @026   ----------------------------------------
 .byte   PATT
  .word Label_0115E2FA
@  #09 @027   ----------------------------------------
Label_0115E33F:
 .byte   N06 ,Fs0 ,v048
 .byte   W06
 .byte   N04 ,Gs0
 .byte   W06
 .byte   N10
 .byte   W12
 .byte   N10
 .byte   W12
 .byte   N06
 .byte   W06
 .byte   N04 ,Fs0
 .byte   W06
 .byte   N06
 .byte   W06
 .byte   N04 ,Gs0
 .byte   W06
 .byte   N04
 .byte   W06
 .byte   N04
 .byte   W06
 .byte   N04
 .byte   W06
 .byte   N06 ,Fs0
 .byte   W06
 .byte   N04
 .byte   W06
 .byte   N04
 .byte   W06
 .byte   PEND 
@  #09 @028   ----------------------------------------
Label_0115E362:
 .byte   N12 ,Fs0 ,v048
 .byte   W12
 .byte   N10
 .byte   W12
 .byte   N10
 .byte   W12
 .byte   N12
 .byte   W12
 .byte   N18 ,Gs0
 .byte   W24
 .byte   N24 ,Bn0
 .byte   W24
 .byte   PEND 
@  #09 @029   ----------------------------------------
Label_0115E373:
 .byte   N06 ,Bn0 ,v048
 .byte   W06
 .byte   N04 ,Cs1
 .byte   W06
 .byte   N10
 .byte   W12
 .byte   N18
 .byte   W24
 .byte   N06
 .byte   W06
 .byte   N12
 .byte   W12
 .byte   N04
 .byte   W06
 .byte   N12
 .byte   W12
 .byte   Bn0
 .byte   W12
 .byte   PEND 
@  #09 @030   ----------------------------------------
Label_0115E389:
 .byte   N12 ,An0 ,v048
 .byte   W12
 .byte   N10
 .byte   W12
 .byte   N10
 .byte   W12
 .byte   N12 ,Gs0
 .byte   W12
 .byte   An0
 .byte   W12
 .byte   N10
 .byte   W12
 .byte   N10
 .byte   W12
 .byte   N06
 .byte   W06
 .byte   N04 ,Gs0
 .byte   W06
 .byte   PEND 
@  #09 @031   ----------------------------------------
Label_0115E3A0:
 .byte   N06 ,Fs0 ,v048
 .byte   W06
 .byte   N04 ,Gs0
 .byte   W06
 .byte   N10
 .byte   W12
 .byte   N24
 .byte   W24
 .byte   N06
 .byte   W06
 .byte   N18
 .byte   W18
 .byte   N04
 .byte   W06
 .byte   N06 ,Fs0
 .byte   W06
 .byte   N04
 .byte   W06
 .byte   N04
 .byte   W06
 .byte   PEND 
@  #09 @032   ----------------------------------------
 .byte   PATT
  .word Label_0115E2FA
@  #09 @033   ----------------------------------------
Label_0115E3BE:
 .byte   N06 ,Gs0 ,v048
 .byte   W06
 .byte   N04 ,As0
 .byte   W06
 .byte   N10
 .byte   W12
 .byte   N10
 .byte   W12
 .byte   N06
 .byte   W06
 .byte   N04 ,Gs0
 .byte   W06
 .byte   N06
 .byte   W06
 .byte   N04 ,As0
 .byte   W06
 .byte   N04
 .byte   W06
 .byte   N04
 .byte   W06
 .byte   N04
 .byte   W06
 .byte   N06 ,Gs0
 .byte   W06
 .byte   N04
 .byte   W06
 .byte   N04
 .byte   W06
 .byte   PEND 
@  #09 @034   ----------------------------------------
Label_0115E3E1:
 .byte   N12 ,Gs0 ,v048
 .byte   W12
 .byte   N10 ,An0
 .byte   W12
 .byte   N10
 .byte   W12
 .byte   N06
 .byte   W06
 .byte   N04 ,Gs0
 .byte   W06
 .byte   N06
 .byte   W06
 .byte   N04 ,An0
 .byte   W06
 .byte   N10
 .byte   W12
 .byte   N10
 .byte   W12
 .byte   N06
 .byte   W06
 .byte   N04 ,Gs0
 .byte   W06
 .byte   PEND 
@  #09 @035   ----------------------------------------
 .byte   PATT
  .word Label_0115E33F
@  #09 @036   ----------------------------------------
Label_0115E403:
 .byte   N12 ,En0 ,v048
 .byte   W12
 .byte   N10 ,Fs0
 .byte   W12
 .byte   N10
 .byte   W12
 .byte   N06
 .byte   W06
 .byte   N04 ,En0
 .byte   W06
 .byte   N06 ,Fs0
 .byte   W06
 .byte   N04 ,Gs0
 .byte   W06
 .byte   N10
 .byte   W12
 .byte   N10
 .byte   W12
 .byte   N06
 .byte   W06
 .byte   N04 ,Fs0
 .byte   W06
 .byte   PEND 
@  #09 @037   ----------------------------------------
Label_0115E421:
 .byte   N06 ,Bn0 ,v048
 .byte   W06
 .byte   N04 ,Cs1
 .byte   W06
 .byte   N10
 .byte   W12
 .byte   N10
 .byte   W12
 .byte   N06
 .byte   W06
 .byte   N04 ,Bn0
 .byte   W06
 .byte   N06
 .byte   W06
 .byte   N04 ,Cs1
 .byte   W06
 .byte   N04
 .byte   W06
 .byte   N04
 .byte   W06
 .byte   N04
 .byte   W12
 .byte   N12 ,Bn0
 .byte   W12
 .byte   PEND 
@  #09 @038   ----------------------------------------
 .byte   PATT
  .word Label_0115E3E1
@  #09 @039   ----------------------------------------
Label_0115E445:
 .byte   N06 ,En0 ,v048
 .byte   W06
 .byte   N04 ,Fs0
 .byte   W06
 .byte   N10
 .byte   W12
 .byte   N10
 .byte   W12
 .byte   N06
 .byte   W06
 .byte   N04 ,En0
 .byte   W06
 .byte   N06 ,Fs0
 .byte   W06
 .byte   N04 ,Gs0
 .byte   W06
 .byte   N04
 .byte   W06
 .byte   N04
 .byte   W06
 .byte   N04
 .byte   W06
 .byte   N06 ,Fs0
 .byte   W06
 .byte   N04
 .byte   W06
 .byte   N04
 .byte   W06
 .byte   PEND 
@  #09 @040   ----------------------------------------
Label_0115E469:
 .byte   N12 ,Bn0 ,v020
 .byte   W12
 .byte   Cs1
 .byte   W12
 .byte   Cs1 ,v016
 .byte   W12
 .byte   N03
 .byte   W06
 .byte   N18 ,Bn0
 .byte   W18
 .byte   N06 ,Cs1
 .byte   W12
 .byte   N12 ,Bn0
 .byte   W12
 .byte   N06 ,Cs1
 .byte   W12
 .byte   PEND 
@  #09 @041   ----------------------------------------
Label_0115E481:
 .byte   N12 ,Cs1 ,v016
 .byte   W12
 .byte   N03 ,Cs1 ,v008
 .byte   W06
 .byte   N18 ,Bn0
 .byte   W18
 .byte   N06 ,Cs1 ,v020
 .byte   W12
 .byte   N12 ,Bn0
 .byte   W12
 .byte   N06 ,Cs1 ,v016
 .byte   W12
 .byte   N18
 .byte   W18
 .byte   N06 ,Bn0
 .byte   W06
 .byte   PEND 
@  #09 @042   ----------------------------------------
Label_0115E49D:
 .byte   N12 ,Bn0 ,v016
 .byte   W12
 .byte   N06 ,Cs1
 .byte   W12
 .byte   N17
 .byte   W18
 .byte   N12 ,Bn0
 .byte   W18
 .byte   N06 ,Cs1
 .byte   W12
 .byte   N12 ,Bn0
 .byte   W12
 .byte   N06 ,Cs1
 .byte   W12
 .byte   PEND 
@  #09 @043   ----------------------------------------
Label_0115E4B3:
 .byte   N16 ,Cs1 ,v016
 .byte   W16
 .byte   N20 ,Bn0 ,v068
 .byte   W20
 .byte   N06 ,Cs1 ,v028
 .byte   W12
 .byte   N12 ,Bn0 ,v112
 .byte   W12
 .byte   N06 ,Cs1
 .byte   W12
 .byte   N12
 .byte   W12
 .byte   N06 ,Cs1 ,v016
 .byte   W06
 .byte   Bn0 ,v008
 .byte   W06
 .byte   PEND 
@  #09 @044   ----------------------------------------
Label_0115E4D0:
 .byte   N11 ,An0 ,v084
 .byte   W12
 .byte   N12 ,An0 ,v032
 .byte   W12
 .byte   An0 ,v052
 .byte   W12
 .byte   An0 ,v032
 .byte   W12
 .byte   Gs0 ,v084
 .byte   W12
 .byte   Gs0 ,v032
 .byte   W12
 .byte   Gs0 ,v084
 .byte   W12
 .byte   Cs1 ,v036
 .byte   W12
 .byte   PEND 
@  #09 @045   ----------------------------------------
Label_0115E4EB:
 .byte   N11 ,Cs1 ,v092
 .byte   W12
 .byte   N12 ,Cs1 ,v036
 .byte   W12
 .byte   Cs1 ,v092
 .byte   W12
 .byte   Cs1 ,v036
 .byte   W12
 .byte   Cs1 ,v092
 .byte   W12
 .byte   Cs1 ,v036
 .byte   W12
 .byte   Cs1 ,v092
 .byte   W12
 .byte   Cs1 ,v036
 .byte   W12
 .byte   PEND 
@  #09 @046   ----------------------------------------
Label_0115E506:
 .byte   N11 ,Fs0 ,v084
 .byte   W12
 .byte   N12 ,Fs0 ,v032
 .byte   W12
 .byte   Fs0 ,v052
 .byte   W12
 .byte   Fs0 ,v032
 .byte   W12
 .byte   Gs0 ,v084
 .byte   W12
 .byte   Gs0 ,v032
 .byte   W12
 .byte   Gs0 ,v084
 .byte   W12
 .byte   Cs1 ,v036
 .byte   W12
 .byte   PEND 
@  #09 @047   ----------------------------------------
Label_0115E521:
 .byte   N11 ,Cs1 ,v092
 .byte   W12
 .byte   N12 ,Cs1 ,v036
 .byte   W12
 .byte   Cs1 ,v092
 .byte   W12
 .byte   Bn0 ,v036
 .byte   W12
 .byte   Bn0 ,v092
 .byte   W12
 .byte   Bn0 ,v036
 .byte   W12
 .byte   En1 ,v092
 .byte   W12
 .byte   En1 ,v036
 .byte   W12
 .byte   PEND 
@  #09 @048   ----------------------------------------
 .byte   PATT
  .word Label_0115E4D0
@  #09 @049   ----------------------------------------
 .byte   PATT
  .word Label_0115E4EB
@  #09 @050   ----------------------------------------
 .byte   PATT
  .word Label_0115E506
@  #09 @051   ----------------------------------------
 .byte   PATT
  .word Label_0115E4EB
@  #09 @052   ----------------------------------------
 .byte   PATT
  .word Label_0115E4D0
@  #09 @053   ----------------------------------------
 .byte   PATT
  .word Label_0115E4EB
@  #09 @054   ----------------------------------------
 .byte   PATT
  .word Label_0115E506
@  #09 @055   ----------------------------------------
 .byte   PATT
  .word Label_0115E521
@  #09 @056   ----------------------------------------
 .byte   PATT
  .word Label_0115E4D0
@  #09 @057   ----------------------------------------
 .byte   PATT
  .word Label_0115E4EB
@  #09 @058   ----------------------------------------
 .byte   PATT
  .word Label_0115E506
@  #09 @059   ----------------------------------------
 .byte   PATT
  .word Label_0115E4EB
@  #09 @060   ----------------------------------------
 .byte   PATT
  .word Label_0115E260
@  #09 @061   ----------------------------------------
 .byte   PATT
  .word Label_0115E276
@  #09 @062   ----------------------------------------
 .byte   PATT
  .word Label_0115E290
@  #09 @063   ----------------------------------------
 .byte   GOTO
  .word Label_0115E298
@  #09 @064   ----------------------------------------
 .byte   N12 ,Cs1 ,v048
 .byte   W18
 .byte   N18 ,Bn0
 .byte   W18
 .byte   N12 ,Cs1
 .byte   W12
 .byte   N06 ,Bn0
 .byte   W06
 .byte   N12 ,Cs1
 .byte   W18
@  #09 @065   ----------------------------------------
 .byte   PATT
  .word Label_0115E276
@  #09 @066   ----------------------------------------
 .byte   PATT
  .word Label_0115E260
@  #09 @067   ----------------------------------------
 .byte   PATT
  .word Label_0115E276
@  #09 @068   ----------------------------------------
 .byte   PATT
  .word Label_0115E2B7
@  #09 @069   ----------------------------------------
 .byte   PATT
  .word Label_0115E276
@  #09 @070   ----------------------------------------
 .byte   PATT
  .word Label_0115E260
@  #09 @071   ----------------------------------------
 .byte   PATT
  .word Label_0115E276
@  #09 @072   ----------------------------------------
 .byte   PATT
  .word Label_0115E2B7
@  #09 @073   ----------------------------------------
 .byte   PATT
  .word Label_0115E276
@  #09 @074   ----------------------------------------
 .byte   PATT
  .word Label_0115E260
@  #09 @075   ----------------------------------------
 .byte   PATT
  .word Label_0115E276
@  #09 @076   ----------------------------------------
 .byte   PATT
  .word Label_0115E2B7
@  #09 @077   ----------------------------------------
 .byte   PATT
  .word Label_0115E276
@  #09 @078   ----------------------------------------
 .byte   PATT
  .word Label_0115E2FA
@  #09 @079   ----------------------------------------
 .byte   PATT
  .word Label_0115E317
@  #09 @080   ----------------------------------------
 .byte   PATT
  .word Label_0115E2FA
@  #09 @081   ----------------------------------------
 .byte   PATT
  .word Label_0115E33F
@  #09 @082   ----------------------------------------
 .byte   PATT
  .word Label_0115E362
@  #09 @083   ----------------------------------------
 .byte   PATT
  .word Label_0115E373
@  #09 @084   ----------------------------------------
 .byte   PATT
  .word Label_0115E389
@  #09 @085   ----------------------------------------
 .byte   PATT
  .word Label_0115E3A0
@  #09 @086   ----------------------------------------
 .byte   PATT
  .word Label_0115E2FA
@  #09 @087   ----------------------------------------
 .byte   PATT
  .word Label_0115E3BE
@  #09 @088   ----------------------------------------
 .byte   PATT
  .word Label_0115E3E1
@  #09 @089   ----------------------------------------
 .byte   PATT
  .word Label_0115E33F
@  #09 @090   ----------------------------------------
 .byte   PATT
  .word Label_0115E403
@  #09 @091   ----------------------------------------
 .byte   PATT
  .word Label_0115E421
@  #09 @092   ----------------------------------------
 .byte   PATT
  .word Label_0115E3E1
@  #09 @093   ----------------------------------------
 .byte   PATT
  .word Label_0115E445
@  #09 @094   ----------------------------------------
 .byte   PATT
  .word Label_0115E469
@  #09 @095   ----------------------------------------
 .byte   PATT
  .word Label_0115E481
@  #09 @096   ----------------------------------------
 .byte   PATT
  .word Label_0115E49D
@  #09 @097   ----------------------------------------
 .byte   PATT
  .word Label_0115E4B3
@  #09 @098   ----------------------------------------
 .byte   PATT
  .word Label_0115E4D0
@  #09 @099   ----------------------------------------
 .byte   PATT
  .word Label_0115E4EB
@  #09 @100   ----------------------------------------
 .byte   PATT
  .word Label_0115E506
@  #09 @101   ----------------------------------------
 .byte   PATT
  .word Label_0115E521
@  #09 @102   ----------------------------------------
 .byte   PATT
  .word Label_0115E4D0
@  #09 @103   ----------------------------------------
 .byte   PATT
  .word Label_0115E4EB
@  #09 @104   ----------------------------------------
 .byte   PATT
  .word Label_0115E506
@  #09 @105   ----------------------------------------
 .byte   PATT
  .word Label_0115E4EB
 .byte   FINE

@**************** Track 10 (Midi-Chn.9) ****************@

song07_010:
@  #10 @000   ----------------------------------------
 .byte   KEYSH , song07_key+0
 .byte   VOICE , 123
 .byte   MODT 0
 .byte   LFOS 44
 .byte   MODT 0
 .byte   LFOS 44
 .byte   MODT 0
 .byte   LFOS 44
 .byte   PAN , c_v-16
 .byte   VOL , 68*song07_mvl/mxv
 .byte   MODT 0
 .byte   LFOS 44
 .byte   PAN , c_v-7
 .byte   VOL , 68*song07_mvl/mxv
 .byte   MODT 0
 .byte   LFOS 44
 .byte   PAN , c_v+3
 .byte   BEND , c_v+0
 .byte   N03 ,Cn1 ,v127
 .byte   N03 ,Gs1 ,v036
 .byte   W12
 .byte   N12 ,Fs1 ,v004
 .byte   W12
 .byte   Gs1 ,v032
 .byte   W12
 .byte   Fs1 ,v004
 .byte   W12
 .byte   Fs1 ,v012
 .byte   W12
 .byte   Fs1 ,v004
 .byte   W12
 .byte   N24 ,Fs1 ,v008
 .byte   W24
@  #10 @001   ----------------------------------------
 .byte   N03 ,Cn1 ,v127
 .byte   N12 ,Gs1 ,v036
 .byte   W12
 .byte   Fs1 ,v004
 .byte   W12
 .byte   Gs1 ,v032
 .byte   W12
 .byte   Fs1 ,v004
 .byte   W12
 .byte   Gs1 ,v012
 .byte   W12
 .byte   Fs1 ,v008
 .byte   W12
 .byte   Fs1 ,v004
 .byte   W12
 .byte   Cn1 ,v068
 .byte   N12 ,Fs1 ,v004
 .byte   W12
@  #10 @002   ----------------------------------------
 .byte   N96 ,Cn1 ,v127
 .byte   N12 ,Gs1 ,v036
 .byte   W12
 .byte   Fs1 ,v004
 .byte   W12
 .byte   Gs1 ,v032
 .byte   W12
 .byte   Fs1 ,v004
 .byte   W12
 .byte   Fs1 ,v012
 .byte   W12
 .byte   Fs1 ,v004
 .byte   W12
 .byte   N24 ,Fs1 ,v008
 .byte   W24
@  #10 @003   ----------------------------------------
 .byte   N03 ,Cn1 ,v127
 .byte   N12 ,Gs1 ,v036
 .byte   W12
 .byte   Fs1 ,v004
 .byte   W12
 .byte   Gs1 ,v032
 .byte   W12
 .byte   Fs1 ,v004
 .byte   W12
 .byte   Fs1 ,v012
 .byte   W12
 .byte   Fs1 ,v008
 .byte   W12
 .byte   Gs1 ,v024
 .byte   W12
 .byte   Cn1 ,v068
 .byte   N12 ,Fs1 ,v004
 .byte   W12
@  #10 @004   ----------------------------------------
 .byte   N03 ,Cn1 ,v127
 .byte   N03 ,Gs1 ,v024
 .byte   W12
 .byte   N12 ,As1 ,v052
 .byte   W12
 .byte   N48 ,Cs1 ,v068
 .byte   N12 ,Gs1 ,v028
 .byte   W12
 .byte   Fs1 ,v020
 .byte   W12
 .byte   Gs1 ,v012
 .byte   W12
 .byte   Fs1 ,v032
 .byte   W12
 .byte   N24 ,Cs1
 .byte   N03 ,Gs1 ,v012
 .byte   N03 ,Fs2 ,v024
 .byte   W12
 .byte   N12 ,Gs1 ,v012
 .byte   W12
@  #10 @005   ----------------------------------------
 .byte   N24 ,Cn1 ,v127
 .byte   N03 ,Gs1 ,v024
 .byte   W12
 .byte   N12 ,As1 ,v052
 .byte   W12
 .byte   N48 ,Cs1 ,v068
 .byte   N12 ,Gs1 ,v028
 .byte   W12
 .byte   Fs1 ,v020
 .byte   W12
 .byte   Gs1 ,v012
 .byte   W12
 .byte   Fs1 ,v032
 .byte   W12
 .byte   N03 ,Cs1 ,v044
 .byte   N03 ,Gs1 ,v012
 .byte   N03 ,Fs2 ,v024
 .byte   W12
 .byte   N12 ,Cn1 ,v068
 .byte   N12 ,Gs1 ,v012
 .byte   W12
@  #10 @006   ----------------------------------------
 .byte   N24 ,Cn1 ,v127
 .byte   N03 ,Gs1 ,v024
 .byte   W12
 .byte   N12 ,As1 ,v052
 .byte   W12
 .byte   N48 ,Cs1 ,v068
 .byte   N12 ,Gs1 ,v028
 .byte   W12
 .byte   Fs1 ,v020
 .byte   W12
 .byte   Gs1 ,v012
 .byte   W12
 .byte   Fs1 ,v032
 .byte   W12
 .byte   N24 ,Cs1 ,v048
 .byte   N03 ,Gs1 ,v012
 .byte   N03 ,Fs2 ,v024
 .byte   W12
 .byte   N12 ,Gs1 ,v012
 .byte   W12
@  #10 @007   ----------------------------------------
 .byte   N03 ,Cn1 ,v127
 .byte   N03 ,Gs1 ,v024
 .byte   W12
 .byte   N12 ,As1 ,v052
 .byte   W12
 .byte   Gs1 ,v012
 .byte   W12
 .byte   Fs1 ,v008
 .byte   W12
 .byte   Gs1 ,v004
 .byte   W12
 .byte   Fs1 ,v008
 .byte   W12
 .byte   Gs1 ,v004
 .byte   W12
 .byte   Cn1 ,v068
 .byte   N12 ,Gs1 ,v004
 .byte   W12
@  #10 @008   ----------------------------------------
Label_0116232C:
 .byte   N03 ,Cn1 ,v100
 .byte   N03 ,Fs1 ,v048
 .byte   N24 ,An2 ,v068
 .byte   W06
 .byte   N06 ,Fs1 ,v008
 .byte   W06
 .byte   N03 ,As1 ,v016
 .byte   N03 ,Fs2 ,v048
 .byte   W06
 .byte   N06 ,Fs1 ,v004
 .byte   W06
 .byte   N03 ,Cn1 ,v076
 .byte   N03 ,En1 ,v100
 .byte   N06 ,Fs1 ,v016
 .byte   W06
 .byte   N03
 .byte   W06
 .byte   As1
 .byte   N03 ,Fs2 ,v048
 .byte   W06
 .byte   N06 ,Fs1 ,v016
 .byte   W06
 .byte   N24 ,Cn1 ,v100
 .byte   N03 ,Fs1 ,v016
 .byte   W06
 .byte   N06 ,As1 ,v048
 .byte   W06
 .byte   N03 ,Fs1 ,v016
 .byte   N03 ,Fs2 ,v048
 .byte   W06
 .byte   N06 ,Fs1 ,v016
 .byte   W06
 .byte   N03 ,Cn1 ,v084
 .byte   N03 ,En1 ,v100
 .byte   N03 ,Fs1 ,v016
 .byte   W06
 .byte   N03
 .byte   W06
 .byte   As1
 .byte   N03 ,Fs2 ,v048
 .byte   W06
 .byte   N06 ,Fs1 ,v016
 .byte   W06
 .byte   PEND 
@  #10 @009   ----------------------------------------
Label_01162386:
 .byte   N03 ,Cn1 ,v100
 .byte   N03 ,Fs1 ,v048
 .byte   W06
 .byte   N18 ,En1 ,v028
 .byte   N06 ,Fs1 ,v008
 .byte   W06
 .byte   N03 ,As1 ,v016
 .byte   N03 ,Fs2 ,v048
 .byte   W06
 .byte   N06 ,Fs1 ,v004
 .byte   W06
 .byte   N03 ,Cn1 ,v084
 .byte   N03 ,En1 ,v100
 .byte   N06 ,Fs1 ,v016
 .byte   W06
 .byte   N03
 .byte   W06
 .byte   As1
 .byte   N03 ,Fs2 ,v048
 .byte   W06
 .byte   N06 ,En1 ,v028
 .byte   N06 ,Fs1 ,v016
 .byte   W06
 .byte   N03 ,Cn1 ,v100
 .byte   N03 ,Fs1 ,v016
 .byte   W06
 .byte   N18 ,En1 ,v028
 .byte   N06 ,As1 ,v048
 .byte   W06
 .byte   N03 ,Fs1 ,v016
 .byte   N03 ,Fs2 ,v048
 .byte   W06
 .byte   N06 ,Fs1 ,v016
 .byte   W06
 .byte   N03 ,Cn1 ,v084
 .byte   N03 ,En1 ,v100
 .byte   N03 ,Fs1 ,v016
 .byte   W06
 .byte   N03
 .byte   W06
 .byte   N06 ,Cn1 ,v084
 .byte   N03 ,As1 ,v016
 .byte   N03 ,Fs2 ,v048
 .byte   W06
 .byte   N06 ,En1 ,v028
 .byte   N06 ,Fs1 ,v016
 .byte   W06
 .byte   PEND 
@  #10 @010   ----------------------------------------
Label_011623EE:
 .byte   N03 ,Cn1 ,v100
 .byte   N03 ,Fs1 ,v048
 .byte   W06
 .byte   N06 ,Fs1 ,v008
 .byte   W06
 .byte   N03 ,As1 ,v016
 .byte   N03 ,Fs2 ,v048
 .byte   W06
 .byte   N06 ,Fs1 ,v004
 .byte   W06
 .byte   PEND 
Label_01162405:
 .byte   N03 ,Cn1 ,v076
 .byte   N03 ,En1 ,v100
 .byte   N06 ,Fs1 ,v016
 .byte   W06
 .byte   N03
 .byte   W06
 .byte   As1
 .byte   N03 ,Fs2 ,v048
 .byte   W06
 .byte   N06 ,En1 ,v028
 .byte   N06 ,Fs1 ,v016
 .byte   W06
 .byte   N03 ,Cn1 ,v100
 .byte   N03 ,Fs1 ,v016
 .byte   W06
 .byte   N18 ,En1 ,v028
 .byte   N06 ,As1 ,v048
 .byte   W06
 .byte   N03 ,Fs1 ,v016
 .byte   N03 ,Fs2 ,v048
 .byte   W06
 .byte   N06 ,Fs1 ,v016
 .byte   W06
 .byte   N03 ,Cn1 ,v084
 .byte   N03 ,En1 ,v100
 .byte   N03 ,Fs1 ,v016
 .byte   W06
 .byte   N03
 .byte   W06
 .byte   As1
 .byte   N03 ,Fs2 ,v048
 .byte   W06
 .byte   N06 ,En1 ,v028
 .byte   N06 ,Fs1 ,v016
 .byte   W06
@  #10 @011   ----------------------------------------
Label_0116244E:
 .byte   N03 ,Cn1 ,v100
 .byte   N03 ,Fs1 ,v048
 .byte   W06
 .byte   N18 ,En1 ,v028
 .byte   N06 ,Fs1 ,v008
 .byte   W06
 .byte   N03 ,As1 ,v016
 .byte   N03 ,Fs2 ,v048
 .byte   W06
 .byte   N06 ,Fs1 ,v004
 .byte   W06
 .byte   N03 ,Cn1 ,v084
 .byte   N03 ,En1 ,v100
 .byte   N06 ,Fs1 ,v016
 .byte   W06
 .byte   N03
 .byte   W06
 .byte   As1
 .byte   N03 ,Fs2 ,v048
 .byte   W06
 .byte   N06 ,En1 ,v028
 .byte   N06 ,Fs1 ,v016
 .byte   W06
 .byte   N03 ,Cn1 ,v100
 .byte   N03 ,Fs1 ,v016
 .byte   W06
 .byte   N18 ,En1 ,v028
 .byte   N06 ,As1 ,v048
 .byte   W06
 .byte   N03 ,Fs1 ,v016
 .byte   N03 ,Fs2 ,v048
 .byte   W06
 .byte   N06 ,Fs1 ,v016
 .byte   W06
 .byte   N03 ,Cn1 ,v084
 .byte   N03 ,En1 ,v100
 .byte   N03 ,Fs1 ,v016
 .byte   W06
 .byte   N03
 .byte   W06
 .byte   N12 ,Cn1 ,v084
 .byte   N03 ,As1 ,v016
 .byte   N03 ,Fs2 ,v048
 .byte   W06
 .byte   N06 ,Fs1 ,v016
 .byte   W06
 .byte   PEND 
@  #10 @012   ----------------------------------------
 .byte   PATT
  .word Label_0116232C
@  #10 @013   ----------------------------------------
 .byte   PATT
  .word Label_01162386
@  #10 @014   ----------------------------------------
Label_011624BD:
 .byte   N03 ,Cn1 ,v100
 .byte   N03 ,Fs1 ,v048
 .byte   W06
 .byte   N06 ,Fs1 ,v008
 .byte   W06
 .byte   N03 ,As1 ,v016
 .byte   N03 ,Fs2 ,v048
 .byte   W06
 .byte   N06 ,Fs1 ,v004
 .byte   W06
 .byte   N03 ,Cn1 ,v076
 .byte   N03 ,En1 ,v100
 .byte   N06 ,Fs1 ,v016
 .byte   W06
 .byte   N03
 .byte   W06
 .byte   As1
 .byte   N03 ,Fs2 ,v048
 .byte   W06
 .byte   N06 ,En1 ,v028
 .byte   N06 ,Fs1 ,v016
 .byte   W06
 .byte   N03 ,Cn1 ,v100
 .byte   N03 ,Fs1 ,v016
 .byte   W06
 .byte   N18 ,En1 ,v028
 .byte   N06 ,As1 ,v048
 .byte   W06
 .byte   N03 ,Fs1 ,v016
 .byte   N03 ,Fs2 ,v048
 .byte   W06
 .byte   N06 ,Fs1 ,v016
 .byte   W06
 .byte   N03 ,Cn1 ,v084
 .byte   N03 ,En1 ,v100
 .byte   N03 ,Fs1 ,v016
 .byte   W06
 .byte   N03
 .byte   W06
 .byte   As1
 .byte   N03 ,Fs2 ,v048
 .byte   W06
 .byte   N06 ,En1 ,v028
 .byte   N06 ,Fs1 ,v016
 .byte   W06
 .byte   PEND 
@  #10 @015   ----------------------------------------
 .byte   PATT
  .word Label_0116244E
@  #10 @016   ----------------------------------------
 .byte   PATT
  .word Label_0116232C
@  #10 @017   ----------------------------------------
 .byte   PATT
  .word Label_01162386
@  #10 @018   ----------------------------------------
 .byte   PATT
  .word Label_011624BD
@  #10 @019   ----------------------------------------
 .byte   PATT
  .word Label_0116244E
@  #10 @020   ----------------------------------------
 .byte   PATT
  .word Label_0116232C
@  #10 @021   ----------------------------------------
 .byte   PATT
  .word Label_01162386
@  #10 @022   ----------------------------------------
 .byte   PATT
  .word Label_011624BD
@  #10 @023   ----------------------------------------
 .byte   PATT
  .word Label_0116244E
@  #10 @024   ----------------------------------------
Label_0116254A:
 .byte   N03 ,Cn1 ,v100
 .byte   N03 ,Fs1 ,v068
 .byte   N24 ,An2
 .byte   W12
 .byte   N12 ,Fs1 ,v044
 .byte   W12
 .byte   N03 ,Cn1 ,v076
 .byte   N03 ,En1 ,v100
 .byte   N12 ,Fs1 ,v068
 .byte   W12
 .byte   N06 ,Fs1 ,v044
 .byte   W06
 .byte   En1 ,v028
 .byte   W06
 .byte   Cn1 ,v100
 .byte   N12 ,Fs1 ,v060
 .byte   W06
 .byte   N18 ,En1 ,v028
 .byte   W06
 .byte   N12 ,Fs1 ,v044
 .byte   W12
 .byte   N03 ,Cn1 ,v084
 .byte   N03 ,En1 ,v100
 .byte   N12 ,Fs1 ,v068
 .byte   W12
 .byte   Fs1 ,v036
 .byte   W12
 .byte   PEND 
@  #10 @025   ----------------------------------------
Label_01162584:
 .byte   N03 ,Cn1 ,v100
 .byte   N03 ,Fs1 ,v068
 .byte   W06
 .byte   N18 ,En1 ,v028
 .byte   W06
 .byte   N12 ,Fs1 ,v044
 .byte   W12
 .byte   N03 ,Cn1 ,v084
 .byte   N03 ,En1 ,v100
 .byte   N12 ,Fs1 ,v068
 .byte   W12
 .byte   N06 ,Fs1 ,v044
 .byte   W06
 .byte   En1 ,v028
 .byte   W06
 .byte   Cn1 ,v100
 .byte   N12 ,Fs1 ,v060
 .byte   W06
 .byte   N18 ,En1 ,v028
 .byte   W06
 .byte   N12 ,Fs1 ,v044
 .byte   W12
 .byte   N03 ,Cn1 ,v084
 .byte   N03 ,En1 ,v100
 .byte   N12 ,Fs1 ,v068
 .byte   W12
 .byte   N06 ,Cn1 ,v084
 .byte   N12 ,Fs1 ,v036
 .byte   W06
 .byte   N06 ,En1 ,v028
 .byte   W06
 .byte   PEND 
@  #10 @026   ----------------------------------------
Label_011625C8:
 .byte   N03 ,Cn1 ,v100
 .byte   N03 ,Fs1 ,v068
 .byte   W12
 .byte   N12 ,Fs1 ,v044
 .byte   W12
 .byte   N03 ,Cn1 ,v076
 .byte   N03 ,En1 ,v100
 .byte   N12 ,Fs1 ,v068
 .byte   W12
 .byte   N06 ,Fs1 ,v044
 .byte   W06
 .byte   En1 ,v028
 .byte   W06
 .byte   Cn1 ,v100
 .byte   N12 ,Fs1 ,v060
 .byte   W06
 .byte   N18 ,En1 ,v028
 .byte   W06
 .byte   N12 ,Fs1 ,v044
 .byte   W12
 .byte   N03 ,Cn1 ,v084
 .byte   N03 ,En1 ,v100
 .byte   N12 ,Fs1 ,v068
 .byte   W12
 .byte   N06 ,Fs1 ,v036
 .byte   W06
 .byte   En1 ,v028
 .byte   W06
 .byte   PEND 
@  #10 @027   ----------------------------------------
Label_01162604:
 .byte   N03 ,Cn1 ,v100
 .byte   N03 ,Fs1 ,v068
 .byte   W06
 .byte   N18 ,En1 ,v028
 .byte   W06
 .byte   N12 ,Fs1 ,v044
 .byte   W12
 .byte   N03 ,Cn1 ,v084
 .byte   N03 ,En1 ,v100
 .byte   N12 ,Fs1 ,v068
 .byte   W12
 .byte   N06 ,Fs1 ,v044
 .byte   W06
 .byte   En1 ,v028
 .byte   W06
 .byte   Cn1 ,v100
 .byte   N12 ,Fs1 ,v060
 .byte   W06
 .byte   N18 ,En1 ,v028
 .byte   W06
 .byte   N12 ,Fs1 ,v044
 .byte   W12
 .byte   N03 ,Cn1 ,v084
 .byte   N03 ,En1 ,v100
 .byte   N12 ,Fs1 ,v068
 .byte   W12
 .byte   Cn1 ,v084
 .byte   N12 ,Fs1 ,v036
 .byte   W12
 .byte   PEND 
@  #10 @028   ----------------------------------------
 .byte   PATT
  .word Label_0116254A
@  #10 @029   ----------------------------------------
 .byte   PATT
  .word Label_01162584
@  #10 @030   ----------------------------------------
 .byte   PATT
  .word Label_011625C8
@  #10 @031   ----------------------------------------
Label_01162652:
 .byte   N03 ,Cn1 ,v100
 .byte   N03 ,Fs1 ,v068
 .byte   W06
 .byte   N18 ,En1 ,v028
 .byte   W06
 .byte   N12 ,Fs1 ,v044
 .byte   W12
 .byte   N03 ,Cn1 ,v084
 .byte   N03 ,En1 ,v100
 .byte   N12 ,Fs1 ,v068
 .byte   W12
 .byte   N06 ,Fs1 ,v044
 .byte   W06
 .byte   En1 ,v028
 .byte   W06
 .byte   Cn1 ,v100
 .byte   N12 ,Fs1 ,v060
 .byte   W06
 .byte   N18 ,En1 ,v028
 .byte   W06
 .byte   N12 ,Fs1 ,v044
 .byte   W12
 .byte   N03 ,Cn1 ,v084
 .byte   N03 ,En1 ,v100
 .byte   N12 ,Fs1 ,v068
 .byte   W12
 .byte   N03 ,Cn1 ,v084
 .byte   N03 ,En1 ,v100
 .byte   N12 ,Fs1 ,v036
 .byte   W12
 .byte   PEND 
@  #10 @032   ----------------------------------------
 .byte   PATT
  .word Label_0116254A
@  #10 @033   ----------------------------------------
 .byte   PATT
  .word Label_01162584
@  #10 @034   ----------------------------------------
 .byte   PATT
  .word Label_011625C8
@  #10 @035   ----------------------------------------
 .byte   PATT
  .word Label_01162604
@  #10 @036   ----------------------------------------
 .byte   PATT
  .word Label_0116254A
@  #10 @037   ----------------------------------------
 .byte   PATT
  .word Label_01162584
@  #10 @038   ----------------------------------------
 .byte   PATT
  .word Label_011625C8
@  #10 @039   ----------------------------------------
 .byte   PATT
  .word Label_01162584
@  #10 @040   ----------------------------------------
Label_011626BD:
 .byte   N03 ,Cn1 ,v100
 .byte   N96 ,An2 ,v127
 .byte   W24
 .byte   N24 ,Cn1 ,v084
 .byte   W24
 .byte   Cn1 ,v100
 .byte   W24
 .byte   Cn1 ,v084
 .byte   W24
 .byte   PEND 
@  #10 @041   ----------------------------------------
Label_011626CF:
 .byte   N03 ,Cn1 ,v100
 .byte   W24
 .byte   N24 ,Cn1 ,v084
 .byte   W24
 .byte   Cn1 ,v100
 .byte   W24
 .byte   N12 ,Cn1 ,v084
 .byte   W12
 .byte   N03
 .byte   W12
 .byte   PEND 
@  #10 @042   ----------------------------------------
Label_011626E1:
 .byte   N03 ,Cn1 ,v100
 .byte   W24
 .byte   N24 ,Cn1 ,v084
 .byte   W24
 .byte   Cn1 ,v100
 .byte   W24
 .byte   Cn1 ,v084
 .byte   W24
 .byte   PEND 
@  #10 @043   ----------------------------------------
 .byte   PATT
  .word Label_011626CF
@  #10 @044   ----------------------------------------
Label_011626F5:
 .byte   N03 ,Cn1 ,v100
 .byte   N03 ,Fs1 ,v068
 .byte   N96 ,An2
 .byte   W12
 .byte   N12 ,Fs1 ,v044
 .byte   W12
 .byte   N03 ,Cn1 ,v076
 .byte   N03 ,En1 ,v100
 .byte   N12 ,Fs1 ,v068
 .byte   W12
 .byte   N06 ,Fs1 ,v044
 .byte   W06
 .byte   En1 ,v028
 .byte   W06
 .byte   Cn1 ,v100
 .byte   N12 ,Fs1 ,v060
 .byte   W06
 .byte   N18 ,En1 ,v028
 .byte   W06
 .byte   N12 ,Fs1 ,v044
 .byte   W12
 .byte   N03 ,Cn1 ,v084
 .byte   N03 ,En1 ,v100
 .byte   N12 ,Fs1 ,v068
 .byte   W12
 .byte   Fs1 ,v036
 .byte   W12
 .byte   PEND 
@  #10 @045   ----------------------------------------
 .byte   PATT
  .word Label_01162584
@  #10 @046   ----------------------------------------
 .byte   PATT
  .word Label_011625C8
@  #10 @047   ----------------------------------------
 .byte   PATT
  .word Label_01162604
@  #10 @048   ----------------------------------------
 .byte   PATT
  .word Label_0116254A
@  #10 @049   ----------------------------------------
 .byte   PATT
  .word Label_01162584
@  #10 @050   ----------------------------------------
 .byte   PATT
  .word Label_011625C8
@  #10 @051   ----------------------------------------
Label_0116274D:
 .byte   N03 ,Cn1 ,v100
 .byte   N03 ,Fs1 ,v068
 .byte   W06
 .byte   N18 ,En1 ,v028
 .byte   W06
 .byte   N12 ,Fs1 ,v044
 .byte   W12
 .byte   N03 ,Cn1 ,v084
 .byte   N03 ,En1 ,v100
 .byte   N12 ,Fs1 ,v068
 .byte   W12
 .byte   N06 ,Fs1 ,v044
 .byte   W06
 .byte   En1 ,v028
 .byte   W06
 .byte   Cn1 ,v100
 .byte   N12 ,Fs1 ,v060
 .byte   W06
 .byte   N03 ,Dn1 ,v028
 .byte   N03 ,En1
 .byte   W06
 .byte   N12 ,Dn1
 .byte   N12 ,Fs1 ,v044
 .byte   W12
 .byte   N03 ,Cn1 ,v084
 .byte   N03 ,Dn1 ,v028
 .byte   N03 ,En1 ,v100
 .byte   N12 ,Fs1 ,v068
 .byte   W12
 .byte   N03 ,Cn1 ,v084
 .byte   N03 ,Dn1 ,v028
 .byte   N12 ,Fs1 ,v036
 .byte   W06
 .byte   N03 ,Dn1 ,v028
 .byte   W06
 .byte   PEND 
@  #10 @052   ----------------------------------------
 .byte   PATT
  .word Label_0116254A
@  #10 @053   ----------------------------------------
 .byte   PATT
  .word Label_01162584
@  #10 @054   ----------------------------------------
 .byte   PATT
  .word Label_011625C8
@  #10 @055   ----------------------------------------
 .byte   PATT
  .word Label_01162604
@  #10 @056   ----------------------------------------
 .byte   PATT
  .word Label_0116254A
@  #10 @057   ----------------------------------------
 .byte   PATT
  .word Label_01162584
@  #10 @058   ----------------------------------------
 .byte   PATT
  .word Label_011625C8
@  #10 @059   ----------------------------------------
 .byte   PATT
  .word Label_0116274D
@  #10 @060   ----------------------------------------
 .byte   PATT
  .word Label_0116232C
@  #10 @061   ----------------------------------------
 .byte   PATT
  .word Label_01162386
@  #10 @062   ----------------------------------------
 .byte   PATT
  .word Label_011623EE
@  #10 @063   ----------------------------------------
 .byte   GOTO
  .word Label_01162405
@  #10 @064   ----------------------------------------
 .byte   N03 ,Cn1 ,v076
 .byte   N03 ,En1 ,v100
 .byte   N06 ,Fs1 ,v016
 .byte   W06
 .byte   N03
 .byte   W06
 .byte   As1
 .byte   N03 ,Fs2 ,v048
 .byte   W06
 .byte   N06 ,En1 ,v028
 .byte   N06 ,Fs1 ,v016
 .byte   W06
 .byte   N03 ,Cn1 ,v100
 .byte   N03 ,Fs1 ,v016
 .byte   W06
 .byte   N18 ,En1 ,v028
 .byte   N06 ,As1 ,v048
 .byte   W06
 .byte   N03 ,Fs1 ,v016
 .byte   N03 ,Fs2 ,v048
 .byte   W06
 .byte   N06 ,Fs1 ,v016
 .byte   W06
 .byte   N03 ,Cn1 ,v084
 .byte   N03 ,En1 ,v100
 .byte   N03 ,Fs1 ,v016
 .byte   W06
 .byte   N03
 .byte   W06
 .byte   As1
 .byte   N03 ,Fs2 ,v048
 .byte   W06
 .byte   N06 ,En1 ,v028
 .byte   N06 ,Fs1 ,v016
 .byte   W06
@  #10 @065   ----------------------------------------
 .byte   PATT
  .word Label_0116244E
@  #10 @066   ----------------------------------------
 .byte   PATT
  .word Label_0116232C
@  #10 @067   ----------------------------------------
 .byte   PATT
  .word Label_01162386
@  #10 @068   ----------------------------------------
 .byte   PATT
  .word Label_011624BD
@  #10 @069   ----------------------------------------
 .byte   PATT
  .word Label_0116244E
@  #10 @070   ----------------------------------------
 .byte   PATT
  .word Label_0116232C
@  #10 @071   ----------------------------------------
 .byte   PATT
  .word Label_01162386
@  #10 @072   ----------------------------------------
 .byte   PATT
  .word Label_011624BD
@  #10 @073   ----------------------------------------
 .byte   PATT
  .word Label_0116244E
@  #10 @074   ----------------------------------------
 .byte   PATT
  .word Label_0116232C
@  #10 @075   ----------------------------------------
 .byte   PATT
  .word Label_01162386
@  #10 @076   ----------------------------------------
 .byte   PATT
  .word Label_011624BD
@  #10 @077   ----------------------------------------
 .byte   PATT
  .word Label_0116244E
@  #10 @078   ----------------------------------------
 .byte   PATT
  .word Label_0116254A
@  #10 @079   ----------------------------------------
 .byte   PATT
  .word Label_01162584
@  #10 @080   ----------------------------------------
 .byte   PATT
  .word Label_011625C8
@  #10 @081   ----------------------------------------
 .byte   PATT
  .word Label_01162604
@  #10 @082   ----------------------------------------
 .byte   PATT
  .word Label_0116254A
@  #10 @083   ----------------------------------------
 .byte   PATT
  .word Label_01162584
@  #10 @084   ----------------------------------------
 .byte   PATT
  .word Label_011625C8
@  #10 @085   ----------------------------------------
 .byte   PATT
  .word Label_01162652
@  #10 @086   ----------------------------------------
 .byte   PATT
  .word Label_0116254A
@  #10 @087   ----------------------------------------
 .byte   PATT
  .word Label_01162584
@  #10 @088   ----------------------------------------
 .byte   PATT
  .word Label_011625C8
@  #10 @089   ----------------------------------------
 .byte   PATT
  .word Label_01162604
@  #10 @090   ----------------------------------------
 .byte   PATT
  .word Label_0116254A
@  #10 @091   ----------------------------------------
 .byte   PATT
  .word Label_01162584
@  #10 @092   ----------------------------------------
 .byte   PATT
  .word Label_011625C8
@  #10 @093   ----------------------------------------
 .byte   PATT
  .word Label_01162584
@  #10 @094   ----------------------------------------
 .byte   PATT
  .word Label_011626BD
@  #10 @095   ----------------------------------------
 .byte   PATT
  .word Label_011626CF
@  #10 @096   ----------------------------------------
 .byte   PATT
  .word Label_011626E1
@  #10 @097   ----------------------------------------
 .byte   PATT
  .word Label_011626CF
@  #10 @098   ----------------------------------------
 .byte   PATT
  .word Label_011626F5
@  #10 @099   ----------------------------------------
 .byte   PATT
  .word Label_01162584
@  #10 @100   ----------------------------------------
 .byte   PATT
  .word Label_011625C8
@  #10 @101   ----------------------------------------
 .byte   PATT
  .word Label_01162604
@  #10 @102   ----------------------------------------
 .byte   PATT
  .word Label_0116254A
@  #10 @103   ----------------------------------------
 .byte   PATT
  .word Label_01162584
@  #10 @104   ----------------------------------------
 .byte   PATT
  .word Label_011625C8
@  #10 @105   ----------------------------------------
 .byte   PATT
  .word Label_0116274D
 .byte   FINE

@**************** Track 11 (Midi-Chn.10) ****************@

song07_011:
@  #11 @000   ----------------------------------------
 .byte   KEYSH , song07_key+0
 .byte   VOICE , 94
 .byte   MODT 0
 .byte   LFOS 44
 .byte   MODT 0
 .byte   LFOS 44
 .byte   MODT 0
 .byte   LFOS 44
 .byte   PAN , c_v+3
 .byte   VOL , 46*song07_mvl/mxv
 .byte   BEND , c_v+0
 .byte   W96
@  #11 @001   ----------------------------------------
 .byte   W96
@  #11 @002   ----------------------------------------
 .byte   W96
@  #11 @003   ----------------------------------------
 .byte   W96
@  #11 @004   ----------------------------------------
 .byte   W96
@  #11 @005   ----------------------------------------
 .byte   W96
@  #11 @006   ----------------------------------------
 .byte   W96
@  #11 @007   ----------------------------------------
 .byte   W96
@  #11 @008   ----------------------------------------
 .byte   VOL , 46*song07_mvl/mxv
 .byte   W96
@  #11 @009   ----------------------------------------
 .byte   W96
@  #11 @010   ----------------------------------------
 .byte   W24
Label_0115EB23:
 .byte   W72
@  #11 @011   ----------------------------------------
 .byte   W96
@  #11 @012   ----------------------------------------
 .byte   W96
@  #11 @013   ----------------------------------------
 .byte   W96
@  #11 @014   ----------------------------------------
 .byte   W96
@  #11 @015   ----------------------------------------
 .byte   W96
@  #11 @016   ----------------------------------------
 .byte   W96
@  #11 @017   ----------------------------------------
 .byte   W96
@  #11 @018   ----------------------------------------
 .byte   W96
@  #11 @019   ----------------------------------------
 .byte   W96
@  #11 @020   ----------------------------------------
 .byte   W96
@  #11 @021   ----------------------------------------
 .byte   W96
@  #11 @022   ----------------------------------------
 .byte   W96
@  #11 @023   ----------------------------------------
Label_0115EB30:
 .byte   W84
 .byte   N06 ,En6 ,v012
 .byte   W06
 .byte   Cs6
 .byte   W06
 .byte   PEND 
@  #11 @024   ----------------------------------------
Label_0115EB38:
 .byte   N72 ,Ds6 ,v016
 .byte   W72
 .byte   N12
 .byte   W12
 .byte   N06 ,Bn5 ,v012
 .byte   W06
 .byte   N12 ,Gs5
 .byte   W06
 .byte   PEND 
@  #11 @025   ----------------------------------------
Label_0115EB46:
 .byte   W06
 .byte   N18 ,Fs5 ,v012
 .byte   W18
 .byte   N08 ,Gs5 ,v016
 .byte   W54
 .byte   N06 ,Cs5 ,v008
 .byte   W06
 .byte   En5
 .byte   W06
 .byte   Bn5 ,v012
 .byte   W06
 .byte   PEND 
@  #11 @026   ----------------------------------------
Label_0115EB59:
 .byte   N72 ,Cs6 ,v016
 .byte   W72
 .byte   N12
 .byte   W12
 .byte   N06 ,Bn5 ,v004
 .byte   W06
 .byte   N12 ,Bn5 ,v012
 .byte   W06
 .byte   PEND 
@  #11 @027   ----------------------------------------
Label_0115EB68:
 .byte   W06
 .byte   N06 ,An5 ,v008
 .byte   W06
 .byte   N12 ,An5 ,v012
 .byte   W12
 .byte   N08 ,Gs5 ,v016
 .byte   W54
 .byte   N06 ,Fs5 ,v008
 .byte   W06
 .byte   Gs5
 .byte   W06
 .byte   Cs6 ,v012
 .byte   W06
 .byte   PEND 
@  #11 @028   ----------------------------------------
Label_0115EB7F:
 .byte   N48 ,Ds6 ,v016
 .byte   W48
 .byte   N24
 .byte   W24
 .byte   N12
 .byte   W12
 .byte   N06 ,Bn5 ,v012
 .byte   W06
 .byte   N12 ,Gs5
 .byte   W06
 .byte   PEND 
@  #11 @029   ----------------------------------------
Label_0115EB8F:
 .byte   W06
 .byte   N18 ,Fs5 ,v012
 .byte   W18
 .byte   N08 ,Gs5 ,v016
 .byte   W30
 .byte   N18 ,Cs5 ,v008
 .byte   W18
 .byte   N12 ,En5
 .byte   W06
 .byte   BEND , c_v+6
 .byte   W01
 .byte   BEND , c_v+19
 .byte   W01
 .byte   BEND , c_v+32
 .byte   W01
 .byte   BEND , c_v+44
 .byte   W01
 .byte   BEND , c_v+57
 .byte   W01
 .byte   BEND , c_v+63
 .byte   W01
 .byte   BEND , c_v-60
 .byte   N12 ,Bn5 ,v012
 .byte   W01
 .byte   BEND , c_v-51
 .byte   W01
 .byte   BEND , c_v-42
 .byte   W01
 .byte   BEND , c_v-32
 .byte   W01
 .byte   BEND , c_v-23
 .byte   W01
 .byte   BEND , c_v-14
 .byte   W01
 .byte   BEND , c_v-5
 .byte   W01
 .byte   BEND , c_v+0
 .byte   W05
 .byte   PEND 
@  #11 @030   ----------------------------------------
Label_0115EBC1:
 .byte   N48 ,Cs6 ,v016
 .byte   W48
 .byte   N12
 .byte   W12
 .byte   N24 ,Bn5
 .byte   W24
 .byte   N06 ,An5 ,v012
 .byte   W06
 .byte   An5 ,v008
 .byte   W06
 .byte   PEND 
@  #11 @031   ----------------------------------------
Label_0115EBD2:
 .byte   N12 ,An5 ,v012
 .byte   W12
 .byte   Gs5 ,v008
 .byte   W12
 .byte   N24 ,Gs5 ,v012
 .byte   W54
 .byte   N06 ,Fs5 ,v008
 .byte   W06
 .byte   Gs5
 .byte   W06
 .byte   Cs6 ,v012
 .byte   W06
 .byte   PEND 
@  #11 @032   ----------------------------------------
 .byte   PATT
  .word Label_0115EB38
@  #11 @033   ----------------------------------------
 .byte   PATT
  .word Label_0115EB46
@  #11 @034   ----------------------------------------
Label_0115EBF1:
 .byte   N48 ,Cs6 ,v016
 .byte   W48
 .byte   N24
 .byte   W24
 .byte   N12
 .byte   W12
 .byte   N06 ,Bn5 ,v008
 .byte   W06
 .byte   N12 ,Bn5 ,v012
 .byte   W06
 .byte   PEND 
@  #11 @035   ----------------------------------------
Label_0115EC02:
 .byte   W06
 .byte   N06 ,An5 ,v008
 .byte   W06
 .byte   N12 ,An5 ,v012
 .byte   W12
 .byte   N08 ,Gs5 ,v016
 .byte   W36
 .byte   N12 ,Fs5 ,v008
 .byte   W12
 .byte   Gs5
 .byte   W12
 .byte   Cs6 ,v012
 .byte   W12
 .byte   PEND 
@  #11 @036   ----------------------------------------
Label_0115EC19:
 .byte   N48 ,Ds6 ,v016
 .byte   W48
 .byte   N24
 .byte   W24
 .byte   N12
 .byte   W12
 .byte   N06 ,Bn5 ,v012
 .byte   W06
 .byte   Gs5
 .byte   W06
 .byte   PEND 
@  #11 @037   ----------------------------------------
Label_0115EC28:
 .byte   W06
 .byte   N18 ,Fs5 ,v012
 .byte   W18
 .byte   N08 ,Gs5 ,v016
 .byte   W48
 .byte   N12 ,Cs5 ,v008
 .byte   W12
 .byte   En5 ,v012
 .byte   W12
 .byte   PEND 
@  #11 @038   ----------------------------------------
Label_0115EC39:
 .byte   N12 ,Bn5 ,v016
 .byte   W12
 .byte   N36 ,An5 ,v012
 .byte   W36
 .byte   N12 ,An5 ,v016
 .byte   W12
 .byte   N24 ,Gs5
 .byte   W24
 .byte   N12 ,Gs5 ,v008
 .byte   W12
 .byte   PEND 
@  #11 @039   ----------------------------------------
Label_0115EC4D:
 .byte   N12 ,Gs5 ,v016
 .byte   W12
 .byte   N06 ,An5 ,v008
 .byte   W06
 .byte   Gs5
 .byte   W06
 .byte   N24 ,Fs5 ,v016
 .byte   W36
 .byte   En5
 .byte   W24
 .byte   N12 ,Ds5 ,v012
 .byte   W12
 .byte   PEND 
@  #11 @040   ----------------------------------------
Label_0115EC62:
 .byte   VOL , 46*song07_mvl/mxv
 .byte   TIE ,Ds5 ,v016
 .byte   W03
 .byte   VOL , 45*song07_mvl/mxv
 .byte   W04
 .byte   VOL , 44*song07_mvl/mxv
 .byte   W04
 .byte   VOL , 44*song07_mvl/mxv
 .byte   W04
 .byte   VOL , 44*song07_mvl/mxv
 .byte   W04
 .byte   VOL , 44*song07_mvl/mxv
 .byte   W04
 .byte   VOL , 44*song07_mvl/mxv
 .byte   W04
 .byte   VOL , 44*song07_mvl/mxv
 .byte   W04
 .byte   VOL , 43*song07_mvl/mxv
 .byte   W04
 .byte   VOL , 42*song07_mvl/mxv
 .byte   W04
 .byte   VOL , 42*song07_mvl/mxv
 .byte   W04
 .byte   VOL , 41*song07_mvl/mxv
 .byte   W04
 .byte   VOL , 41*song07_mvl/mxv
 .byte   W04
 .byte   VOL , 41*song07_mvl/mxv
 .byte   W04
 .byte   VOL , 41*song07_mvl/mxv
 .byte   W04
 .byte   VOL , 41*song07_mvl/mxv
 .byte   W04
 .byte   VOL , 41*song07_mvl/mxv
 .byte   W04
 .byte   VOL , 40*song07_mvl/mxv
 .byte   W04
 .byte   VOL , 39*song07_mvl/mxv
 .byte   W04
 .byte   VOL , 39*song07_mvl/mxv
 .byte   W04
 .byte   VOL , 39*song07_mvl/mxv
 .byte   W04
 .byte   VOL , 39*song07_mvl/mxv
 .byte   W04
 .byte   VOL , 39*song07_mvl/mxv
 .byte   W04
 .byte   VOL , 38*song07_mvl/mxv
 .byte   W04
 .byte   VOL , 38*song07_mvl/mxv
 .byte   W01
 .byte   PEND 
@  #11 @041   ----------------------------------------
Label_0115EC9A:
 .byte   W02
 .byte   VOL , 38*song07_mvl/mxv
 .byte   W04
 .byte   VOL , 37*song07_mvl/mxv
 .byte   W04
 .byte   VOL , 37*song07_mvl/mxv
 .byte   W04
 .byte   VOL , 37*song07_mvl/mxv
 .byte   W04
 .byte   VOL , 37*song07_mvl/mxv
 .byte   W04
 .byte   VOL , 37*song07_mvl/mxv
 .byte   W04
 .byte   VOL , 37*song07_mvl/mxv
 .byte   W04
 .byte   VOL , 36*song07_mvl/mxv
 .byte   W04
 .byte   VOL , 36*song07_mvl/mxv
 .byte   W04
 .byte   VOL , 36*song07_mvl/mxv
 .byte   W04
 .byte   VOL , 35*song07_mvl/mxv
 .byte   W04
 .byte   VOL , 35*song07_mvl/mxv
 .byte   W04
 .byte   VOL , 35*song07_mvl/mxv
 .byte   W04
 .byte   VOL , 35*song07_mvl/mxv
 .byte   W04
 .byte   VOL , 35*song07_mvl/mxv
 .byte   W04
 .byte   VOL , 34*song07_mvl/mxv
 .byte   W04
 .byte   VOL , 34*song07_mvl/mxv
 .byte   W04
 .byte   VOL , 34*song07_mvl/mxv
 .byte   W04
 .byte   VOL , 34*song07_mvl/mxv
 .byte   W04
 .byte   VOL , 34*song07_mvl/mxv
 .byte   W04
 .byte   VOL , 33*song07_mvl/mxv
 .byte   W04
 .byte   VOL , 33*song07_mvl/mxv
 .byte   W04
 .byte   VOL , 33*song07_mvl/mxv
 .byte   W04
 .byte   VOL , 33*song07_mvl/mxv
 .byte   W02
 .byte   PEND 
@  #11 @042   ----------------------------------------
Label_0115ECCD:
 .byte   W01
 .byte   VOL , 32*song07_mvl/mxv
 .byte   W04
 .byte   VOL , 32*song07_mvl/mxv
 .byte   W04
 .byte   VOL , 32*song07_mvl/mxv
 .byte   W04
 .byte   VOL , 32*song07_mvl/mxv
 .byte   W04
 .byte   VOL , 32*song07_mvl/mxv
 .byte   W04
 .byte   VOL , 32*song07_mvl/mxv
 .byte   W04
 .byte   VOL , 32*song07_mvl/mxv
 .byte   W04
 .byte   VOL , 32*song07_mvl/mxv
 .byte   W04
 .byte   VOL , 32*song07_mvl/mxv
 .byte   W04
 .byte   VOL , 31*song07_mvl/mxv
 .byte   W04
 .byte   VOL , 31*song07_mvl/mxv
 .byte   W04
 .byte   VOL , 31*song07_mvl/mxv
 .byte   W04
 .byte   VOL , 31*song07_mvl/mxv
 .byte   W04
 .byte   VOL , 31*song07_mvl/mxv
 .byte   W04
 .byte   VOL , 31*song07_mvl/mxv
 .byte   W04
 .byte   VOL , 31*song07_mvl/mxv
 .byte   W04
 .byte   VOL , 31*song07_mvl/mxv
 .byte   W04
 .byte   VOL , 31*song07_mvl/mxv
 .byte   W04
 .byte   VOL , 31*song07_mvl/mxv
 .byte   W04
 .byte   VOL , 31*song07_mvl/mxv
 .byte   W04
 .byte   VOL , 31*song07_mvl/mxv
 .byte   W04
 .byte   VOL , 31*song07_mvl/mxv
 .byte   W04
 .byte   VOL , 31*song07_mvl/mxv
 .byte   W04
 .byte   VOL , 30*song07_mvl/mxv
 .byte   W03
 .byte   PEND 
@  #11 @043   ----------------------------------------
Label_0115ED00:
 .byte   VOL , 30*song07_mvl/mxv
 .byte   W04
 .byte   VOL , 30*song07_mvl/mxv
 .byte   W04
 .byte   VOL , 30*song07_mvl/mxv
 .byte   W04
 .byte   VOL , 30*song07_mvl/mxv
 .byte   W04
 .byte   VOL , 30*song07_mvl/mxv
 .byte   W04
 .byte   VOL , 29*song07_mvl/mxv
 .byte   W04
 .byte   VOL , 29*song07_mvl/mxv
 .byte   W04
 .byte   VOL , 29*song07_mvl/mxv
 .byte   W04
 .byte   VOL , 29*song07_mvl/mxv
 .byte   W04
 .byte   VOL , 29*song07_mvl/mxv
 .byte   W04
 .byte   VOL , 29*song07_mvl/mxv
 .byte   W04
 .byte   VOL , 29*song07_mvl/mxv
 .byte   W04
 .byte   PEND 
 .byte   EOT
 .byte   Ds5
 .byte   VOL , 29*song07_mvl/mxv
 .byte   N04 ,Ds5 ,v016
 .byte   W04
 .byte   VOL , 29*song07_mvl/mxv
 .byte   W04
 .byte   VOL , 29*song07_mvl/mxv
 .byte   W04
 .byte   VOL , 29*song07_mvl/mxv
 .byte   W04
 .byte   VOL , 29*song07_mvl/mxv
 .byte   W04
 .byte   VOL , 29*song07_mvl/mxv
 .byte   W04
 .byte   VOL , 29*song07_mvl/mxv
 .byte   W04
 .byte   VOL , 29*song07_mvl/mxv
 .byte   W04
 .byte   VOL , 29*song07_mvl/mxv
 .byte   W04
 .byte   VOL , 29*song07_mvl/mxv
 .byte   W04
 .byte   VOL , 29*song07_mvl/mxv
 .byte   W04
 .byte   VOL , 29*song07_mvl/mxv
 .byte   W04
@  #11 @044   ----------------------------------------
 .byte   VOL , 29*song07_mvl/mxv
 .byte   W96
@  #11 @045   ----------------------------------------
 .byte   W96
@  #11 @046   ----------------------------------------
 .byte   W96
@  #11 @047   ----------------------------------------
 .byte   W96
@  #11 @048   ----------------------------------------
 .byte   W96
@  #11 @049   ----------------------------------------
 .byte   W96
@  #11 @050   ----------------------------------------
 .byte   W96
@  #11 @051   ----------------------------------------
 .byte   W96
@  #11 @052   ----------------------------------------
 .byte   W96
@  #11 @053   ----------------------------------------
 .byte   W96
@  #11 @054   ----------------------------------------
 .byte   W96
@  #11 @055   ----------------------------------------
 .byte   W96
@  #11 @056   ----------------------------------------
 .byte   W96
@  #11 @057   ----------------------------------------
 .byte   W96
@  #11 @058   ----------------------------------------
 .byte   W96
@  #11 @059   ----------------------------------------
 .byte   W96
@  #11 @060   ----------------------------------------
 .byte   VOL , 46*song07_mvl/mxv
 .byte   W96
@  #11 @061   ----------------------------------------
 .byte   W96
@  #11 @062   ----------------------------------------
 .byte   W24
 .byte   GOTO
  .word Label_0115EB23
@  #11 @063   ----------------------------------------
 .byte   W72
 .byte   W96
@  #11 @064   ----------------------------------------
 .byte   W96
@  #11 @065   ----------------------------------------
 .byte   W96
@  #11 @066   ----------------------------------------
 .byte   W96
@  #11 @067   ----------------------------------------
 .byte   W96
@  #11 @068   ----------------------------------------
 .byte   W96
@  #11 @069   ----------------------------------------
 .byte   W96
@  #11 @070   ----------------------------------------
 .byte   W96
@  #11 @071   ----------------------------------------
 .byte   W96
@  #11 @072   ----------------------------------------
 .byte   W96
@  #11 @073   ----------------------------------------
 .byte   W96
@  #11 @074   ----------------------------------------
 .byte   W96
@  #11 @075   ----------------------------------------
 .byte   PATT
  .word Label_0115EB30
@  #11 @076   ----------------------------------------
 .byte   PATT
  .word Label_0115EB38
@  #11 @077   ----------------------------------------
 .byte   PATT
  .word Label_0115EB46
@  #11 @078   ----------------------------------------
 .byte   PATT
  .word Label_0115EB59
@  #11 @079   ----------------------------------------
 .byte   PATT
  .word Label_0115EB68
@  #11 @080   ----------------------------------------
 .byte   PATT
  .word Label_0115EB7F
@  #11 @081   ----------------------------------------
 .byte   PATT
  .word Label_0115EB8F
@  #11 @082   ----------------------------------------
 .byte   PATT
  .word Label_0115EBC1
@  #11 @083   ----------------------------------------
 .byte   PATT
  .word Label_0115EBD2
@  #11 @084   ----------------------------------------
 .byte   PATT
  .word Label_0115EB38
@  #11 @085   ----------------------------------------
 .byte   PATT
  .word Label_0115EB46
@  #11 @086   ----------------------------------------
 .byte   PATT
  .word Label_0115EBF1
@  #11 @087   ----------------------------------------
 .byte   PATT
  .word Label_0115EC02
@  #11 @088   ----------------------------------------
 .byte   PATT
  .word Label_0115EC19
@  #11 @089   ----------------------------------------
 .byte   PATT
  .word Label_0115EC28
@  #11 @090   ----------------------------------------
 .byte   PATT
  .word Label_0115EC39
@  #11 @091   ----------------------------------------
 .byte   PATT
  .word Label_0115EC4D
@  #11 @092   ----------------------------------------
 .byte   PATT
  .word Label_0115EC62
@  #11 @093   ----------------------------------------
 .byte   PATT
  .word Label_0115EC9A
@  #11 @094   ----------------------------------------
 .byte   PATT
  .word Label_0115ECCD
@  #11 @095   ----------------------------------------
 .byte   PATT
  .word Label_0115ED00
@  #11 @096   ----------------------------------------
 .byte   EOT
 .byte   Ds5
 .byte   VOL , 29*song07_mvl/mxv
 .byte   N04 ,Ds5 ,v016
 .byte   W04
 .byte   VOL , 29*song07_mvl/mxv
 .byte   W04
 .byte   VOL , 29*song07_mvl/mxv
 .byte   W04
 .byte   VOL , 29*song07_mvl/mxv
 .byte   W04
 .byte   VOL , 29*song07_mvl/mxv
 .byte   W04
 .byte   VOL , 29*song07_mvl/mxv
 .byte   W04
 .byte   VOL , 29*song07_mvl/mxv
 .byte   W04
 .byte   VOL , 29*song07_mvl/mxv
 .byte   W04
 .byte   VOL , 29*song07_mvl/mxv
 .byte   W04
 .byte   VOL , 29*song07_mvl/mxv
 .byte   W04
 .byte   VOL , 29*song07_mvl/mxv
 .byte   W04
 .byte   VOL , 29*song07_mvl/mxv
 .byte   W04
 .byte   VOL , 29*song07_mvl/mxv
 .byte   W96
@  #11 @097   ----------------------------------------
 .byte   W96
@  #11 @098   ----------------------------------------
 .byte   W96
@  #11 @099   ----------------------------------------
 .byte   W96
@  #11 @100   ----------------------------------------
 .byte   W96
@  #11 @101   ----------------------------------------
 .byte   W96
@  #11 @102   ----------------------------------------
 .byte   W96
@  #11 @103   ----------------------------------------
 .byte   W96
 .byte   FINE

@**************** Track 12 (Midi-Chn.11) ****************@

song07_012:
@  #12 @000   ----------------------------------------
 .byte   KEYSH , song07_key+0
 .byte   VOICE , 90
 .byte   MODT 0
 .byte   LFOS 44
 .byte   MODT 0
 .byte   LFOS 44
 .byte   MODT 0
 .byte   LFOS 44
 .byte   VOL , 46*song07_mvl/mxv
 .byte   PAN , c_v+0
 .byte   BEND , c_v+0
 .byte   W96
@  #12 @001   ----------------------------------------
 .byte   W96
@  #12 @002   ----------------------------------------
 .byte   W96
@  #12 @003   ----------------------------------------
 .byte   W96
@  #12 @004   ----------------------------------------
 .byte   W96
@  #12 @005   ----------------------------------------
 .byte   W96
@  #12 @006   ----------------------------------------
 .byte   W96
@  #12 @007   ----------------------------------------
 .byte   W96
@  #12 @008   ----------------------------------------
 .byte   VOL , 46*song07_mvl/mxv
 .byte   W96
@  #12 @009   ----------------------------------------
 .byte   W96
@  #12 @010   ----------------------------------------
 .byte   W24
Label_0115EF23:
 .byte   W72
@  #12 @011   ----------------------------------------
 .byte   W96
@  #12 @012   ----------------------------------------
 .byte   W96
@  #12 @013   ----------------------------------------
 .byte   W96
@  #12 @014   ----------------------------------------
 .byte   W96
@  #12 @015   ----------------------------------------
 .byte   W96
@  #12 @016   ----------------------------------------
 .byte   W96
@  #12 @017   ----------------------------------------
 .byte   W96
@  #12 @018   ----------------------------------------
 .byte   W96
@  #12 @019   ----------------------------------------
 .byte   W96
@  #12 @020   ----------------------------------------
 .byte   W96
@  #12 @021   ----------------------------------------
 .byte   W96
@  #12 @022   ----------------------------------------
 .byte   W96
@  #12 @023   ----------------------------------------
Label_0115EF30:
 .byte   W84
 .byte   N06 ,En4 ,v016
 .byte   W06
 .byte   Cs4
 .byte   W06
 .byte   PEND 
@  #12 @024   ----------------------------------------
Label_0115EF38:
 .byte   N72 ,Ds4 ,v016
 .byte   W72
 .byte   N12
 .byte   W12
 .byte   N06 ,Bn3
 .byte   W06
 .byte   N12 ,Gs3
 .byte   W06
 .byte   PEND 
@  #12 @025   ----------------------------------------
Label_0115EF45:
 .byte   W06
 .byte   N18 ,Fs3 ,v012
 .byte   W18
 .byte   N08 ,Gs3 ,v024
 .byte   W54
 .byte   N06 ,Cs3 ,v008
 .byte   W06
 .byte   En3
 .byte   W06
 .byte   Bn3 ,v012
 .byte   W06
 .byte   PEND 
@  #12 @026   ----------------------------------------
Label_0115EF58:
 .byte   N72 ,Cs4 ,v016
 .byte   W72
 .byte   N12
 .byte   W12
 .byte   N06 ,Bn3 ,v004
 .byte   W06
 .byte   N12 ,Bn3 ,v016
 .byte   W06
 .byte   PEND 
@  #12 @027   ----------------------------------------
Label_0115EF67:
 .byte   W06
 .byte   N06 ,An3 ,v004
 .byte   W06
 .byte   N12 ,An3 ,v012
 .byte   W12
 .byte   N08 ,Gs3 ,v024
 .byte   W54
 .byte   N06 ,Fs3 ,v008
 .byte   W06
 .byte   Gs3 ,v012
 .byte   W06
 .byte   Cs4 ,v016
 .byte   W06
 .byte   PEND 
@  #12 @028   ----------------------------------------
Label_0115EF7F:
 .byte   N48 ,Ds4 ,v016
 .byte   W48
 .byte   N24
 .byte   W24
 .byte   N12
 .byte   W12
 .byte   N06 ,Bn3
 .byte   W06
 .byte   N12 ,Gs3
 .byte   W06
 .byte   PEND 
@  #12 @029   ----------------------------------------
Label_0115EF8E:
 .byte   W06
 .byte   N18 ,Fs3 ,v012
 .byte   W18
 .byte   N08 ,Gs3 ,v024
 .byte   W30
 .byte   N18 ,Cs3 ,v008
 .byte   W18
 .byte   N12 ,En3
 .byte   W06
 .byte   BEND , c_v+8
 .byte   W01
 .byte   BEND , c_v+22
 .byte   W01
 .byte   BEND , c_v+36
 .byte   W01
 .byte   BEND , c_v+50
 .byte   W01
 .byte   BEND , c_v+63
 .byte   W02
 .byte   BEND , c_v-60
 .byte   N12 ,Bn3 ,v012
 .byte   W01
 .byte   BEND , c_v-48
 .byte   W01
 .byte   BEND , c_v-36
 .byte   W01
 .byte   BEND , c_v-24
 .byte   W01
 .byte   BEND , c_v-12
 .byte   W01
 .byte   BEND , c_v+0
 .byte   W07
 .byte   PEND 
@  #12 @030   ----------------------------------------
Label_0115EFBA:
 .byte   N48 ,Cs4 ,v016
 .byte   W48
 .byte   N12
 .byte   W12
 .byte   N24 ,Bn3
 .byte   W24
 .byte   N06 ,An3
 .byte   W06
 .byte   An3 ,v008
 .byte   W06
 .byte   PEND 
@  #12 @031   ----------------------------------------
Label_0115EFCA:
 .byte   N12 ,An3 ,v016
 .byte   W12
 .byte   Gs3 ,v008
 .byte   W12
 .byte   N22
 .byte   W54
 .byte   N06 ,Fs3
 .byte   W06
 .byte   Gs3 ,v012
 .byte   W06
 .byte   Cs4 ,v016
 .byte   W06
 .byte   PEND 
@  #12 @032   ----------------------------------------
 .byte   PATT
  .word Label_0115EF38
@  #12 @033   ----------------------------------------
 .byte   PATT
  .word Label_0115EF45
@  #12 @034   ----------------------------------------
Label_0115EFE7:
 .byte   N48 ,Cs4 ,v016
 .byte   W48
 .byte   N24
 .byte   W24
 .byte   N12
 .byte   W12
 .byte   N06 ,Bn3 ,v008
 .byte   W06
 .byte   N12 ,Bn3 ,v016
 .byte   W06
 .byte   PEND 
@  #12 @035   ----------------------------------------
Label_0115EFF8:
 .byte   W06
 .byte   N06 ,An3 ,v004
 .byte   W06
 .byte   N12 ,An3 ,v012
 .byte   W12
 .byte   N08 ,Gs3 ,v024
 .byte   W36
 .byte   N12 ,Fs3 ,v008
 .byte   W12
 .byte   Gs3 ,v012
 .byte   W12
 .byte   Cs4 ,v016
 .byte   W12
 .byte   PEND 
@  #12 @036   ----------------------------------------
Label_0115F010:
 .byte   N48 ,Ds4 ,v016
 .byte   W48
 .byte   N24
 .byte   W24
 .byte   N12
 .byte   W12
 .byte   N06 ,Bn3
 .byte   W06
 .byte   Gs3
 .byte   W06
 .byte   PEND 
@  #12 @037   ----------------------------------------
Label_0115F01E:
 .byte   W06
 .byte   N18 ,Fs3 ,v012
 .byte   W18
 .byte   N08 ,Gs3 ,v024
 .byte   W48
 .byte   N12 ,Cs3 ,v008
 .byte   W12
 .byte   En3 ,v012
 .byte   W12
 .byte   PEND 
@  #12 @038   ----------------------------------------
Label_0115F02F:
 .byte   N12 ,Bn3 ,v016
 .byte   W12
 .byte   N36 ,An3 ,v012
 .byte   W36
 .byte   N12 ,An3 ,v016
 .byte   W12
 .byte   N24 ,Gs3
 .byte   W24
 .byte   N12 ,Gs3 ,v008
 .byte   W12
 .byte   PEND 
@  #12 @039   ----------------------------------------
Label_0115F043:
 .byte   N12 ,Gs3 ,v016
 .byte   W12
 .byte   N06 ,An3 ,v008
 .byte   W06
 .byte   Gs3
 .byte   W06
 .byte   N24 ,Fs3 ,v024
 .byte   W36
 .byte   En3
 .byte   W24
 .byte   N12 ,Ds3 ,v016
 .byte   W12
 .byte   PEND 
@  #12 @040   ----------------------------------------
Label_0115F058:
 .byte   VOL , 46*song07_mvl/mxv
 .byte   TIE ,Cs2 ,v068
 .byte   TIE ,Gs2
 .byte   TIE ,Ds3 ,v024
 .byte   W03
 .byte   VOL , 45*song07_mvl/mxv
 .byte   W04
 .byte   VOL , 44*song07_mvl/mxv
 .byte   W04
 .byte   VOL , 44*song07_mvl/mxv
 .byte   W04
 .byte   VOL , 44*song07_mvl/mxv
 .byte   W04
 .byte   VOL , 44*song07_mvl/mxv
 .byte   W04
 .byte   VOL , 44*song07_mvl/mxv
 .byte   W04
 .byte   VOL , 44*song07_mvl/mxv
 .byte   W04
 .byte   VOL , 43*song07_mvl/mxv
 .byte   W04
 .byte   VOL , 42*song07_mvl/mxv
 .byte   W04
 .byte   VOL , 42*song07_mvl/mxv
 .byte   W04
 .byte   VOL , 41*song07_mvl/mxv
 .byte   W04
 .byte   VOL , 41*song07_mvl/mxv
 .byte   W04
 .byte   VOL , 41*song07_mvl/mxv
 .byte   W04
 .byte   VOL , 41*song07_mvl/mxv
 .byte   W04
 .byte   VOL , 41*song07_mvl/mxv
 .byte   W04
 .byte   VOL , 41*song07_mvl/mxv
 .byte   W04
 .byte   VOL , 40*song07_mvl/mxv
 .byte   W04
 .byte   VOL , 39*song07_mvl/mxv
 .byte   W04
 .byte   VOL , 39*song07_mvl/mxv
 .byte   W04
 .byte   VOL , 39*song07_mvl/mxv
 .byte   W04
 .byte   VOL , 39*song07_mvl/mxv
 .byte   W04
 .byte   VOL , 39*song07_mvl/mxv
 .byte   W04
 .byte   VOL , 38*song07_mvl/mxv
 .byte   W04
 .byte   VOL , 38*song07_mvl/mxv
 .byte   W01
 .byte   PEND 
@  #12 @041   ----------------------------------------
Label_0115F095:
 .byte   W02
 .byte   VOL , 38*song07_mvl/mxv
 .byte   W04
 .byte   VOL , 37*song07_mvl/mxv
 .byte   W04
 .byte   VOL , 37*song07_mvl/mxv
 .byte   W04
 .byte   VOL , 37*song07_mvl/mxv
 .byte   W04
 .byte   VOL , 37*song07_mvl/mxv
 .byte   W04
 .byte   VOL , 37*song07_mvl/mxv
 .byte   W04
 .byte   VOL , 37*song07_mvl/mxv
 .byte   W04
 .byte   VOL , 36*song07_mvl/mxv
 .byte   W04
 .byte   VOL , 36*song07_mvl/mxv
 .byte   W04
 .byte   VOL , 36*song07_mvl/mxv
 .byte   W04
 .byte   VOL , 35*song07_mvl/mxv
 .byte   W04
 .byte   VOL , 35*song07_mvl/mxv
 .byte   W04
 .byte   VOL , 35*song07_mvl/mxv
 .byte   W04
 .byte   VOL , 35*song07_mvl/mxv
 .byte   W04
 .byte   VOL , 35*song07_mvl/mxv
 .byte   W04
 .byte   VOL , 34*song07_mvl/mxv
 .byte   W04
 .byte   VOL , 34*song07_mvl/mxv
 .byte   W04
 .byte   VOL , 34*song07_mvl/mxv
 .byte   W04
 .byte   VOL , 34*song07_mvl/mxv
 .byte   W04
 .byte   VOL , 34*song07_mvl/mxv
 .byte   W04
 .byte   VOL , 33*song07_mvl/mxv
 .byte   W04
 .byte   VOL , 33*song07_mvl/mxv
 .byte   W04
 .byte   VOL , 33*song07_mvl/mxv
 .byte   W04
 .byte   VOL , 33*song07_mvl/mxv
 .byte   W02
 .byte   PEND 
@  #12 @042   ----------------------------------------
Label_0115F0C8:
 .byte   W01
 .byte   VOL , 32*song07_mvl/mxv
 .byte   W04
 .byte   VOL , 32*song07_mvl/mxv
 .byte   W04
 .byte   VOL , 32*song07_mvl/mxv
 .byte   W04
 .byte   VOL , 32*song07_mvl/mxv
 .byte   W04
 .byte   VOL , 32*song07_mvl/mxv
 .byte   W04
 .byte   VOL , 32*song07_mvl/mxv
 .byte   W04
 .byte   VOL , 32*song07_mvl/mxv
 .byte   W04
 .byte   VOL , 32*song07_mvl/mxv
 .byte   W04
 .byte   VOL , 32*song07_mvl/mxv
 .byte   W04
 .byte   VOL , 31*song07_mvl/mxv
 .byte   W04
 .byte   VOL , 31*song07_mvl/mxv
 .byte   W04
 .byte   VOL , 31*song07_mvl/mxv
 .byte   W04
 .byte   VOL , 31*song07_mvl/mxv
 .byte   W04
 .byte   VOL , 31*song07_mvl/mxv
 .byte   W04
 .byte   VOL , 31*song07_mvl/mxv
 .byte   W04
 .byte   VOL , 31*song07_mvl/mxv
 .byte   W04
 .byte   VOL , 31*song07_mvl/mxv
 .byte   W04
 .byte   VOL , 31*song07_mvl/mxv
 .byte   W04
 .byte   VOL , 31*song07_mvl/mxv
 .byte   W04
 .byte   VOL , 31*song07_mvl/mxv
 .byte   W04
 .byte   VOL , 31*song07_mvl/mxv
 .byte   W04
 .byte   VOL , 31*song07_mvl/mxv
 .byte   W04
 .byte   VOL , 31*song07_mvl/mxv
 .byte   W04
 .byte   VOL , 30*song07_mvl/mxv
 .byte   W03
 .byte   PEND 
@  #12 @043   ----------------------------------------
Label_0115F0FB:
 .byte   VOL , 30*song07_mvl/mxv
 .byte   W04
 .byte   VOL , 30*song07_mvl/mxv
 .byte   W04
 .byte   VOL , 30*song07_mvl/mxv
 .byte   W04
 .byte   VOL , 30*song07_mvl/mxv
 .byte   W04
 .byte   VOL , 30*song07_mvl/mxv
 .byte   W04
 .byte   VOL , 29*song07_mvl/mxv
 .byte   W04
 .byte   VOL , 29*song07_mvl/mxv
 .byte   W04
 .byte   VOL , 29*song07_mvl/mxv
 .byte   W04
 .byte   VOL , 29*song07_mvl/mxv
 .byte   W04
 .byte   VOL , 29*song07_mvl/mxv
 .byte   W04
 .byte   VOL , 29*song07_mvl/mxv
 .byte   W04
 .byte   VOL , 29*song07_mvl/mxv
 .byte   W04
 .byte   PEND 
 .byte   EOT
 .byte   Cs2 ,v056
 .byte   Ds3
 .byte   VOL , 29*song07_mvl/mxv
 .byte   N04 ,Cs2 ,v016
 .byte   N04 ,Ds3
 .byte   W04
 .byte   VOL , 29*song07_mvl/mxv
 .byte   W04
 .byte   VOL , 29*song07_mvl/mxv
 .byte   W04
 .byte   VOL , 29*song07_mvl/mxv
 .byte   W04
 .byte   VOL , 29*song07_mvl/mxv
 .byte   W04
 .byte   VOL , 29*song07_mvl/mxv
 .byte   W04
 .byte   VOL , 29*song07_mvl/mxv
 .byte   W04
 .byte   VOL , 29*song07_mvl/mxv
 .byte   W04
 .byte   VOL , 29*song07_mvl/mxv
 .byte   W04
 .byte   VOL , 29*song07_mvl/mxv
 .byte   W04
 .byte   VOL , 29*song07_mvl/mxv
 .byte   W04
 .byte   VOL , 29*song07_mvl/mxv
 .byte   W04
@  #12 @044   ----------------------------------------
 .byte   VOL , 29*song07_mvl/mxv
 .byte   W96
@  #12 @045   ----------------------------------------
 .byte   W96
@  #12 @046   ----------------------------------------
 .byte   W96
@  #12 @047   ----------------------------------------
 .byte   W96
@  #12 @048   ----------------------------------------
 .byte   W96
@  #12 @049   ----------------------------------------
 .byte   W96
@  #12 @050   ----------------------------------------
 .byte   W96
@  #12 @051   ----------------------------------------
 .byte   W96
@  #12 @052   ----------------------------------------
 .byte   W96
@  #12 @053   ----------------------------------------
 .byte   W96
@  #12 @054   ----------------------------------------
 .byte   W96
@  #12 @055   ----------------------------------------
 .byte   W96
@  #12 @056   ----------------------------------------
 .byte   W96
@  #12 @057   ----------------------------------------
 .byte   W96
@  #12 @058   ----------------------------------------
 .byte   W96
@  #12 @059   ----------------------------------------
 .byte   W96
@  #12 @060   ----------------------------------------
 .byte   VOL , 46*song07_mvl/mxv
 .byte   W96
@  #12 @061   ----------------------------------------
 .byte   W96
@  #12 @062   ----------------------------------------
 .byte   W24
 .byte   GOTO
  .word Label_0115EF23
@  #12 @063   ----------------------------------------
 .byte   W72
 .byte   W96
@  #12 @064   ----------------------------------------
 .byte   W96
@  #12 @065   ----------------------------------------
 .byte   W96
@  #12 @066   ----------------------------------------
 .byte   W96
@  #12 @067   ----------------------------------------
 .byte   W96
@  #12 @068   ----------------------------------------
 .byte   W96
@  #12 @069   ----------------------------------------
 .byte   W96
@  #12 @070   ----------------------------------------
 .byte   W96
@  #12 @071   ----------------------------------------
 .byte   W96
@  #12 @072   ----------------------------------------
 .byte   W96
@  #12 @073   ----------------------------------------
 .byte   W96
@  #12 @074   ----------------------------------------
 .byte   W96
@  #12 @075   ----------------------------------------
 .byte   PATT
  .word Label_0115EF30
@  #12 @076   ----------------------------------------
 .byte   PATT
  .word Label_0115EF38
@  #12 @077   ----------------------------------------
 .byte   PATT
  .word Label_0115EF45
@  #12 @078   ----------------------------------------
 .byte   PATT
  .word Label_0115EF58
@  #12 @079   ----------------------------------------
 .byte   PATT
  .word Label_0115EF67
@  #12 @080   ----------------------------------------
 .byte   PATT
  .word Label_0115EF7F
@  #12 @081   ----------------------------------------
 .byte   PATT
  .word Label_0115EF8E
@  #12 @082   ----------------------------------------
 .byte   PATT
  .word Label_0115EFBA
@  #12 @083   ----------------------------------------
 .byte   PATT
  .word Label_0115EFCA
@  #12 @084   ----------------------------------------
 .byte   PATT
  .word Label_0115EF38
@  #12 @085   ----------------------------------------
 .byte   PATT
  .word Label_0115EF45
@  #12 @086   ----------------------------------------
 .byte   PATT
  .word Label_0115EFE7
@  #12 @087   ----------------------------------------
 .byte   PATT
  .word Label_0115EFF8
@  #12 @088   ----------------------------------------
 .byte   PATT
  .word Label_0115F010
@  #12 @089   ----------------------------------------
 .byte   PATT
  .word Label_0115F01E
@  #12 @090   ----------------------------------------
 .byte   PATT
  .word Label_0115F02F
@  #12 @091   ----------------------------------------
 .byte   PATT
  .word Label_0115F043
@  #12 @092   ----------------------------------------
 .byte   PATT
  .word Label_0115F058
@  #12 @093   ----------------------------------------
 .byte   PATT
  .word Label_0115F095
@  #12 @094   ----------------------------------------
 .byte   PATT
  .word Label_0115F0C8
@  #12 @095   ----------------------------------------
 .byte   PATT
  .word Label_0115F0FB
@  #12 @096   ----------------------------------------
 .byte   EOT
 .byte   Cs2 ,v056
 .byte   Ds3
 .byte   VOL , 29*song07_mvl/mxv
 .byte   N04 ,Cs2 ,v016
 .byte   N04 ,Ds3
 .byte   W04
 .byte   VOL , 29*song07_mvl/mxv
 .byte   W04
 .byte   VOL , 29*song07_mvl/mxv
 .byte   W04
 .byte   VOL , 29*song07_mvl/mxv
 .byte   W04
 .byte   VOL , 29*song07_mvl/mxv
 .byte   W04
 .byte   VOL , 29*song07_mvl/mxv
 .byte   W04
 .byte   VOL , 29*song07_mvl/mxv
 .byte   W04
 .byte   VOL , 29*song07_mvl/mxv
 .byte   W04
 .byte   VOL , 29*song07_mvl/mxv
 .byte   W04
 .byte   VOL , 29*song07_mvl/mxv
 .byte   W04
 .byte   VOL , 29*song07_mvl/mxv
 .byte   W04
 .byte   VOL , 29*song07_mvl/mxv
 .byte   W04
 .byte   VOL , 29*song07_mvl/mxv
 .byte   W96
@  #12 @097   ----------------------------------------
 .byte   W96
@  #12 @098   ----------------------------------------
 .byte   W96
@  #12 @099   ----------------------------------------
 .byte   W96
@  #12 @100   ----------------------------------------
 .byte   W96
@  #12 @101   ----------------------------------------
 .byte   W96
@  #12 @102   ----------------------------------------
 .byte   W96
@  #12 @103   ----------------------------------------
 .byte   W96
 .byte   FINE

@**************** Track 13 (Midi-Chn.12) ****************@

song07_013:
@  #13 @000   ----------------------------------------
 .byte   KEYSH , song07_key+0
 .byte   VOICE , 98
 .byte   MODT 0
 .byte   LFOS 44
 .byte   MODT 0
 .byte   LFOS 44
 .byte   MODT 0
 .byte   LFOS 44
 .byte   PAN , c_v+3
 .byte   VOL , 12*song07_mvl/mxv
 .byte   BEND , c_v+0
 .byte   W96
@  #13 @001   ----------------------------------------
 .byte   W96
@  #13 @002   ----------------------------------------
 .byte   W96
@  #13 @003   ----------------------------------------
 .byte   W96
@  #13 @004   ----------------------------------------
 .byte   W96
@  #13 @005   ----------------------------------------
 .byte   W96
@  #13 @006   ----------------------------------------
 .byte   W96
@  #13 @007   ----------------------------------------
 .byte   W96
@  #13 @008   ----------------------------------------
 .byte   W96
@  #13 @009   ----------------------------------------
 .byte   W96
@  #13 @010   ----------------------------------------
 .byte   W24
Label_0115F765:
 .byte   W72
@  #13 @011   ----------------------------------------
 .byte   W96
@  #13 @012   ----------------------------------------
 .byte   W96
@  #13 @013   ----------------------------------------
 .byte   W96
@  #13 @014   ----------------------------------------
 .byte   W96
@  #13 @015   ----------------------------------------
 .byte   W96
@  #13 @016   ----------------------------------------
 .byte   W96
@  #13 @017   ----------------------------------------
 .byte   W96
@  #13 @018   ----------------------------------------
 .byte   W96
@  #13 @019   ----------------------------------------
 .byte   W96
@  #13 @020   ----------------------------------------
 .byte   W96
@  #13 @021   ----------------------------------------
 .byte   W96
@  #13 @022   ----------------------------------------
 .byte   W96
@  #13 @023   ----------------------------------------
 .byte   W96
@  #13 @024   ----------------------------------------
Label_0115F773:
 .byte   W12
 .byte   N06 ,En5 ,v068
 .byte   W06
 .byte   Cs5
 .byte   W06
 .byte   N72 ,Ds5 ,v092
 .byte   W72
 .byte   PEND 
@  #13 @025   ----------------------------------------
Label_0115F77F:
 .byte   N12 ,Ds5 ,v092
 .byte   W12
 .byte   N06 ,Bn4 ,v068
 .byte   W06
 .byte   N12 ,Gs4
 .byte   W12
 .byte   N18 ,Fs4 ,v060
 .byte   W18
 .byte   N08 ,Gs4 ,v112
 .byte   W48
 .byte   PEND 
@  #13 @026   ----------------------------------------
Label_0115F793:
 .byte   W06
 .byte   N06 ,Cs4 ,v028
 .byte   W06
 .byte   En4 ,v036
 .byte   W06
 .byte   Bn4 ,v052
 .byte   W06
 .byte   N72 ,Cs5 ,v092
 .byte   W72
 .byte   PEND 
@  #13 @027   ----------------------------------------
Label_0115F7A3:
 .byte   N12 ,Cs5 ,v092
 .byte   W12
 .byte   N06 ,Bn4 ,v028
 .byte   W06
 .byte   N12 ,Bn4 ,v068
 .byte   W12
 .byte   N06 ,An4 ,v020
 .byte   W06
 .byte   N12 ,An4 ,v060
 .byte   W12
 .byte   N08 ,Gs4 ,v112
 .byte   W48
 .byte   PEND 
@  #13 @028   ----------------------------------------
Label_0115F7BC:
 .byte   W06
 .byte   N06 ,Fs4 ,v036
 .byte   W06
 .byte   Gs4 ,v052
 .byte   W06
 .byte   Cs5 ,v068
 .byte   W06
 .byte   N48 ,Ds5 ,v092
 .byte   W48
 .byte   N24
 .byte   W24
 .byte   PEND 
@  #13 @029   ----------------------------------------
Label_0115F7CE:
 .byte   N12 ,Ds5 ,v092
 .byte   W12
 .byte   N06 ,Bn4 ,v068
 .byte   W06
 .byte   N12 ,Gs4
 .byte   W12
 .byte   N18 ,Fs4 ,v060
 .byte   W18
 .byte   N08 ,Gs4 ,v112
 .byte   W30
 .byte   N18 ,Cs4 ,v028
 .byte   W18
 .byte   PEND 
@  #13 @030   ----------------------------------------
Label_0115F7E6:
 .byte   N12 ,En4 ,v036
 .byte   W12
 .byte   Bn4 ,v052
 .byte   W12
 .byte   N48 ,Cs5 ,v092
 .byte   W48
 .byte   N12
 .byte   W12
 .byte   N24 ,Bn4
 .byte   W12
 .byte   PEND 
@  #13 @031   ----------------------------------------
Label_0115F7F7:
 .byte   W12
 .byte   N06 ,An4 ,v068
 .byte   W06
 .byte   An4 ,v048
 .byte   W06
 .byte   N12 ,An4 ,v068
 .byte   W12
 .byte   Gs4 ,v044
 .byte   W12
 .byte   N24 ,Gs4 ,v112
 .byte   W48
 .byte   PEND 
@  #13 @032   ----------------------------------------
Label_0115F80B:
 .byte   W06
 .byte   N06 ,Fs4 ,v036
 .byte   W06
 .byte   Gs4 ,v052
 .byte   W06
 .byte   Cs5 ,v068
 .byte   W06
 .byte   N72 ,Ds5 ,v092
 .byte   W72
 .byte   PEND 
@  #13 @033   ----------------------------------------
 .byte   PATT
  .word Label_0115F77F
@  #13 @034   ----------------------------------------
Label_0115F820:
 .byte   W06
 .byte   N06 ,Cs4 ,v028
 .byte   W06
 .byte   En4 ,v036
 .byte   W06
 .byte   Bn4 ,v052
 .byte   W06
 .byte   N48 ,Cs5 ,v092
 .byte   W48
 .byte   N24
 .byte   W24
 .byte   PEND 
@  #13 @035   ----------------------------------------
Label_0115F832:
 .byte   N12 ,Cs5 ,v092
 .byte   W12
 .byte   N06 ,Bn4 ,v068
 .byte   W06
 .byte   N12
 .byte   W12
 .byte   N06 ,An4 ,v020
 .byte   W06
 .byte   N12 ,An4 ,v060
 .byte   W12
 .byte   N08 ,Gs4 ,v112
 .byte   W36
 .byte   N12 ,Fs4 ,v036
 .byte   W12
 .byte   PEND 
@  #13 @036   ----------------------------------------
Label_0115F84D:
 .byte   N12 ,Gs4 ,v052
 .byte   W12
 .byte   Cs5 ,v068
 .byte   W12
 .byte   N48 ,Ds5 ,v092
 .byte   W48
 .byte   N24
 .byte   W24
 .byte   PEND 
@  #13 @037   ----------------------------------------
 .byte   PATT
  .word Label_0115F77F
@  #13 @038   ----------------------------------------
Label_0115F860:
 .byte   N12 ,Cs4 ,v036
 .byte   W12
 .byte   En4 ,v052
 .byte   W12
 .byte   Bn4 ,v092
 .byte   W12
 .byte   N36 ,An4 ,v052
 .byte   W36
 .byte   N12 ,An4 ,v092
 .byte   W12
 .byte   Gs4
 .byte   W12
 .byte   PEND 
@  #13 @039   ----------------------------------------
Label_0115F875:
 .byte   W12
 .byte   N12 ,Gs4 ,v048
 .byte   W12
 .byte   Gs4 ,v076
 .byte   W12
 .byte   N06 ,An4 ,v044
 .byte   W06
 .byte   Gs4
 .byte   W06
 .byte   N24 ,Fs4 ,v112
 .byte   W36
 .byte   N12 ,En4
 .byte   W12
 .byte   PEND 
@  #13 @040   ----------------------------------------
 .byte   W12
 .byte   N84 ,Ds4 ,v068
 .byte   W84
@  #13 @041   ----------------------------------------
 .byte   W96
@  #13 @042   ----------------------------------------
 .byte   W96
@  #13 @043   ----------------------------------------
 .byte   W96
@  #13 @044   ----------------------------------------
 .byte   W96
@  #13 @045   ----------------------------------------
 .byte   W96
@  #13 @046   ----------------------------------------
 .byte   W96
@  #13 @047   ----------------------------------------
 .byte   W96
@  #13 @048   ----------------------------------------
 .byte   W96
@  #13 @049   ----------------------------------------
 .byte   W96
@  #13 @050   ----------------------------------------
 .byte   W96
@  #13 @051   ----------------------------------------
 .byte   W96
@  #13 @052   ----------------------------------------
 .byte   W96
@  #13 @053   ----------------------------------------
 .byte   W96
@  #13 @054   ----------------------------------------
 .byte   W96
@  #13 @055   ----------------------------------------
 .byte   W96
@  #13 @056   ----------------------------------------
 .byte   W96
@  #13 @057   ----------------------------------------
 .byte   W96
@  #13 @058   ----------------------------------------
 .byte   W96
@  #13 @059   ----------------------------------------
 .byte   W96
@  #13 @060   ----------------------------------------
 .byte   W96
@  #13 @061   ----------------------------------------
 .byte   W96
@  #13 @062   ----------------------------------------
 .byte   W24
 .byte   GOTO
  .word Label_0115F765
@  #13 @063   ----------------------------------------
 .byte   W72
 .byte   W96
@  #13 @064   ----------------------------------------
 .byte   W96
@  #13 @065   ----------------------------------------
 .byte   W96
@  #13 @066   ----------------------------------------
 .byte   W96
@  #13 @067   ----------------------------------------
 .byte   W96
@  #13 @068   ----------------------------------------
 .byte   W96
@  #13 @069   ----------------------------------------
 .byte   W96
@  #13 @070   ----------------------------------------
 .byte   W96
@  #13 @071   ----------------------------------------
 .byte   W96
@  #13 @072   ----------------------------------------
 .byte   W96
@  #13 @073   ----------------------------------------
 .byte   W96
@  #13 @074   ----------------------------------------
 .byte   W96
@  #13 @075   ----------------------------------------
 .byte   W96
@  #13 @076   ----------------------------------------
 .byte   PATT
  .word Label_0115F773
@  #13 @077   ----------------------------------------
 .byte   PATT
  .word Label_0115F77F
@  #13 @078   ----------------------------------------
 .byte   PATT
  .word Label_0115F793
@  #13 @079   ----------------------------------------
 .byte   PATT
  .word Label_0115F7A3
@  #13 @080   ----------------------------------------
 .byte   PATT
  .word Label_0115F7BC
@  #13 @081   ----------------------------------------
 .byte   PATT
  .word Label_0115F7CE
@  #13 @082   ----------------------------------------
 .byte   PATT
  .word Label_0115F7E6
@  #13 @083   ----------------------------------------
 .byte   PATT
  .word Label_0115F7F7
@  #13 @084   ----------------------------------------
 .byte   PATT
  .word Label_0115F80B
@  #13 @085   ----------------------------------------
 .byte   PATT
  .word Label_0115F77F
@  #13 @086   ----------------------------------------
 .byte   PATT
  .word Label_0115F820
@  #13 @087   ----------------------------------------
 .byte   PATT
  .word Label_0115F832
@  #13 @088   ----------------------------------------
 .byte   PATT
  .word Label_0115F84D
@  #13 @089   ----------------------------------------
 .byte   PATT
  .word Label_0115F77F
@  #13 @090   ----------------------------------------
 .byte   PATT
  .word Label_0115F860
@  #13 @091   ----------------------------------------
 .byte   PATT
  .word Label_0115F875
@  #13 @092   ----------------------------------------
 .byte   W12
 .byte   N12 ,Ds4 ,v068
 .byte   W84
@  #13 @093   ----------------------------------------
 .byte   W96
@  #13 @094   ----------------------------------------
 .byte   W96
@  #13 @095   ----------------------------------------
 .byte   W96
@  #13 @096   ----------------------------------------
 .byte   W96
@  #13 @097   ----------------------------------------
 .byte   W96
@  #13 @098   ----------------------------------------
 .byte   W96
@  #13 @099   ----------------------------------------
 .byte   W96
@  #13 @100   ----------------------------------------
 .byte   W96
@  #13 @101   ----------------------------------------
 .byte   W96
@  #13 @102   ----------------------------------------
 .byte   W96
@  #13 @103   ----------------------------------------
 .byte   W96
 .byte   FINE

@******************************************************@
	.align	2

song07:
	.byte	13	@ NumTrks
	.byte	0	@ NumBlks
	.byte	song07_pri	@ Priority
	.byte	song07_rev	@ Reverb.
    
	.word	song07_grp
    
	.word	song07_001
	.word	song07_002
	.word	song07_003
	.word	song07_004
	.word	song07_005
	.word	song07_006
	.word	song07_007
	.word	song07_008
	.word	song07_009
	.word	song07_010
	.word	song07_011
	.word	song07_012
	.word	song07_013

	.end
