	.include "MPlayDef.s"

	.equ	feb20230207212633_grp, voicegroup000
	.equ	feb20230207212633_pri, 0
	.equ	feb20230207212633_rev, 0
	.equ	feb20230207212633_mvl, 127
	.equ	feb20230207212633_key, 0
	.equ	feb20230207212633_tbs, 1
	.equ	feb20230207212633_exg, 0
	.equ	feb20230207212633_cmp, 1

	.section .rodata
	.global	feb20230207212633
	.align	2

@**************** Track 1 (Midi-Chn.1) ****************@

feb20230207212633_1:
	.byte	KEYSH , feb20230207212633_key+0
feb20230207212633_1_B1:
@ 000   ----------------------------------------
	.byte	TEMPO , 144*feb20230207212633_tbs/2
	.byte		VOICE , 49
	.byte		BENDR , 12
	.byte		VOL   , 19*feb20230207212633_mvl/mxv
	.byte		TIE   , Cs1 , v108
	.byte		TIE   , Gs1 
	.byte		TIE   , Cs2 
	.byte	W06
	.byte		VOL   , 19*feb20230207212633_mvl/mxv
	.byte	W06
	.byte		        19*feb20230207212633_mvl/mxv
	.byte	W06
	.byte		        19*feb20230207212633_mvl/mxv
	.byte	W06
	.byte		        19*feb20230207212633_mvl/mxv
	.byte	W06
	.byte		        19*feb20230207212633_mvl/mxv
	.byte	W06
	.byte		        22*feb20230207212633_mvl/mxv
	.byte	W06
	.byte		        28*feb20230207212633_mvl/mxv
	.byte	W06
	.byte		        33*feb20230207212633_mvl/mxv
	.byte	W06
	.byte		        39*feb20230207212633_mvl/mxv
	.byte	W06
	.byte		        44*feb20230207212633_mvl/mxv
	.byte	W06
	.byte		        51*feb20230207212633_mvl/mxv
	.byte	W06
	.byte		        58*feb20230207212633_mvl/mxv
	.byte	W24
@ 001   ----------------------------------------
	.byte	W96
	.byte		EOT   , Cs1 
	.byte		        Gs1 
	.byte		        Cs2 
@ 002   ----------------------------------------
	.byte	W96
@ 003   ----------------------------------------
	.byte	W96
@ 004   ----------------------------------------
	.byte	W96
@ 005   ----------------------------------------
	.byte	W96
@ 006   ----------------------------------------
	.byte	W96
@ 007   ----------------------------------------
	.byte	W96
@ 008   ----------------------------------------
	.byte	W96
@ 009   ----------------------------------------
	.byte	W96
@ 010   ----------------------------------------
	.byte	W96
@ 011   ----------------------------------------
	.byte	W96
@ 012   ----------------------------------------
	.byte	W96
@ 013   ----------------------------------------
	.byte	W96
@ 014   ----------------------------------------
	.byte	W96
@ 015   ----------------------------------------
	.byte	W96
@ 016   ----------------------------------------
	.byte	W96
@ 017   ----------------------------------------
	.byte	W96
@ 018   ----------------------------------------
	.byte	W96
@ 019   ----------------------------------------
	.byte	W96
@ 020   ----------------------------------------
	.byte	W96
@ 021   ----------------------------------------
	.byte	W96
@ 022   ----------------------------------------
	.byte	W96
@ 023   ----------------------------------------
	.byte	W96
@ 024   ----------------------------------------
	.byte	W96
@ 025   ----------------------------------------
	.byte	W96
@ 026   ----------------------------------------
	.byte	W96
@ 027   ----------------------------------------
	.byte	W96
@ 028   ----------------------------------------
	.byte	W96
@ 029   ----------------------------------------
	.byte	W96
@ 030   ----------------------------------------
	.byte	W96
@ 031   ----------------------------------------
	.byte	W96
@ 032   ----------------------------------------
	.byte	W96
@ 033   ----------------------------------------
	.byte	W96
@ 034   ----------------------------------------
	.byte	W96
@ 035   ----------------------------------------
	.byte	W96
@ 036   ----------------------------------------
	.byte	W96
@ 037   ----------------------------------------
	.byte	W96
@ 038   ----------------------------------------
	.byte	W96
@ 039   ----------------------------------------
	.byte	W96
@ 040   ----------------------------------------
	.byte	W96
@ 041   ----------------------------------------
	.byte	W96
@ 042   ----------------------------------------
	.byte	W96
@ 043   ----------------------------------------
	.byte	W96
@ 044   ----------------------------------------
	.byte	W96
@ 045   ----------------------------------------
	.byte	W96
@ 046   ----------------------------------------
	.byte	W96
@ 047   ----------------------------------------
	.byte	W96
@ 048   ----------------------------------------
	.byte	W96
@ 049   ----------------------------------------
	.byte	W96
@ 050   ----------------------------------------
	.byte	W96
@ 051   ----------------------------------------
	.byte	W96
@ 052   ----------------------------------------
	.byte	W96
@ 053   ----------------------------------------
	.byte	W96
@ 054   ----------------------------------------
	.byte	W96
@ 055   ----------------------------------------
	.byte	W96
@ 056   ----------------------------------------
	.byte	W96
@ 057   ----------------------------------------
	.byte	W96
@ 058   ----------------------------------------
	.byte	W96
@ 059   ----------------------------------------
	.byte	W96
@ 060   ----------------------------------------
	.byte	W96
@ 061   ----------------------------------------
	.byte	W96
@ 062   ----------------------------------------
	.byte	W96
@ 063   ----------------------------------------
	.byte	W96
@ 064   ----------------------------------------
	.byte	W96
@ 065   ----------------------------------------
	.byte	W96
@ 066   ----------------------------------------
	.byte	W96
@ 067   ----------------------------------------
	.byte	W96
	.byte	GOTO
	 .word	feb20230207212633_1_B1
feb20230207212633_1_B2:
@ 068   ----------------------------------------
	.byte	FINE

@**************** Track 2 (Midi-Chn.2) ****************@

feb20230207212633_2:
	.byte	KEYSH , feb20230207212633_key+0
feb20230207212633_2_B1:
@ 000   ----------------------------------------
	.byte		VOICE , 99
	.byte		BENDR , 12
	.byte		VOL   , 66*feb20230207212633_mvl/mxv
	.byte		TIE   , Fs1 , v108
	.byte	W96
@ 001   ----------------------------------------
	.byte	W96
	.byte		EOT   
@ 002   ----------------------------------------
	.byte		N96   , Fs2 , v127
	.byte	W96
@ 003   ----------------------------------------
	.byte	W96
@ 004   ----------------------------------------
	.byte		N96   
	.byte	W96
@ 005   ----------------------------------------
	.byte	W96
@ 006   ----------------------------------------
	.byte		N96   
	.byte	W96
@ 007   ----------------------------------------
	.byte	W96
@ 008   ----------------------------------------
	.byte		        Fs2 , v080
	.byte	W96
@ 009   ----------------------------------------
	.byte	W90
	.byte		BEND  , c_v-16
	.byte		TIE   , Cs3 
	.byte	W02
	.byte		BEND  , c_v-11
	.byte	W02
	.byte		        c_v-5
	.byte	W02
@ 010   ----------------------------------------
	.byte		        c_v+0
	.byte	W96
	.byte		EOT   
@ 011   ----------------------------------------
	.byte	W96
@ 012   ----------------------------------------
	.byte	W96
@ 013   ----------------------------------------
	.byte	W96
@ 014   ----------------------------------------
	.byte	W96
@ 015   ----------------------------------------
	.byte	W96
@ 016   ----------------------------------------
	.byte	W96
@ 017   ----------------------------------------
	.byte	W90
	.byte		BEND  , c_v-16
	.byte		N48   , Cs3 , v104
	.byte	W02
	.byte		BEND  , c_v-11
	.byte	W02
	.byte		        c_v-5
	.byte	W02
@ 018   ----------------------------------------
	.byte		        c_v+0
	.byte		N48   , Fs3 , v080
	.byte	W42
	.byte		BEND  , c_v-16
	.byte		N48   , Cs3 , v104
	.byte	W02
	.byte		BEND  , c_v-11
	.byte	W02
	.byte		        c_v-5
	.byte	W02
	.byte		        c_v+0
	.byte		N48   , Fs3 , v080
	.byte	W42
	.byte		BEND  , c_v-16
	.byte		N54   , Cs3 , v104
	.byte	W02
	.byte		BEND  , c_v-11
	.byte	W02
	.byte		        c_v-5
	.byte	W02
@ 019   ----------------------------------------
	.byte		        c_v+0
	.byte		N48   , Fs3 , v080
	.byte	W96
@ 020   ----------------------------------------
	.byte	W96
@ 021   ----------------------------------------
	.byte	W96
@ 022   ----------------------------------------
	.byte		N06   , En3 , v104
	.byte	W06
	.byte		        Gs3 
	.byte	W06
	.byte		N48   , Bn3 
	.byte	W84
@ 023   ----------------------------------------
	.byte		N06   , En3 , v080
	.byte	W06
	.byte		        Gs3 
	.byte	W06
	.byte		N36   , An3 
	.byte	W36
	.byte		N06   , Cs3 
	.byte	W06
	.byte		        Fn3 
	.byte	W06
	.byte		N36   , Gs3 
	.byte	W36
@ 024   ----------------------------------------
	.byte		N06   , Fs2 
	.byte	W06
	.byte		        Cs3 
	.byte	W06
	.byte		N24   , Fs3 
	.byte	W36
	.byte		N48   
	.byte	W48
@ 025   ----------------------------------------
	.byte	W96
@ 026   ----------------------------------------
	.byte	W96
@ 027   ----------------------------------------
	.byte	W96
@ 028   ----------------------------------------
	.byte	W96
@ 029   ----------------------------------------
	.byte	W96
@ 030   ----------------------------------------
	.byte	W96
@ 031   ----------------------------------------
	.byte	W96
@ 032   ----------------------------------------
	.byte	W96
@ 033   ----------------------------------------
	.byte	W96
@ 034   ----------------------------------------
	.byte	W96
@ 035   ----------------------------------------
	.byte	W96
@ 036   ----------------------------------------
	.byte	W96
@ 037   ----------------------------------------
	.byte	W96
@ 038   ----------------------------------------
	.byte	W96
@ 039   ----------------------------------------
	.byte	W96
@ 040   ----------------------------------------
	.byte	W96
@ 041   ----------------------------------------
	.byte	W96
@ 042   ----------------------------------------
	.byte	W96
@ 043   ----------------------------------------
	.byte	W96
@ 044   ----------------------------------------
	.byte	W96
@ 045   ----------------------------------------
	.byte	W96
@ 046   ----------------------------------------
	.byte	W96
@ 047   ----------------------------------------
	.byte	W96
@ 048   ----------------------------------------
	.byte	W96
@ 049   ----------------------------------------
	.byte	W96
@ 050   ----------------------------------------
	.byte	W96
@ 051   ----------------------------------------
	.byte	W96
@ 052   ----------------------------------------
	.byte	W96
@ 053   ----------------------------------------
	.byte	W96
@ 054   ----------------------------------------
	.byte	W96
@ 055   ----------------------------------------
	.byte	W96
@ 056   ----------------------------------------
	.byte	W96
@ 057   ----------------------------------------
	.byte	W96
@ 058   ----------------------------------------
	.byte	W96
@ 059   ----------------------------------------
	.byte	W96
@ 060   ----------------------------------------
	.byte	W96
@ 061   ----------------------------------------
	.byte	W96
@ 062   ----------------------------------------
	.byte	W96
@ 063   ----------------------------------------
	.byte	W96
@ 064   ----------------------------------------
	.byte	W96
@ 065   ----------------------------------------
	.byte	W96
@ 066   ----------------------------------------
	.byte		N96   , En1 
	.byte	W96
@ 067   ----------------------------------------
	.byte		N96   
	.byte	W96
	.byte	GOTO
	 .word	feb20230207212633_2_B1
feb20230207212633_2_B2:
@ 068   ----------------------------------------
	.byte	FINE

@**************** Track 3 (Midi-Chn.3) ****************@

feb20230207212633_3:
	.byte	KEYSH , feb20230207212633_key+0
feb20230207212633_3_B1:
@ 000   ----------------------------------------
	.byte		VOICE , 61
	.byte		BENDR , 12
	.byte		VOL   , 50*feb20230207212633_mvl/mxv
	.byte	W96
@ 001   ----------------------------------------
	.byte	W96
@ 002   ----------------------------------------
feb20230207212633_3_002:
	.byte		N09   , Fs3 , v080
	.byte		N09   , Cs4 
	.byte		N09   , Fs4 
	.byte	W12
	.byte		        Fs3 
	.byte		N09   , Cs4 
	.byte		N09   , Fs4 
	.byte	W12
	.byte		        Fs3 
	.byte		N09   , Cs4 
	.byte		N09   , Fs4 
	.byte	W12
	.byte		        En3 
	.byte		N09   , Gs3 
	.byte		N09   , Cs4 
	.byte		N09   , En4 
	.byte	W12
	.byte		        En3 
	.byte		N09   , Gs3 
	.byte		N09   , Cs4 
	.byte		N09   , En4 
	.byte	W12
	.byte		        En3 
	.byte		N09   , Gs3 
	.byte		N09   , Cs4 
	.byte		N09   , En4 
	.byte	W12
	.byte		        En3 
	.byte		N09   , Gs3 
	.byte		N09   , Cs4 
	.byte		N09   , En4 
	.byte	W12
	.byte		        Ds3 
	.byte		N09   , Bn3 
	.byte		N09   , Ds4 
	.byte	W12
	.byte	PEND
@ 003   ----------------------------------------
feb20230207212633_3_003:
	.byte		N09   , Ds3 , v080
	.byte		N09   , Bn3 
	.byte		N09   , Ds4 
	.byte	W12
	.byte		        Ds3 
	.byte		N09   , Bn3 
	.byte		N09   , Ds4 
	.byte	W12
	.byte		        Ds3 
	.byte		N09   , Bn3 
	.byte		N09   , Ds4 
	.byte	W12
	.byte		        En3 
	.byte		N09   , Gs3 
	.byte		N09   , Cs4 
	.byte		N09   , En4 
	.byte	W12
	.byte		        En3 
	.byte		N09   , Gs3 
	.byte		N09   , Cs4 
	.byte		N09   , En4 
	.byte	W12
	.byte		        En3 
	.byte		N09   , Gs3 
	.byte		N09   , Cs4 
	.byte		N09   , En4 
	.byte	W12
	.byte		        En3 
	.byte		N09   , Gs3 
	.byte		N09   , Cs4 
	.byte		N09   , En4 
	.byte	W12
	.byte		        Fs3 
	.byte		N09   , Cs4 
	.byte		N09   , Fs4 
	.byte	W12
	.byte	PEND
@ 004   ----------------------------------------
	.byte	PATT
	 .word	feb20230207212633_3_002
@ 005   ----------------------------------------
	.byte	PATT
	 .word	feb20230207212633_3_003
@ 006   ----------------------------------------
	.byte	PATT
	 .word	feb20230207212633_3_002
@ 007   ----------------------------------------
	.byte	PATT
	 .word	feb20230207212633_3_003
@ 008   ----------------------------------------
	.byte	PATT
	 .word	feb20230207212633_3_002
@ 009   ----------------------------------------
	.byte	W96
@ 010   ----------------------------------------
	.byte	W96
@ 011   ----------------------------------------
	.byte	W96
@ 012   ----------------------------------------
	.byte	W96
@ 013   ----------------------------------------
	.byte	W96
@ 014   ----------------------------------------
	.byte	W96
@ 015   ----------------------------------------
	.byte	W96
@ 016   ----------------------------------------
	.byte	W96
@ 017   ----------------------------------------
	.byte	W96
@ 018   ----------------------------------------
	.byte	W96
@ 019   ----------------------------------------
	.byte	W96
@ 020   ----------------------------------------
	.byte	W96
@ 021   ----------------------------------------
	.byte	W96
@ 022   ----------------------------------------
	.byte	W96
@ 023   ----------------------------------------
	.byte	W96
@ 024   ----------------------------------------
	.byte	W96
@ 025   ----------------------------------------
	.byte	W96
@ 026   ----------------------------------------
	.byte	W96
@ 027   ----------------------------------------
	.byte	W96
@ 028   ----------------------------------------
	.byte	W96
@ 029   ----------------------------------------
	.byte	W96
@ 030   ----------------------------------------
	.byte	W96
@ 031   ----------------------------------------
	.byte	W96
@ 032   ----------------------------------------
	.byte	W96
@ 033   ----------------------------------------
	.byte	W96
@ 034   ----------------------------------------
	.byte	W96
@ 035   ----------------------------------------
	.byte	W96
@ 036   ----------------------------------------
	.byte	W96
@ 037   ----------------------------------------
	.byte	W96
@ 038   ----------------------------------------
	.byte	W96
@ 039   ----------------------------------------
	.byte	W96
@ 040   ----------------------------------------
	.byte	W96
@ 041   ----------------------------------------
	.byte	W96
@ 042   ----------------------------------------
	.byte	W96
@ 043   ----------------------------------------
	.byte	W96
@ 044   ----------------------------------------
	.byte	W96
@ 045   ----------------------------------------
	.byte	W96
@ 046   ----------------------------------------
	.byte	W96
@ 047   ----------------------------------------
	.byte	W96
@ 048   ----------------------------------------
	.byte	W96
@ 049   ----------------------------------------
	.byte	W96
@ 050   ----------------------------------------
	.byte	W96
@ 051   ----------------------------------------
	.byte	W96
@ 052   ----------------------------------------
	.byte	W96
@ 053   ----------------------------------------
	.byte	W96
@ 054   ----------------------------------------
	.byte	W96
@ 055   ----------------------------------------
	.byte	W96
@ 056   ----------------------------------------
	.byte	W96
@ 057   ----------------------------------------
	.byte	W96
@ 058   ----------------------------------------
	.byte	W96
@ 059   ----------------------------------------
	.byte	W96
@ 060   ----------------------------------------
	.byte	W96
@ 061   ----------------------------------------
	.byte	W96
@ 062   ----------------------------------------
	.byte	W96
@ 063   ----------------------------------------
	.byte	W96
@ 064   ----------------------------------------
	.byte	W96
@ 065   ----------------------------------------
	.byte	W96
@ 066   ----------------------------------------
	.byte	W96
@ 067   ----------------------------------------
	.byte	W96
	.byte	GOTO
	 .word	feb20230207212633_3_B1
feb20230207212633_3_B2:
@ 068   ----------------------------------------
	.byte	FINE

@**************** Track 4 (Midi-Chn.4) ****************@

feb20230207212633_4:
	.byte	KEYSH , feb20230207212633_key+0
feb20230207212633_4_B1:
@ 000   ----------------------------------------
	.byte		VOICE , 80
	.byte		BENDR , 12
	.byte		VOL   , 40*feb20230207212633_mvl/mxv
	.byte		PAN   , c_v-24
	.byte	W96
@ 001   ----------------------------------------
	.byte	W96
@ 002   ----------------------------------------
feb20230207212633_4_002:
	.byte		N06   , Gs3 , v080
	.byte	W06
	.byte		        Cs4 
	.byte	W06
	.byte		        En4 
	.byte	W06
	.byte		        Cs4 
	.byte	W06
	.byte		        Gs3 
	.byte	W06
	.byte		        Cs4 
	.byte	W06
	.byte		        En4 
	.byte	W06
	.byte		        Cs4 
	.byte	W06
	.byte		        Gs3 
	.byte	W06
	.byte		        Cs4 
	.byte	W06
	.byte		        En4 
	.byte	W06
	.byte		        Cs4 
	.byte	W06
	.byte		        Gs3 
	.byte	W06
	.byte		        Cs4 
	.byte	W06
	.byte		        En4 
	.byte	W06
	.byte		        Cs4 
	.byte	W06
	.byte	PEND
@ 003   ----------------------------------------
feb20230207212633_4_003:
	.byte		N06   , Gs3 , v080
	.byte	W06
	.byte		        Cs4 
	.byte	W06
	.byte		        Gs4 
	.byte	W06
	.byte		        En4 
	.byte	W06
	.byte		        Gs3 
	.byte	W06
	.byte		        Cs4 
	.byte	W06
	.byte		        Fs4 
	.byte	W06
	.byte		        En4 
	.byte	W06
	.byte		        Gs3 
	.byte	W06
	.byte		        Cs4 
	.byte	W06
	.byte		        Gs3 
	.byte	W06
	.byte		        Cs4 
	.byte	W06
	.byte		        Gs4 
	.byte	W06
	.byte		        En4 
	.byte	W06
	.byte		        Gs3 
	.byte	W06
	.byte		        Cs4 
	.byte	W06
	.byte	PEND
@ 004   ----------------------------------------
	.byte	PATT
	 .word	feb20230207212633_4_002
@ 005   ----------------------------------------
	.byte	PATT
	 .word	feb20230207212633_4_003
@ 006   ----------------------------------------
	.byte	PATT
	 .word	feb20230207212633_4_002
@ 007   ----------------------------------------
	.byte	PATT
	 .word	feb20230207212633_4_003
@ 008   ----------------------------------------
	.byte	PATT
	 .word	feb20230207212633_4_002
@ 009   ----------------------------------------
	.byte	PATT
	 .word	feb20230207212633_4_003
@ 010   ----------------------------------------
	.byte	W96
@ 011   ----------------------------------------
	.byte	W96
@ 012   ----------------------------------------
	.byte	W96
@ 013   ----------------------------------------
	.byte	W96
@ 014   ----------------------------------------
	.byte	W96
@ 015   ----------------------------------------
	.byte	W96
@ 016   ----------------------------------------
	.byte	W96
@ 017   ----------------------------------------
	.byte	W96
@ 018   ----------------------------------------
	.byte	W96
@ 019   ----------------------------------------
	.byte	W96
@ 020   ----------------------------------------
	.byte	W96
@ 021   ----------------------------------------
	.byte	W96
@ 022   ----------------------------------------
	.byte	W96
@ 023   ----------------------------------------
	.byte	W96
@ 024   ----------------------------------------
	.byte	W96
@ 025   ----------------------------------------
	.byte	W60
	.byte		VOICE , 91
	.byte		VOL   , 58*feb20230207212633_mvl/mxv
	.byte		N12   , Ds4 , v060
	.byte	W12
	.byte		        En4 
	.byte	W12
	.byte		        Gs4 
	.byte	W12
@ 026   ----------------------------------------
	.byte		N60   , Bn4 
	.byte	W60
	.byte		N12   , Cs5 
	.byte	W12
	.byte		        Bn4 
	.byte	W12
	.byte		        En4 
	.byte	W12
@ 027   ----------------------------------------
	.byte		N48   , Gs4 
	.byte	W48
	.byte		N12   
	.byte	W12
	.byte		        Fs4 
	.byte	W12
	.byte		N24   , En4 
	.byte	W24
@ 028   ----------------------------------------
	.byte		N60   , Fs4 
	.byte	W60
	.byte		N12   , Bn4 , v080
	.byte	W12
	.byte		        Fs4 
	.byte	W12
	.byte		        Ds4 
	.byte	W12
@ 029   ----------------------------------------
	.byte		N48   , En4 , v060
	.byte	W48
	.byte		N12   , Cs4 , v080
	.byte	W12
	.byte		        Ds4 
	.byte	W12
	.byte		        En4 
	.byte	W12
	.byte		        Gs4 
	.byte	W12
@ 030   ----------------------------------------
	.byte		N48   , Cs5 , v060
	.byte	W96
@ 031   ----------------------------------------
	.byte		        Ds5 , v080
	.byte	W48
	.byte		N24   , As4 
	.byte	W24
	.byte		        Cs5 , v060
	.byte	W24
@ 032   ----------------------------------------
	.byte		N60   , Cs5 , v080
	.byte	W60
	.byte		N12   , Cn5 
	.byte	W12
	.byte		        Cs5 , v060
	.byte	W12
	.byte		TIE   , Ds5 
	.byte	W12
@ 033   ----------------------------------------
	.byte	W96
	.byte		EOT   
@ 034   ----------------------------------------
	.byte	W96
@ 035   ----------------------------------------
	.byte	W96
@ 036   ----------------------------------------
	.byte	W96
@ 037   ----------------------------------------
	.byte	W96
@ 038   ----------------------------------------
	.byte	W96
@ 039   ----------------------------------------
	.byte	W96
@ 040   ----------------------------------------
	.byte	W96
@ 041   ----------------------------------------
	.byte	W96
@ 042   ----------------------------------------
	.byte	W96
@ 043   ----------------------------------------
	.byte	W96
@ 044   ----------------------------------------
	.byte	W96
@ 045   ----------------------------------------
	.byte	W96
@ 046   ----------------------------------------
	.byte	W96
@ 047   ----------------------------------------
	.byte	W96
@ 048   ----------------------------------------
	.byte	W96
@ 049   ----------------------------------------
	.byte	W96
@ 050   ----------------------------------------
	.byte	W96
@ 051   ----------------------------------------
	.byte	W96
@ 052   ----------------------------------------
	.byte	W96
@ 053   ----------------------------------------
	.byte	W96
@ 054   ----------------------------------------
	.byte	W96
@ 055   ----------------------------------------
	.byte	W96
@ 056   ----------------------------------------
	.byte	W96
@ 057   ----------------------------------------
	.byte	W96
@ 058   ----------------------------------------
	.byte	W96
@ 059   ----------------------------------------
	.byte	W96
@ 060   ----------------------------------------
	.byte	W96
@ 061   ----------------------------------------
	.byte	W96
@ 062   ----------------------------------------
	.byte	W96
@ 063   ----------------------------------------
	.byte	W96
@ 064   ----------------------------------------
	.byte	W96
@ 065   ----------------------------------------
	.byte	W96
@ 066   ----------------------------------------
	.byte	W96
@ 067   ----------------------------------------
	.byte	W96
	.byte	GOTO
	 .word	feb20230207212633_4_B1
feb20230207212633_4_B2:
@ 068   ----------------------------------------
	.byte	FINE

@**************** Track 5 (Midi-Chn.5) ****************@

feb20230207212633_5:
	.byte	KEYSH , feb20230207212633_key+0
feb20230207212633_5_B1:
@ 000   ----------------------------------------
	.byte		VOICE , 80
	.byte		BENDR , 12
	.byte		VOL   , 40*feb20230207212633_mvl/mxv
	.byte		PAN   , c_v-24
	.byte	W96
@ 001   ----------------------------------------
	.byte	W96
@ 002   ----------------------------------------
feb20230207212633_5_002:
	.byte	W06
	.byte		N06   , Gs3 , v060
	.byte	W06
	.byte		        Cs4 
	.byte	W06
	.byte		        En4 
	.byte	W06
	.byte		        Cs4 
	.byte	W06
	.byte		        Gs3 
	.byte	W06
	.byte		        Cs4 
	.byte	W06
	.byte		        En4 
	.byte	W06
	.byte		        Cs4 
	.byte	W06
	.byte		        Gs3 
	.byte	W06
	.byte		        Cs4 
	.byte	W06
	.byte		        En4 
	.byte	W06
	.byte		        Cs4 
	.byte	W06
	.byte		        Gs3 
	.byte	W06
	.byte		        Cs4 
	.byte	W06
	.byte		        En4 
	.byte	W06
	.byte	PEND
@ 003   ----------------------------------------
feb20230207212633_5_003:
	.byte		N06   , Cs4 , v060
	.byte	W06
	.byte		        Gs3 
	.byte	W06
	.byte		        Cs4 
	.byte	W06
	.byte		        Gs4 
	.byte	W06
	.byte		        En4 
	.byte	W06
	.byte		        Gs3 
	.byte	W06
	.byte		        Cs4 
	.byte	W06
	.byte		        Fs4 
	.byte	W06
	.byte		        En4 
	.byte	W06
	.byte		        Gs3 
	.byte	W06
	.byte		        Cs4 
	.byte	W06
	.byte		        Gs3 
	.byte	W06
	.byte		        Cs4 
	.byte	W06
	.byte		        Gs4 
	.byte	W06
	.byte		        En4 
	.byte	W06
	.byte		        Gs3 
	.byte	W06
	.byte	PEND
@ 004   ----------------------------------------
	.byte	PATT
	 .word	feb20230207212633_5_002
@ 005   ----------------------------------------
	.byte	PATT
	 .word	feb20230207212633_5_003
@ 006   ----------------------------------------
	.byte	PATT
	 .word	feb20230207212633_5_002
@ 007   ----------------------------------------
	.byte	PATT
	 .word	feb20230207212633_5_003
@ 008   ----------------------------------------
	.byte		N06   , Cs4 , v060
	.byte	W06
	.byte		        Gs3 
	.byte	W06
	.byte		        Cs4 
	.byte	W06
	.byte		        En4 
	.byte	W06
	.byte		        Cs4 
	.byte	W06
	.byte		        Gs3 
	.byte	W06
	.byte		        Cs4 
	.byte	W06
	.byte		        En4 
	.byte	W06
	.byte		        Cs4 
	.byte	W06
	.byte		        Gs3 
	.byte	W06
	.byte		        Cs4 
	.byte	W06
	.byte		        En4 
	.byte	W06
	.byte		        Cs4 
	.byte	W06
	.byte		        Gs3 
	.byte	W06
	.byte		        Cs4 
	.byte	W06
	.byte		        En4 
	.byte	W06
@ 009   ----------------------------------------
	.byte	PATT
	 .word	feb20230207212633_5_003
@ 010   ----------------------------------------
	.byte	W96
@ 011   ----------------------------------------
	.byte	W96
@ 012   ----------------------------------------
	.byte	W96
@ 013   ----------------------------------------
	.byte	W96
@ 014   ----------------------------------------
	.byte	W96
@ 015   ----------------------------------------
	.byte	W96
@ 016   ----------------------------------------
	.byte	W96
@ 017   ----------------------------------------
	.byte	W96
@ 018   ----------------------------------------
	.byte	W96
@ 019   ----------------------------------------
	.byte	W96
@ 020   ----------------------------------------
	.byte	W96
@ 021   ----------------------------------------
	.byte	W96
@ 022   ----------------------------------------
	.byte	W96
@ 023   ----------------------------------------
	.byte	W96
@ 024   ----------------------------------------
	.byte	W96
@ 025   ----------------------------------------
	.byte	W72
	.byte		VOICE , 91
	.byte		VOL   , 58*feb20230207212633_mvl/mxv
	.byte		N12   , Ds4 , v040
	.byte	W12
	.byte		        En4 
	.byte	W12
@ 026   ----------------------------------------
	.byte		        Gs4 
	.byte	W12
	.byte		N60   , Bn4 
	.byte	W60
	.byte		N12   , Cs5 
	.byte	W12
	.byte		        Bn4 
	.byte	W12
@ 027   ----------------------------------------
	.byte		        En4 
	.byte	W12
	.byte		N48   , Gs4 
	.byte	W48
	.byte		N12   
	.byte	W12
	.byte		        Fs4 
	.byte	W12
	.byte		        En4 
	.byte	W12
@ 028   ----------------------------------------
	.byte		N12   
	.byte	W12
	.byte		N60   , Fs4 
	.byte	W60
	.byte		N12   , Bn4 
	.byte	W12
	.byte		        Fs4 
	.byte	W12
@ 029   ----------------------------------------
	.byte		        Ds4 
	.byte	W12
	.byte		N48   , En4 
	.byte	W48
	.byte		N12   , Cs4 
	.byte	W12
	.byte		        Ds4 
	.byte	W12
	.byte		        En4 
	.byte	W12
@ 030   ----------------------------------------
	.byte		        Gs4 
	.byte	W12
	.byte		N48   , Cs5 
	.byte	W84
@ 031   ----------------------------------------
	.byte	W12
	.byte		        Ds5 
	.byte	W48
	.byte		N24   , As4 
	.byte	W24
	.byte		        Cs5 
	.byte	W12
@ 032   ----------------------------------------
	.byte	W12
	.byte		N60   
	.byte	W60
	.byte		N12   , Cn5 
	.byte	W12
	.byte		        Cs5 
	.byte	W12
@ 033   ----------------------------------------
	.byte		TIE   , Ds5 
	.byte	W96
@ 034   ----------------------------------------
	.byte	W12
	.byte		EOT   
	.byte	W84
@ 035   ----------------------------------------
	.byte	W96
@ 036   ----------------------------------------
	.byte	W96
@ 037   ----------------------------------------
	.byte	W96
@ 038   ----------------------------------------
	.byte	W96
@ 039   ----------------------------------------
	.byte	W96
@ 040   ----------------------------------------
	.byte	W96
@ 041   ----------------------------------------
	.byte	W96
@ 042   ----------------------------------------
	.byte	W96
@ 043   ----------------------------------------
	.byte	W96
@ 044   ----------------------------------------
	.byte	W96
@ 045   ----------------------------------------
	.byte	W96
@ 046   ----------------------------------------
	.byte	W96
@ 047   ----------------------------------------
	.byte	W96
@ 048   ----------------------------------------
	.byte	W96
@ 049   ----------------------------------------
	.byte	W96
@ 050   ----------------------------------------
	.byte	W96
@ 051   ----------------------------------------
	.byte	W96
@ 052   ----------------------------------------
	.byte	W96
@ 053   ----------------------------------------
	.byte	W96
@ 054   ----------------------------------------
	.byte	W96
@ 055   ----------------------------------------
	.byte	W96
@ 056   ----------------------------------------
	.byte	W96
@ 057   ----------------------------------------
	.byte	W96
@ 058   ----------------------------------------
	.byte	W96
@ 059   ----------------------------------------
	.byte	W96
@ 060   ----------------------------------------
	.byte	W96
@ 061   ----------------------------------------
	.byte	W96
@ 062   ----------------------------------------
	.byte	W96
@ 063   ----------------------------------------
	.byte	W96
@ 064   ----------------------------------------
	.byte	W96
@ 065   ----------------------------------------
	.byte	W96
@ 066   ----------------------------------------
	.byte	W96
@ 067   ----------------------------------------
	.byte	W96
	.byte	GOTO
	 .word	feb20230207212633_5_B1
feb20230207212633_5_B2:
@ 068   ----------------------------------------
	.byte	FINE

@**************** Track 6 (Midi-Chn.6) ****************@

feb20230207212633_6:
	.byte	KEYSH , feb20230207212633_key+0
feb20230207212633_6_B1:
@ 000   ----------------------------------------
	.byte		VOICE , 40
	.byte		BENDR , 12
	.byte		VOL   , 75*feb20230207212633_mvl/mxv
	.byte		PAN   , c_v+16
	.byte	W96
@ 001   ----------------------------------------
	.byte	W96
@ 002   ----------------------------------------
	.byte	W96
@ 003   ----------------------------------------
	.byte	W96
@ 004   ----------------------------------------
	.byte	W96
@ 005   ----------------------------------------
	.byte	W96
@ 006   ----------------------------------------
	.byte	W96
@ 007   ----------------------------------------
	.byte	W96
@ 008   ----------------------------------------
	.byte	W96
@ 009   ----------------------------------------
	.byte		N06   , Gs4 , v080
	.byte	W06
	.byte		        Bn4 
	.byte	W06
	.byte		        Fs4 
	.byte	W06
	.byte		        Bn4 
	.byte	W06
	.byte		        Gs4 
	.byte	W06
	.byte		        Bn4 
	.byte	W06
	.byte		        Fs4 
	.byte	W06
	.byte		        Bn4 
	.byte	W06
	.byte		        Gs4 
	.byte	W06
	.byte		        Bn4 
	.byte	W06
	.byte		        Fs4 
	.byte	W06
	.byte		        Bn4 
	.byte	W06
	.byte		        Gs4 
	.byte	W06
	.byte		        Bn4 
	.byte	W06
	.byte		        Fs4 
	.byte	W06
	.byte		        Bn4 
	.byte	W06
@ 010   ----------------------------------------
feb20230207212633_6_010:
	.byte		N28   , Cs4 , v080
	.byte	W36
	.byte		N06   , Gs3 
	.byte	W12
	.byte		N28   , Ds4 
	.byte	W36
	.byte		N06   , Gs3 
	.byte	W12
	.byte	PEND
@ 011   ----------------------------------------
feb20230207212633_6_011:
	.byte		N18   , En4 , v080
	.byte	W18
	.byte		        Fs4 
	.byte	W18
	.byte		N12   , Gs4 
	.byte	W12
	.byte		N18   , Fs4 
	.byte	W18
	.byte		        En4 
	.byte	W18
	.byte		N12   , Ds4 
	.byte	W12
	.byte	PEND
@ 012   ----------------------------------------
feb20230207212633_6_012:
	.byte		N18   , Cs4 , v080
	.byte	W18
	.byte		N30   , Gs4 
	.byte	W42
	.byte		N12   , Bn4 
	.byte	W12
	.byte		N06   , An4 
	.byte	W12
	.byte		N42   , Gs4 
	.byte	W12
	.byte	PEND
@ 013   ----------------------------------------
feb20230207212633_6_013:
	.byte	W48
	.byte		N12   , Gs4 , v080
	.byte	W12
	.byte		N06   , Fs4 
	.byte	W12
	.byte		N18   , En4 
	.byte	W24
	.byte	PEND
@ 014   ----------------------------------------
feb20230207212633_6_014:
	.byte		N30   , Fs4 , v080
	.byte	W36
	.byte		N06   , En4 
	.byte	W12
	.byte		N28   , Ds4 
	.byte	W36
	.byte		N06   , Cs4 
	.byte	W06
	.byte		        Ds4 
	.byte	W06
	.byte	PEND
@ 015   ----------------------------------------
feb20230207212633_6_015:
	.byte		N18   , En4 , v080
	.byte	W18
	.byte		        Ds4 
	.byte	W18
	.byte		N12   , Cs4 
	.byte	W12
	.byte		N18   , Ds4 
	.byte	W18
	.byte		        Gs3 
	.byte	W18
	.byte		N06   , Bn3 
	.byte	W12
	.byte	PEND
@ 016   ----------------------------------------
feb20230207212633_6_016:
	.byte		N36   , Bn3 , v080
	.byte	W36
	.byte		N06   , Cs4 
	.byte	W12
	.byte		N48   
	.byte	W48
	.byte	PEND
@ 017   ----------------------------------------
	.byte	W96
@ 018   ----------------------------------------
	.byte	PATT
	 .word	feb20230207212633_6_010
@ 019   ----------------------------------------
	.byte	PATT
	 .word	feb20230207212633_6_011
@ 020   ----------------------------------------
	.byte	PATT
	 .word	feb20230207212633_6_012
@ 021   ----------------------------------------
	.byte	PATT
	 .word	feb20230207212633_6_013
@ 022   ----------------------------------------
	.byte	PATT
	 .word	feb20230207212633_6_014
@ 023   ----------------------------------------
	.byte	PATT
	 .word	feb20230207212633_6_015
@ 024   ----------------------------------------
	.byte	PATT
	 .word	feb20230207212633_6_016
@ 025   ----------------------------------------
	.byte	W96
@ 026   ----------------------------------------
	.byte	W96
@ 027   ----------------------------------------
	.byte	W96
@ 028   ----------------------------------------
	.byte	W96
@ 029   ----------------------------------------
	.byte	W96
@ 030   ----------------------------------------
	.byte	W96
@ 031   ----------------------------------------
	.byte	W96
@ 032   ----------------------------------------
	.byte	W96
@ 033   ----------------------------------------
	.byte	W60
	.byte		N06   , As3 , v080
	.byte	W12
	.byte		N12   , Fn4 
	.byte	W12
	.byte		        Fs4 
	.byte	W12
@ 034   ----------------------------------------
feb20230207212633_6_034:
	.byte		N24   , Fn4 , v080
	.byte	W24
	.byte		N06   , Ds4 
	.byte	W12
	.byte		N24   , As3 
	.byte	W24
	.byte		N06   , Gs3 
	.byte	W12
	.byte		        Fs3 
	.byte	W12
	.byte		N60   , As3 
	.byte	W12
	.byte	PEND
@ 035   ----------------------------------------
feb20230207212633_6_035:
	.byte	W60
	.byte		N06   , As3 , v080
	.byte	W12
	.byte		N12   , Fn4 
	.byte	W12
	.byte		N06   , Fs4 
	.byte	W12
	.byte	PEND
@ 036   ----------------------------------------
feb20230207212633_6_036:
	.byte		N24   , Fn4 , v080
	.byte	W24
	.byte		N12   , Ds4 
	.byte	W12
	.byte		N19   , As3 
	.byte	W24
	.byte		N12   , Gs3 
	.byte	W12
	.byte		N06   , As3 
	.byte	W12
	.byte		N60   , Ds3 
	.byte	W12
	.byte	PEND
@ 037   ----------------------------------------
feb20230207212633_6_037:
	.byte	W60
	.byte		N12   , Ds3 , v080
	.byte	W12
	.byte		        Fs3 
	.byte	W12
	.byte		N06   , Gs3 
	.byte	W12
	.byte	PEND
@ 038   ----------------------------------------
feb20230207212633_6_038:
	.byte		N36   , As3 , v080
	.byte	W36
	.byte		N06   , Gs3 
	.byte	W12
	.byte		N36   
	.byte	W36
	.byte		N06   , Fs3 
	.byte	W06
	.byte		        Gs3 
	.byte	W06
	.byte	PEND
@ 039   ----------------------------------------
feb20230207212633_6_039:
	.byte		N18   , As3 , v080
	.byte	W18
	.byte		        Bn3 
	.byte	W18
	.byte		N12   , As3 
	.byte	W12
	.byte		N24   , Gs3 
	.byte	W24
	.byte		        Fn3 
	.byte	W24
	.byte	PEND
@ 040   ----------------------------------------
feb20230207212633_6_040:
	.byte		N36   , Gs3 , v080
	.byte	W36
	.byte		N06   , Fs3 
	.byte	W12
	.byte		N48   , As3 
	.byte	W48
	.byte	PEND
@ 041   ----------------------------------------
	.byte	PATT
	 .word	feb20230207212633_6_035
@ 042   ----------------------------------------
	.byte	PATT
	 .word	feb20230207212633_6_034
@ 043   ----------------------------------------
feb20230207212633_6_043:
	.byte	W60
	.byte		N12   , As3 , v080
	.byte	W12
	.byte		        Fn4 
	.byte	W12
	.byte		N06   , Fs4 
	.byte	W12
	.byte	PEND
@ 044   ----------------------------------------
feb20230207212633_6_044:
	.byte		N24   , Gs4 , v080
	.byte	W24
	.byte		N06   , Fs4 
	.byte	W12
	.byte		N24   , Fn4 
	.byte	W24
	.byte		N06   , Fs4 
	.byte	W12
	.byte		        Gs4 
	.byte	W12
	.byte		N60   , As4 
	.byte	W12
	.byte	PEND
@ 045   ----------------------------------------
feb20230207212633_6_045:
	.byte	W60
	.byte		N12   , Ds4 , v080
	.byte	W12
	.byte		        Fs4 
	.byte	W12
	.byte		N08   , Gs4 
	.byte	W12
	.byte	PEND
@ 046   ----------------------------------------
feb20230207212633_6_046:
	.byte		N36   , As4 , v080
	.byte	W36
	.byte		N06   , Gs4 
	.byte	W12
	.byte		N28   
	.byte	W36
	.byte		N06   , Fs4 
	.byte	W06
	.byte		        Gs4 
	.byte	W06
	.byte	PEND
@ 047   ----------------------------------------
feb20230207212633_6_047:
	.byte		N18   , As4 , v080
	.byte	W18
	.byte		        Bn4 
	.byte	W18
	.byte		N12   , As4 
	.byte	W12
	.byte		N24   , Gs4 
	.byte	W24
	.byte		        Fn4 
	.byte	W24
	.byte	PEND
@ 048   ----------------------------------------
feb20230207212633_6_048:
	.byte		N36   , Fn4 , v080
	.byte	W36
	.byte		N12   , Fs4 
	.byte	W12
	.byte		N48   , Ds4 
	.byte	W48
	.byte	PEND
@ 049   ----------------------------------------
	.byte	PATT
	 .word	feb20230207212633_6_043
@ 050   ----------------------------------------
	.byte	PATT
	 .word	feb20230207212633_6_034
@ 051   ----------------------------------------
	.byte	PATT
	 .word	feb20230207212633_6_035
@ 052   ----------------------------------------
	.byte	PATT
	 .word	feb20230207212633_6_036
@ 053   ----------------------------------------
	.byte	PATT
	 .word	feb20230207212633_6_037
@ 054   ----------------------------------------
	.byte	PATT
	 .word	feb20230207212633_6_038
@ 055   ----------------------------------------
	.byte	PATT
	 .word	feb20230207212633_6_039
@ 056   ----------------------------------------
	.byte	PATT
	 .word	feb20230207212633_6_040
@ 057   ----------------------------------------
	.byte	PATT
	 .word	feb20230207212633_6_035
@ 058   ----------------------------------------
	.byte	PATT
	 .word	feb20230207212633_6_034
@ 059   ----------------------------------------
	.byte	PATT
	 .word	feb20230207212633_6_043
@ 060   ----------------------------------------
	.byte	PATT
	 .word	feb20230207212633_6_044
@ 061   ----------------------------------------
	.byte	PATT
	 .word	feb20230207212633_6_045
@ 062   ----------------------------------------
	.byte	PATT
	 .word	feb20230207212633_6_046
@ 063   ----------------------------------------
	.byte	PATT
	 .word	feb20230207212633_6_047
@ 064   ----------------------------------------
	.byte	PATT
	 .word	feb20230207212633_6_048
@ 065   ----------------------------------------
	.byte	W96
@ 066   ----------------------------------------
	.byte	W96
@ 067   ----------------------------------------
	.byte	W96
	.byte	GOTO
	 .word	feb20230207212633_6_B1
feb20230207212633_6_B2:
@ 068   ----------------------------------------
	.byte	FINE

@**************** Track 7 (Midi-Chn.7) ****************@

feb20230207212633_7:
	.byte	KEYSH , feb20230207212633_key+0
feb20230207212633_7_B1:
@ 000   ----------------------------------------
	.byte		VOICE , 40
	.byte		BENDR , 12
	.byte		VOL   , 58*feb20230207212633_mvl/mxv
	.byte		PAN   , c_v-24
	.byte	W96
@ 001   ----------------------------------------
	.byte	W96
@ 002   ----------------------------------------
	.byte	W96
@ 003   ----------------------------------------
	.byte	W96
@ 004   ----------------------------------------
	.byte	W96
@ 005   ----------------------------------------
	.byte	W96
@ 006   ----------------------------------------
	.byte	W96
@ 007   ----------------------------------------
	.byte	W96
@ 008   ----------------------------------------
	.byte	W96
@ 009   ----------------------------------------
	.byte	W96
@ 010   ----------------------------------------
	.byte	W96
@ 011   ----------------------------------------
	.byte	W96
@ 012   ----------------------------------------
	.byte	W96
@ 013   ----------------------------------------
	.byte	W96
@ 014   ----------------------------------------
	.byte	W96
@ 015   ----------------------------------------
	.byte	W96
@ 016   ----------------------------------------
	.byte	W96
@ 017   ----------------------------------------
	.byte	W96
@ 018   ----------------------------------------
	.byte	W96
@ 019   ----------------------------------------
	.byte		N18   , Cs4 , v080
	.byte	W18
	.byte		        Ds4 
	.byte	W18
	.byte		N12   , En4 
	.byte	W12
	.byte		N18   , Ds4 
	.byte	W18
	.byte		        Cs4 
	.byte	W18
	.byte		N12   , Bn3 
	.byte	W12
@ 020   ----------------------------------------
	.byte		N18   , Cs4 
	.byte	W18
	.byte		N30   
	.byte	W42
	.byte		N12   , En4 
	.byte	W12
	.byte		N06   , Ds4 
	.byte	W12
	.byte		N42   , Cs4 
	.byte	W12
@ 021   ----------------------------------------
	.byte	W48
	.byte		N12   , En4 
	.byte	W12
	.byte		N06   , Ds4 
	.byte	W12
	.byte		N18   , Cs4 
	.byte	W24
@ 022   ----------------------------------------
	.byte		N36   , Ds4 
	.byte	W36
	.byte		N12   , Cs4 
	.byte	W12
	.byte		N36   , Bn3 
	.byte	W36
	.byte		N06   , Gs3 
	.byte	W06
	.byte		        Cn4 
	.byte	W06
@ 023   ----------------------------------------
	.byte		N18   , Cs4 
	.byte	W18
	.byte		        Bn3 
	.byte	W18
	.byte		N12   , Gs3 
	.byte	W12
	.byte		N18   , Bn3 
	.byte	W18
	.byte		        Gs3 
	.byte	W18
	.byte		N06   
	.byte	W12
@ 024   ----------------------------------------
	.byte		N36   , Fs3 
	.byte	W36
	.byte		N12   , Gs3 
	.byte	W12
	.byte		N48   
	.byte	W48
@ 025   ----------------------------------------
	.byte	W96
@ 026   ----------------------------------------
	.byte	W96
@ 027   ----------------------------------------
	.byte	W96
@ 028   ----------------------------------------
	.byte	W96
@ 029   ----------------------------------------
	.byte	W96
@ 030   ----------------------------------------
	.byte	W96
@ 031   ----------------------------------------
	.byte	W96
@ 032   ----------------------------------------
	.byte	W96
@ 033   ----------------------------------------
	.byte	W96
@ 034   ----------------------------------------
	.byte	W96
@ 035   ----------------------------------------
	.byte	W96
@ 036   ----------------------------------------
	.byte	W96
@ 037   ----------------------------------------
	.byte	W96
@ 038   ----------------------------------------
	.byte	W96
@ 039   ----------------------------------------
	.byte	W96
@ 040   ----------------------------------------
	.byte	W96
@ 041   ----------------------------------------
feb20230207212633_7_041:
	.byte		N48   , Fn1 , v080
	.byte		N06   , Gs1 
	.byte	W06
	.byte		        Cn1 
	.byte		N06   , Cs2 
	.byte	W06
	.byte		        Cn1 
	.byte		N06   , Gs1 
	.byte		N06   , An2 
	.byte	W12
	.byte		        As1 
	.byte	W06
	.byte		        Cn1 
	.byte	W06
	.byte		        Dn1 
	.byte		N06   , Gs1 
	.byte	W06
	.byte		        An1 
	.byte	W06
	.byte		        Cn1 
	.byte		N06   , As1 
	.byte	W06
	.byte		        Cn1 
	.byte	W06
	.byte		        An1 
	.byte	W12
	.byte		        Cn1 
	.byte		N06   , As1 
	.byte	W12
	.byte		        Dn1 
	.byte		N06   , Gs1 
	.byte	W06
	.byte		        An1 
	.byte	W06
	.byte	PEND
@ 042   ----------------------------------------
feb20230207212633_7_042:
	.byte		N06   , As1 , v116
	.byte	W12
	.byte		        Cn1 
	.byte		N06   , An1 
	.byte	W12
	.byte		        As1 
	.byte	W06
	.byte		        Cn1 
	.byte	W06
	.byte		        Dn1 
	.byte		N06   , Gs1 
	.byte	W06
	.byte		        An1 
	.byte	W06
	.byte		        Cn1 
	.byte		N06   , As1 
	.byte	W06
	.byte		        Cn1 
	.byte	W06
	.byte		        An1 
	.byte	W12
	.byte		        Cn1 
	.byte		N06   , As1 
	.byte	W12
	.byte		        Dn1 
	.byte		N06   , Gs1 
	.byte	W06
	.byte		        An1 
	.byte	W06
	.byte	PEND
@ 043   ----------------------------------------
feb20230207212633_7_043:
	.byte		N24   , Fn4 , v080
	.byte	W24
	.byte		N12   , Ds4 
	.byte	W12
	.byte		N24   , As3 
	.byte	W24
	.byte		N12   , Gs3 
	.byte	W12
	.byte		        Fs3 
	.byte	W12
	.byte		N60   , As3 
	.byte	W12
	.byte	PEND
@ 044   ----------------------------------------
	.byte		VOICE , 33
	.byte		VOL   , 38*feb20230207212633_mvl/mxv
	.byte		PAN   , c_v+0
	.byte		VOL   , 38*feb20230207212633_mvl/mxv
	.byte		PAN   , c_v+0
	.byte		N60   , CnM2
	.byte		N80   , Cn2 , v124
	.byte	W84
	.byte		N03   , Gn2 , v116
	.byte	W12
@ 045   ----------------------------------------
feb20230207212633_7_045:
	.byte		BEND  , c_v-11
	.byte		N92   , Cn3 , v124
	.byte	W01
	.byte		BEND  , c_v-6
	.byte	W02
	.byte		        c_v+0
	.byte	W80
	.byte	W01
	.byte		        c_v-8
	.byte	W01
	.byte		        c_v-17
	.byte	W02
	.byte		        c_v-25
	.byte	W01
	.byte		        c_v-34
	.byte	W02
	.byte		        c_v-46
	.byte	W01
	.byte		        c_v-53
	.byte	W02
	.byte		        c_v-59
	.byte	W01
	.byte		        c_v-64
	.byte	W02
	.byte	PEND
@ 046   ----------------------------------------
	.byte	W96
@ 047   ----------------------------------------
	.byte	W96
@ 048   ----------------------------------------
	.byte	W96
@ 049   ----------------------------------------
	.byte	W96
@ 050   ----------------------------------------
	.byte	W96
@ 051   ----------------------------------------
	.byte	W96
@ 052   ----------------------------------------
	.byte	W96
@ 053   ----------------------------------------
	.byte	W96
@ 054   ----------------------------------------
	.byte	W96
@ 055   ----------------------------------------
	.byte	W96
@ 056   ----------------------------------------
	.byte	W96
@ 057   ----------------------------------------
	.byte	W96
@ 058   ----------------------------------------
	.byte	W96
@ 059   ----------------------------------------
	.byte	PATT
	 .word	feb20230207212633_7_041
@ 060   ----------------------------------------
	.byte	PATT
	 .word	feb20230207212633_7_042
@ 061   ----------------------------------------
	.byte	PATT
	 .word	feb20230207212633_7_043
@ 062   ----------------------------------------
	.byte		VOICE , 33
	.byte		VOL   , 38*feb20230207212633_mvl/mxv
	.byte		PAN   , c_v+0
	.byte		N60   , CnM2, v080
	.byte		N80   , Cn2 , v124
	.byte	W84
	.byte		N03   , Gn2 , v116
	.byte	W12
@ 063   ----------------------------------------
	.byte	PATT
	 .word	feb20230207212633_7_045
@ 064   ----------------------------------------
	.byte	W96
@ 065   ----------------------------------------
	.byte	W96
@ 066   ----------------------------------------
	.byte	W96
@ 067   ----------------------------------------
	.byte	W96
	.byte	GOTO
	 .word	feb20230207212633_7_B1
feb20230207212633_7_B2:
@ 068   ----------------------------------------
	.byte	FINE

@**************** Track 8 (Midi-Chn.8) ****************@

feb20230207212633_8:
	.byte	KEYSH , feb20230207212633_key+0
feb20230207212633_8_B1:
@ 000   ----------------------------------------
	.byte		VOICE , 38
	.byte		BENDR , 12
	.byte		VOL   , 63*feb20230207212633_mvl/mxv
	.byte	W96
@ 001   ----------------------------------------
	.byte	W96
@ 002   ----------------------------------------
feb20230207212633_8_002:
	.byte		N24   , Cs1 , v080
	.byte	W24
	.byte		N12   , Fs1 
	.byte	W12
	.byte		        Gs1 
	.byte	W12
	.byte		N24   , Cs1 
	.byte	W24
	.byte		N12   , Fs1 
	.byte	W12
	.byte		        Gs1 
	.byte	W12
	.byte	PEND
@ 003   ----------------------------------------
	.byte	PATT
	 .word	feb20230207212633_8_002
@ 004   ----------------------------------------
	.byte	PATT
	 .word	feb20230207212633_8_002
@ 005   ----------------------------------------
	.byte	PATT
	 .word	feb20230207212633_8_002
@ 006   ----------------------------------------
	.byte	PATT
	 .word	feb20230207212633_8_002
@ 007   ----------------------------------------
	.byte	PATT
	 .word	feb20230207212633_8_002
@ 008   ----------------------------------------
	.byte	PATT
	 .word	feb20230207212633_8_002
@ 009   ----------------------------------------
	.byte	PATT
	 .word	feb20230207212633_8_002
@ 010   ----------------------------------------
	.byte	PATT
	 .word	feb20230207212633_8_002
@ 011   ----------------------------------------
	.byte	PATT
	 .word	feb20230207212633_8_002
@ 012   ----------------------------------------
feb20230207212633_8_012:
	.byte		N24   , Bn0 , v080
	.byte	W24
	.byte		N12   , En1 
	.byte	W12
	.byte		        Fs1 
	.byte	W12
	.byte		N24   , Bn0 
	.byte	W24
	.byte		N12   , En1 
	.byte	W12
	.byte		        Fs1 
	.byte	W12
	.byte	PEND
@ 013   ----------------------------------------
feb20230207212633_8_013:
	.byte		N24   , Bn0 , v080
	.byte	W24
	.byte		N12   , En1 
	.byte	W12
	.byte		        Fs1 
	.byte	W12
	.byte		N24   , Bn0 
	.byte	W24
	.byte		        Fs1 
	.byte	W24
	.byte	PEND
@ 014   ----------------------------------------
feb20230207212633_8_014:
	.byte		N24   , An0 , v080
	.byte	W24
	.byte		N12   , Cs1 
	.byte	W12
	.byte		        En1 
	.byte	W12
	.byte		N24   , An0 
	.byte	W24
	.byte		N12   , Cs1 
	.byte	W12
	.byte		        En1 
	.byte	W12
	.byte	PEND
@ 015   ----------------------------------------
	.byte	PATT
	 .word	feb20230207212633_8_014
@ 016   ----------------------------------------
	.byte	PATT
	 .word	feb20230207212633_8_012
@ 017   ----------------------------------------
	.byte		N24   , Cs1 , v080
	.byte	W24
	.byte		N12   , Fs1 
	.byte	W12
	.byte		        Gs1 
	.byte	W12
	.byte		N06   , Cn1 
	.byte	W06
	.byte		        Ds1 
	.byte	W06
	.byte		        Fs1 
	.byte	W06
	.byte		        As1 
	.byte	W06
	.byte		        Cn2 
	.byte	W06
	.byte		        Ds2 
	.byte	W06
	.byte		        Fs2 
	.byte	W06
	.byte		        Gs2 
	.byte	W06
@ 018   ----------------------------------------
	.byte	PATT
	 .word	feb20230207212633_8_002
@ 019   ----------------------------------------
	.byte	PATT
	 .word	feb20230207212633_8_002
@ 020   ----------------------------------------
	.byte	PATT
	 .word	feb20230207212633_8_012
@ 021   ----------------------------------------
	.byte	PATT
	 .word	feb20230207212633_8_013
@ 022   ----------------------------------------
	.byte	PATT
	 .word	feb20230207212633_8_014
@ 023   ----------------------------------------
	.byte	PATT
	 .word	feb20230207212633_8_014
@ 024   ----------------------------------------
	.byte	PATT
	 .word	feb20230207212633_8_012
@ 025   ----------------------------------------
	.byte	PATT
	 .word	feb20230207212633_8_002
@ 026   ----------------------------------------
	.byte		N18   , En0 , v080
	.byte	W18
	.byte		N18   
	.byte	W18
	.byte		N48   
	.byte	W48
	.byte		N12   , Bn0 
	.byte	W12
@ 027   ----------------------------------------
	.byte		N18   , Gs0 
	.byte	W18
	.byte		N18   
	.byte	W18
	.byte		N24   
	.byte	W24
	.byte		N12   , Gs1 
	.byte	W12
	.byte		        En1 
	.byte	W12
	.byte		        Bn0 
	.byte	W12
@ 028   ----------------------------------------
	.byte		N12   
	.byte	W12
	.byte		N12   
	.byte	W12
	.byte		N12   
	.byte	W12
	.byte		N12   
	.byte	W60
@ 029   ----------------------------------------
	.byte		        Cs1 
	.byte	W12
	.byte		N12   
	.byte	W12
	.byte		N12   
	.byte	W12
	.byte		N06   , Gs1 
	.byte	W06
	.byte		        En1 
	.byte	W06
	.byte		N12   , Cs1 
	.byte	W12
	.byte		N06   , Gs1 , v040
	.byte	W06
	.byte		        En1 
	.byte	W06
	.byte		N12   , Cs1 
	.byte	W24
@ 030   ----------------------------------------
	.byte		        Cs1 , v080
	.byte	W12
	.byte		N12   
	.byte	W12
	.byte		N12   
	.byte	W12
	.byte		N12   
	.byte	W48
	.byte		N06   , Gs1 
	.byte	W06
	.byte		        Cs1 
	.byte	W06
@ 031   ----------------------------------------
	.byte		N12   , Ds1 
	.byte	W12
	.byte		N24   
	.byte	W24
	.byte		N06   , Ds2 
	.byte	W06
	.byte		        As1 
	.byte	W06
	.byte		N12   , Ds1 
	.byte	W12
	.byte		        Ds2 
	.byte	W12
	.byte		        As1 
	.byte	W12
	.byte		        Ds1 
	.byte	W12
@ 032   ----------------------------------------
	.byte		N24   , Gs1 
	.byte	W24
	.byte		N12   , Ds1 
	.byte	W12
	.byte		N12   
	.byte	W12
	.byte		N24   
	.byte	W24
	.byte		N12   , Gs1 
	.byte	W12
	.byte		        Cs1 
	.byte	W12
@ 033   ----------------------------------------
	.byte		N24   , Ds1 
	.byte	W24
	.byte		        As1 
	.byte	W24
	.byte		N03   , Ds2 , v056
	.byte	W03
	.byte		N03   
	.byte	W03
	.byte		        As1 
	.byte	W03
	.byte		N03   
	.byte	W03
	.byte		        Ds1 
	.byte	W03
	.byte		N03   
	.byte	W03
	.byte		N03   
	.byte	W03
	.byte		N03   
	.byte	W03
	.byte		        Ds2 , v028
	.byte	W03
	.byte		N03   
	.byte	W03
	.byte		        As1 
	.byte	W03
	.byte		N03   
	.byte	W03
	.byte		        Ds1 
	.byte	W03
	.byte		N03   
	.byte	W03
	.byte		N03   
	.byte	W03
	.byte		N03   
	.byte	W03
@ 034   ----------------------------------------
feb20230207212633_8_034:
	.byte		N24   , Ds1 , v080
	.byte	W24
	.byte		N12   , As1 
	.byte	W12
	.byte		N24   , Fn2 
	.byte	W24
	.byte		N12   , Ds2 
	.byte	W12
	.byte		        Fs1 
	.byte	W12
	.byte		        Fn1 
	.byte	W12
	.byte	PEND
@ 035   ----------------------------------------
feb20230207212633_8_035:
	.byte		N24   , Ds1 , v080
	.byte	W24
	.byte		N12   , Gs1 
	.byte	W12
	.byte		        As1 
	.byte	W24
	.byte		        Ds1 
	.byte	W12
	.byte		        Gs1 
	.byte	W12
	.byte		        As1 
	.byte	W12
	.byte	PEND
@ 036   ----------------------------------------
feb20230207212633_8_036:
	.byte		N24   , Ds1 , v080
	.byte	W24
	.byte		N12   , As1 
	.byte	W12
	.byte		N24   , Ds2 
	.byte	W24
	.byte		N12   , Cs2 
	.byte	W12
	.byte		        As1 
	.byte	W12
	.byte		        Gs1 
	.byte	W12
	.byte	PEND
@ 037   ----------------------------------------
feb20230207212633_8_037:
	.byte		N24   , Ds1 , v080
	.byte	W24
	.byte		N12   , Gs1 
	.byte	W12
	.byte		        As1 
	.byte	W24
	.byte		N12   
	.byte	W12
	.byte		        Gs1 
	.byte	W12
	.byte		        As1 
	.byte	W12
	.byte	PEND
@ 038   ----------------------------------------
feb20230207212633_8_038:
	.byte		N24   , Cs1 , v080
	.byte	W24
	.byte		N12   , Gs1 
	.byte	W12
	.byte		N24   , Cs2 
	.byte	W24
	.byte		N12   , Gs1 
	.byte	W12
	.byte		        Cs1 
	.byte	W24
	.byte	PEND
@ 039   ----------------------------------------
feb20230207212633_8_039:
	.byte		N18   , Cs1 , v080
	.byte	W18
	.byte		        Gs1 
	.byte	W18
	.byte		N12   , As1 
	.byte	W12
	.byte		        Cs1 
	.byte	W12
	.byte		        Fn1 
	.byte	W12
	.byte		        Gs1 
	.byte	W12
	.byte		        As1 
	.byte	W12
	.byte	PEND
@ 040   ----------------------------------------
	.byte	PATT
	 .word	feb20230207212633_8_034
@ 041   ----------------------------------------
feb20230207212633_8_041:
	.byte		N24   , As0 , v080
	.byte	W24
	.byte		N12   , Fs1 , v028
	.byte	W12
	.byte		N24   , As0 , v080
	.byte	W24
	.byte		N12   
	.byte	W12
	.byte		        Ds1 
	.byte	W12
	.byte		        As1 
	.byte	W12
	.byte	PEND
@ 042   ----------------------------------------
	.byte	PATT
	 .word	feb20230207212633_8_034
@ 043   ----------------------------------------
	.byte	PATT
	 .word	feb20230207212633_8_035
@ 044   ----------------------------------------
feb20230207212633_8_044:
	.byte		N24   , Cs1 , v080
	.byte	W24
	.byte		N12   , Gs1 
	.byte	W12
	.byte		N24   , Cs2 
	.byte	W24
	.byte		N12   , Gs1 
	.byte	W12
	.byte		        Fn1 
	.byte	W12
	.byte		        Ds1 
	.byte	W12
	.byte	PEND
@ 045   ----------------------------------------
feb20230207212633_8_045:
	.byte		N24   , Cs1 , v080
	.byte	W24
	.byte		N12   , Gs1 
	.byte	W12
	.byte		        Cs2 
	.byte	W24
	.byte		        Gs1 
	.byte	W12
	.byte		        Fn1 
	.byte	W12
	.byte		        Ds1 
	.byte	W12
	.byte	PEND
@ 046   ----------------------------------------
feb20230207212633_8_046:
	.byte		N24   , Cs1 , v080
	.byte	W24
	.byte		N12   , Gs1 
	.byte	W12
	.byte		N24   , Cs2 
	.byte	W24
	.byte		N12   , Gs1 
	.byte	W12
	.byte		        Fn1 
	.byte	W24
	.byte	PEND
@ 047   ----------------------------------------
feb20230207212633_8_047:
	.byte		N24   , Cs1 , v080
	.byte	W24
	.byte		N12   , Gs1 
	.byte	W12
	.byte		N24   , Cs2 
	.byte	W24
	.byte		N12   , Gs1 
	.byte	W12
	.byte		        Cs2 
	.byte	W12
	.byte		        Cs1 
	.byte	W12
	.byte	PEND
@ 048   ----------------------------------------
	.byte	PATT
	 .word	feb20230207212633_8_034
@ 049   ----------------------------------------
	.byte	PATT
	 .word	feb20230207212633_8_034
@ 050   ----------------------------------------
	.byte	PATT
	 .word	feb20230207212633_8_034
@ 051   ----------------------------------------
	.byte	PATT
	 .word	feb20230207212633_8_035
@ 052   ----------------------------------------
	.byte	PATT
	 .word	feb20230207212633_8_036
@ 053   ----------------------------------------
	.byte	PATT
	 .word	feb20230207212633_8_037
@ 054   ----------------------------------------
	.byte	PATT
	 .word	feb20230207212633_8_038
@ 055   ----------------------------------------
	.byte	PATT
	 .word	feb20230207212633_8_039
@ 056   ----------------------------------------
	.byte	PATT
	 .word	feb20230207212633_8_034
@ 057   ----------------------------------------
	.byte	PATT
	 .word	feb20230207212633_8_041
@ 058   ----------------------------------------
	.byte	PATT
	 .word	feb20230207212633_8_034
@ 059   ----------------------------------------
	.byte	PATT
	 .word	feb20230207212633_8_035
@ 060   ----------------------------------------
	.byte	PATT
	 .word	feb20230207212633_8_044
@ 061   ----------------------------------------
	.byte	PATT
	 .word	feb20230207212633_8_045
@ 062   ----------------------------------------
	.byte	PATT
	 .word	feb20230207212633_8_046
@ 063   ----------------------------------------
	.byte	PATT
	 .word	feb20230207212633_8_047
@ 064   ----------------------------------------
	.byte	PATT
	 .word	feb20230207212633_8_034
@ 065   ----------------------------------------
	.byte	PATT
	 .word	feb20230207212633_8_034
@ 066   ----------------------------------------
	.byte		N96   , En1 , v080
	.byte	W96
@ 067   ----------------------------------------
	.byte		N96   
	.byte	W96
	.byte	GOTO
	 .word	feb20230207212633_8_B1
feb20230207212633_8_B2:
@ 068   ----------------------------------------
	.byte	FINE

@**************** Track 9 (Midi-Chn.9) ****************@

feb20230207212633_9:
	.byte	KEYSH , feb20230207212633_key+0
feb20230207212633_9_B1:
@ 000   ----------------------------------------
	.byte		VOICE , 0
	.byte		BENDR , 12
	.byte		VOL   , 58*feb20230207212633_mvl/mxv
	.byte		PAN   , c_v+32
	.byte	W96
@ 001   ----------------------------------------
	.byte	W96
@ 002   ----------------------------------------
feb20230207212633_9_002:
	.byte		N09   , Cs3 , v080
	.byte	W12
	.byte		        Gs3 
	.byte	W12
	.byte		        Cs3 
	.byte	W12
	.byte		N09   
	.byte	W12
	.byte		N09   
	.byte	W12
	.byte		        Gs3 
	.byte	W12
	.byte		        Cs3 
	.byte	W12
	.byte		        Gs3 
	.byte	W12
	.byte	PEND
@ 003   ----------------------------------------
feb20230207212633_9_003:
	.byte		N09   , Gs3 , v080
	.byte	W12
	.byte		N09   
	.byte	W12
	.byte		N09   
	.byte	W12
	.byte		        Cs3 
	.byte	W12
	.byte		N09   
	.byte	W12
	.byte		        Gs3 
	.byte	W12
	.byte		        Cs3 
	.byte	W12
	.byte		N09   
	.byte	W12
	.byte	PEND
@ 004   ----------------------------------------
	.byte	PATT
	 .word	feb20230207212633_9_002
@ 005   ----------------------------------------
	.byte	PATT
	 .word	feb20230207212633_9_003
@ 006   ----------------------------------------
	.byte	PATT
	 .word	feb20230207212633_9_002
@ 007   ----------------------------------------
	.byte	PATT
	 .word	feb20230207212633_9_003
@ 008   ----------------------------------------
	.byte	PATT
	 .word	feb20230207212633_9_002
@ 009   ----------------------------------------
	.byte		N09   , Cs3 , v080
	.byte		N09   , Gs3 , v060
	.byte	W12
	.byte		        Gs3 , v080
	.byte		N09   , Cs4 , v040
	.byte	W12
	.byte		        Ds3 , v080
	.byte		N09   , Gs3 , v060
	.byte	W12
	.byte		        Cs3 , v080
	.byte		N09   , Gs3 , v060
	.byte	W12
	.byte		        Cs3 , v080
	.byte		N09   , Gs3 , v060
	.byte	W12
	.byte		        Gs3 , v080
	.byte		N09   , Cs4 , v040
	.byte	W12
	.byte		        Ds3 , v080
	.byte		N09   , Gs3 , v060
	.byte	W12
	.byte		        Cs3 , v080
	.byte		N09   , Gs3 , v060
	.byte	W12
@ 010   ----------------------------------------
feb20230207212633_9_010:
	.byte		N09   , Gs3 , v060
	.byte		N09   , Cs4 
	.byte	W12
	.byte		        Gs3 
	.byte	W12
	.byte		N09   
	.byte		N09   , Cs4 
	.byte	W12
	.byte		        Gs3 
	.byte		N09   , Cs4 
	.byte	W12
	.byte		        Cs3 
	.byte		N09   , Gs3 
	.byte	W12
	.byte		        Cs3 
	.byte		N09   , Gs3 
	.byte	W12
	.byte		        Cs3 
	.byte		N09   , Gs3 
	.byte	W12
	.byte		        Cs3 
	.byte		N09   , Gs3 
	.byte	W12
	.byte	PEND
@ 011   ----------------------------------------
	.byte	PATT
	 .word	feb20230207212633_9_010
@ 012   ----------------------------------------
feb20230207212633_9_012:
	.byte		N09   , Gs3 , v060
	.byte		N09   , Cs4 
	.byte	W12
	.byte		        Gs3 
	.byte		N09   , Cs4 
	.byte	W12
	.byte		        Gs3 
	.byte		N09   , Cs4 
	.byte	W12
	.byte		        Fs3 
	.byte		N09   , Bn3 
	.byte	W12
	.byte		        Fs3 
	.byte		N09   , Bn3 
	.byte	W12
	.byte		        Fs3 
	.byte		N09   , Bn3 
	.byte	W12
	.byte		        Fs3 
	.byte		N09   , Bn3 
	.byte	W12
	.byte		        Ds3 
	.byte		N09   , Gs3 
	.byte	W12
	.byte	PEND
@ 013   ----------------------------------------
feb20230207212633_9_013:
	.byte		N09   , Ds3 , v060
	.byte		N09   , Gs3 
	.byte	W12
	.byte		        Ds3 
	.byte		N09   , Gs3 
	.byte	W12
	.byte		        Ds3 
	.byte		N09   , Gs3 
	.byte	W12
	.byte		        Ds3 
	.byte		N09   , Gs3 
	.byte	W12
	.byte		        Ds3 
	.byte		N09   , Gs3 
	.byte	W12
	.byte		        Ds3 
	.byte		N09   , Gs3 
	.byte	W12
	.byte		        Ds3 
	.byte		N09   , Gs3 
	.byte	W12
	.byte		        Ds3 
	.byte		N09   , Gs3 
	.byte	W12
	.byte	PEND
@ 014   ----------------------------------------
feb20230207212633_9_014:
	.byte		N09   , Cs4 , v060
	.byte		N09   , Fs4 
	.byte	W12
	.byte		        Cs4 
	.byte		N09   , Fs4 
	.byte	W12
	.byte		        Cs4 
	.byte		N09   , Fs4 
	.byte	W12
	.byte		        Cs4 
	.byte		N09   , Fs4 
	.byte	W12
	.byte		        Cs4 
	.byte		N09   , Ds4 , v080
	.byte	W12
	.byte		        Cs4 , v060
	.byte		N09   , Ds4 
	.byte	W12
	.byte		        Cs4 
	.byte		N09   , Ds4 
	.byte	W12
	.byte		        Cs4 , v080
	.byte		N09   , Ds4 , v060
	.byte	W12
	.byte	PEND
@ 015   ----------------------------------------
feb20230207212633_9_015:
	.byte		N09   , Fs3 , v080
	.byte		N09   , An3 
	.byte	W12
	.byte		        Fs3 
	.byte		N09   , An3 
	.byte	W12
	.byte		        Fs3 
	.byte		N09   , An3 
	.byte	W12
	.byte		        Fs3 
	.byte		N09   , An3 
	.byte	W12
	.byte		        Fs3 
	.byte		N09   , Bn3 
	.byte	W12
	.byte		        Fs3 
	.byte		N09   , Bn3 
	.byte	W12
	.byte		        Fs3 
	.byte		N09   , Bn3 
	.byte	W12
	.byte		        Fs3 
	.byte		N09   , Bn3 
	.byte	W12
	.byte	PEND
@ 016   ----------------------------------------
feb20230207212633_9_016:
	.byte		N09   , Cs3 , v080
	.byte		N09   , Gs3 
	.byte	W12
	.byte		N09   
	.byte		N09   , Cs4 
	.byte	W12
	.byte		        Cs3 
	.byte		N09   , Gs3 
	.byte	W12
	.byte		N09   
	.byte		N09   , Cs4 
	.byte	W12
	.byte		        Cs3 
	.byte		N09   , Gs3 
	.byte	W12
	.byte		N09   
	.byte		N09   , Cs4 
	.byte	W12
	.byte		        Cs3 
	.byte		N09   , Gs3 
	.byte	W12
	.byte		N09   
	.byte		N09   , Cs4 
	.byte	W12
	.byte	PEND
@ 017   ----------------------------------------
	.byte		        Gs3 
	.byte		N09   , Fs4 
	.byte	W12
	.byte		        Gs3 
	.byte		N09   , Cs4 
	.byte		N09   , Fs4 
	.byte	W12
	.byte		        Gs3 
	.byte		N09   , Cs4 
	.byte		N09   , Fs4 , v104
	.byte	W12
	.byte		        Gs3 , v080
	.byte		N09   , Cn4 
	.byte	W12
	.byte		        Gs3 
	.byte		N09   , Cn4 
	.byte	W12
	.byte		        Gs3 
	.byte		N09   , Cn4 
	.byte	W12
	.byte		        Gs3 
	.byte		N09   , Cn4 
	.byte	W12
	.byte		        Gs3 
	.byte		N09   , Cn4 
	.byte	W12
@ 018   ----------------------------------------
	.byte	PATT
	 .word	feb20230207212633_9_010
@ 019   ----------------------------------------
	.byte	PATT
	 .word	feb20230207212633_9_010
@ 020   ----------------------------------------
	.byte	PATT
	 .word	feb20230207212633_9_012
@ 021   ----------------------------------------
	.byte	PATT
	 .word	feb20230207212633_9_013
@ 022   ----------------------------------------
	.byte	PATT
	 .word	feb20230207212633_9_014
@ 023   ----------------------------------------
	.byte	PATT
	 .word	feb20230207212633_9_015
@ 024   ----------------------------------------
	.byte	PATT
	 .word	feb20230207212633_9_016
@ 025   ----------------------------------------
	.byte		N09   , Gs3 , v080
	.byte		N09   , Cs4 
	.byte	W12
	.byte		        Gs3 
	.byte		N09   , Cs4 
	.byte	W12
	.byte		        Gs3 
	.byte		N09   , Cs4 
	.byte	W12
	.byte		        Gs2 
	.byte		N09   , Cs3 
	.byte	W12
	.byte		        Gs2 
	.byte		N09   , Cs3 
	.byte	W12
	.byte		        Gs2 
	.byte		N09   , Cs3 
	.byte	W12
	.byte		        Gs2 
	.byte		N09   , Cs3 
	.byte	W12
	.byte		        Gs2 
	.byte		N09   , Cs3 
	.byte	W12
@ 026   ----------------------------------------
	.byte		        En3 
	.byte		N09   , Bn3 
	.byte	W12
	.byte		        En3 
	.byte		N09   , Bn3 
	.byte	W12
	.byte		        En3 
	.byte		N09   , Bn3 
	.byte	W12
	.byte		        En3 
	.byte		N09   , Bn3 
	.byte	W60
@ 027   ----------------------------------------
feb20230207212633_9_027:
	.byte		N09   , Cs3 , v080
	.byte		N09   , Gs3 
	.byte	W12
	.byte		        Cs3 
	.byte		N09   , Gs3 
	.byte	W12
	.byte		        Cs3 
	.byte		N09   , Gs3 
	.byte	W12
	.byte		        Cs3 
	.byte		N09   , Gs3 
	.byte	W60
	.byte	PEND
@ 028   ----------------------------------------
	.byte		        Fs3 
	.byte		N09   , Bn3 
	.byte	W12
	.byte		        Fs3 
	.byte		N09   , Bn3 
	.byte	W12
	.byte		        Fs3 
	.byte		N09   , Bn3 
	.byte	W12
	.byte		        Fs3 
	.byte		N09   , Bn3 
	.byte	W60
@ 029   ----------------------------------------
	.byte	PATT
	 .word	feb20230207212633_9_027
@ 030   ----------------------------------------
	.byte		N09   , Cs4 , v080
	.byte		N09   , Gs4 
	.byte	W12
	.byte		        Cs4 
	.byte		N09   , Gs4 
	.byte	W12
	.byte		        Cs4 
	.byte		N09   , Gs4 
	.byte	W12
	.byte		        Cs4 
	.byte		N09   , Gs4 
	.byte	W60
@ 031   ----------------------------------------
	.byte		        As3 
	.byte		N09   , Ds4 
	.byte	W12
	.byte		        As3 
	.byte		N09   , Ds4 
	.byte	W12
	.byte		        As3 
	.byte		N09   , Ds4 
	.byte	W12
	.byte		        As3 
	.byte		N09   , Ds4 
	.byte	W60
@ 032   ----------------------------------------
	.byte		        Gs3 
	.byte		N09   , Cs4 
	.byte	W12
	.byte		        Gs3 
	.byte		N09   , Cs4 
	.byte	W12
	.byte		        Gs3 
	.byte		N09   , Cs4 
	.byte	W12
	.byte		        Gs3 
	.byte		N09   , Cs4 
	.byte	W12
	.byte		        Gs3 
	.byte		N09   , Cs4 
	.byte	W12
	.byte		        Gs3 
	.byte		N09   , Cs4 
	.byte	W12
	.byte		        Gs3 
	.byte		N09   , Cs4 
	.byte	W12
	.byte		        Gs3 
	.byte		N09   , Cs4 
	.byte	W12
@ 033   ----------------------------------------
	.byte		        As3 
	.byte		N09   , Ds4 
	.byte	W12
	.byte		        As3 
	.byte		N09   , Ds4 
	.byte	W12
	.byte		        As3 
	.byte		N09   , Ds4 
	.byte	W12
	.byte		        As3 
	.byte		N09   , Ds4 
	.byte	W12
	.byte		        As3 
	.byte		N09   , Ds4 
	.byte	W12
	.byte		        As3 
	.byte		N09   , Ds4 
	.byte	W12
	.byte		        As3 
	.byte		N09   , Ds4 
	.byte	W12
	.byte		        As3 
	.byte		N09   , Ds4 
	.byte	W12
@ 034   ----------------------------------------
	.byte		VOL   , 66*feb20230207212633_mvl/mxv
	.byte		N19   , Fn3 , v060
	.byte		N19   , As3 
	.byte	W24
	.byte		N09   , Fn3 
	.byte		N09   , As3 
	.byte	W12
	.byte		N19   , Fn3 
	.byte		N19   , As3 
	.byte	W24
	.byte		N09   , Fn3 
	.byte		N09   , As3 
	.byte	W12
	.byte		        Fn3 
	.byte		N09   , As3 
	.byte	W12
	.byte		        Fn3 
	.byte		N09   , As3 
	.byte	W12
@ 035   ----------------------------------------
feb20230207212633_9_035:
	.byte		N09   , Fn3 , v060
	.byte		N09   , As3 
	.byte	W12
	.byte		        Fn3 
	.byte		N09   , As3 
	.byte	W12
	.byte		        Fn3 
	.byte		N09   , As3 
	.byte	W12
	.byte		        Fn3 
	.byte		N09   , As3 
	.byte	W12
	.byte		        Fn3 
	.byte		N09   , As3 
	.byte	W12
	.byte		        Fn3 
	.byte		N09   , As3 
	.byte	W12
	.byte		        Fn3 
	.byte		N09   , As3 
	.byte	W12
	.byte		        Fn3 
	.byte		N09   , As3 
	.byte	W12
	.byte	PEND
@ 036   ----------------------------------------
feb20230207212633_9_036:
	.byte		N19   , Fn3 , v060
	.byte		N19   , As3 
	.byte	W24
	.byte		N09   , Fn3 
	.byte		N09   , As3 
	.byte	W12
	.byte		N19   , Fn3 
	.byte		N19   , As3 
	.byte	W24
	.byte		N09   , Fn3 
	.byte		N09   , As3 
	.byte	W12
	.byte		        Fn3 
	.byte		N09   , As3 
	.byte	W12
	.byte		        Fn3 
	.byte		N09   , As3 
	.byte	W12
	.byte	PEND
@ 037   ----------------------------------------
	.byte	PATT
	 .word	feb20230207212633_9_036
@ 038   ----------------------------------------
feb20230207212633_9_038:
	.byte		N09   , Fn3 , v060
	.byte		N09   , As3 
	.byte	W12
	.byte		        Fn3 
	.byte		N09   , As3 
	.byte	W12
	.byte		        Fn3 
	.byte		N09   , As3 
	.byte	W12
	.byte		        Ds3 
	.byte		N09   , Gs3 
	.byte	W12
	.byte		        Ds3 
	.byte		N09   , Gs3 
	.byte	W12
	.byte		        Ds3 
	.byte		N09   , Gs3 
	.byte	W12
	.byte		        Ds3 
	.byte		N09   , Gs3 
	.byte	W12
	.byte		        Ds3 
	.byte		N09   , Gs3 
	.byte	W12
	.byte	PEND
@ 039   ----------------------------------------
feb20230207212633_9_039:
	.byte		N09   , Fn3 , v060
	.byte		N09   , As3 
	.byte	W12
	.byte		        Fn3 
	.byte		N09   , As3 
	.byte	W12
	.byte		        Fn3 
	.byte		N09   , As3 
	.byte	W12
	.byte		        Fn3 
	.byte		N09   , As3 
	.byte	W12
	.byte		        Cs3 
	.byte		N09   , Gs3 
	.byte	W12
	.byte		        Cs3 
	.byte		N09   , Gs3 
	.byte	W12
	.byte		        Cs3 
	.byte		N09   , Gs3 
	.byte	W12
	.byte		        Cs3 
	.byte		N09   , Gs3 
	.byte	W12
	.byte	PEND
@ 040   ----------------------------------------
feb20230207212633_9_040:
	.byte		N09   , Ds3 , v060
	.byte		N09   , As3 
	.byte	W12
	.byte		        Ds3 
	.byte		N09   , As3 
	.byte	W12
	.byte		        Ds3 
	.byte		N09   , As3 
	.byte	W12
	.byte		        Ds3 
	.byte		N09   , Gs3 
	.byte	W12
	.byte		        Ds3 
	.byte		N09   , Gs3 
	.byte	W12
	.byte		        Ds3 
	.byte		N09   , Gs3 
	.byte	W12
	.byte		        Ds3 
	.byte		N09   , Gs3 
	.byte	W12
	.byte		        Ds3 
	.byte		N09   , Fs3 
	.byte	W12
	.byte	PEND
@ 041   ----------------------------------------
	.byte		        Gs3 , v080
	.byte		N09   , Cn4 
	.byte	W12
	.byte		        Gs3 
	.byte		N09   , Cn4 
	.byte	W12
	.byte		        Gs3 
	.byte		N09   , Cn4 
	.byte	W12
	.byte		        Gs3 
	.byte		N09   , Cn4 
	.byte	W12
	.byte		        As3 
	.byte		N09   , Dn4 
	.byte	W12
	.byte		        As3 
	.byte		N09   , Dn4 
	.byte	W12
	.byte		        As3 
	.byte		N09   , Dn4 
	.byte	W12
	.byte		        As3 
	.byte		N09   , Dn4 
	.byte	W12
@ 042   ----------------------------------------
	.byte	PATT
	 .word	feb20230207212633_9_036
@ 043   ----------------------------------------
	.byte	PATT
	 .word	feb20230207212633_9_035
@ 044   ----------------------------------------
	.byte		N09   , Fn3 , v060
	.byte		N09   , As3 
	.byte	W12
	.byte		        Fn3 
	.byte		N09   , As3 
	.byte	W12
	.byte		        Fn3 
	.byte		N09   , As3 
	.byte	W12
	.byte		        Fn3 
	.byte		N09   , As3 
	.byte	W12
	.byte		        Fn3 
	.byte		N09   , As3 
	.byte	W12
	.byte		        Fn3 
	.byte		N09   , As3 
	.byte	W12
	.byte		        As3 , v080
	.byte		N09   , Ds4 
	.byte	W12
	.byte		        As3 , v060
	.byte		N09   , Ds4 , v080
	.byte	W12
@ 045   ----------------------------------------
	.byte		        Fn3 , v060
	.byte		N09   , As3 
	.byte	W12
	.byte		        Fn3 
	.byte		N09   , As3 
	.byte	W12
	.byte		N09   
	.byte		N09   , Ds4 , v080
	.byte	W12
	.byte		        As3 , v060
	.byte		N09   , Ds4 , v080
	.byte	W12
	.byte		        Fn3 , v060
	.byte		N09   , As3 
	.byte	W12
	.byte		        Fn3 
	.byte		N09   , As3 
	.byte	W12
	.byte		        Fn3 
	.byte		N09   , As3 
	.byte	W12
	.byte		        Fn3 
	.byte		N09   , As3 
	.byte	W12
@ 046   ----------------------------------------
feb20230207212633_9_046:
	.byte		N09   , Fn3 , v060
	.byte		N09   , Gs3 
	.byte	W12
	.byte		        Fn3 
	.byte		N09   , Gs3 
	.byte	W12
	.byte		        Fn3 
	.byte		N09   , Gs3 
	.byte	W12
	.byte		        Fn3 
	.byte		N09   , Gs3 
	.byte	W12
	.byte		        Fn3 
	.byte		N09   , Gs3 
	.byte	W12
	.byte		        Fn3 
	.byte		N09   , Gs3 
	.byte	W12
	.byte		N09   
	.byte		N09   , Cs4 
	.byte	W12
	.byte		        Gs3 
	.byte		N09   , Cs4 
	.byte	W12
	.byte	PEND
@ 047   ----------------------------------------
feb20230207212633_9_047:
	.byte		N09   , Fn3 , v060
	.byte		N09   , Gs3 
	.byte	W12
	.byte		        Fn3 
	.byte		N09   , Gs3 
	.byte	W12
	.byte		N09   
	.byte		N09   , Cs4 
	.byte	W12
	.byte		        Gs3 
	.byte		N09   , Cs4 
	.byte	W12
	.byte		        Fn3 
	.byte		N09   , Gs3 
	.byte	W12
	.byte		        Fn3 
	.byte		N09   , Gs3 
	.byte	W12
	.byte		N09   
	.byte		N09   , Cs4 
	.byte	W12
	.byte		        Gs3 
	.byte		N09   , Cs4 
	.byte	W12
	.byte	PEND
@ 048   ----------------------------------------
feb20230207212633_9_048:
	.byte		N09   , As3 , v060
	.byte		N09   , Ds4 
	.byte	W12
	.byte		        As3 
	.byte		N09   , Ds4 
	.byte	W12
	.byte		        As3 
	.byte	W12
	.byte		        Fn3 
	.byte		N09   , As3 
	.byte	W12
	.byte		        Ds3 
	.byte		N09   , As3 
	.byte	W12
	.byte		        Ds3 
	.byte		N09   , As3 
	.byte	W12
	.byte		        Ds3 
	.byte		N09   , As3 
	.byte	W12
	.byte		        Ds3 
	.byte		N09   , As3 
	.byte	W12
	.byte	PEND
@ 049   ----------------------------------------
feb20230207212633_9_049:
	.byte		N09   , Ds3 , v060
	.byte		N09   , Fn3 
	.byte	W12
	.byte		        Ds3 
	.byte		N09   , Fn3 
	.byte	W12
	.byte		        Ds3 
	.byte		N09   , Fn3 
	.byte	W12
	.byte		        As2 
	.byte		N09   , Ds3 
	.byte	W12
	.byte		        As2 
	.byte		N09   , Ds3 
	.byte	W12
	.byte		        As2 
	.byte		N09   , Ds3 
	.byte	W12
	.byte		        As2 
	.byte		N09   , Ds3 
	.byte	W12
	.byte		        As2 
	.byte		N09   , Ds3 
	.byte	W12
	.byte	PEND
@ 050   ----------------------------------------
	.byte	PATT
	 .word	feb20230207212633_9_036
@ 051   ----------------------------------------
	.byte	PATT
	 .word	feb20230207212633_9_035
@ 052   ----------------------------------------
	.byte	PATT
	 .word	feb20230207212633_9_036
@ 053   ----------------------------------------
	.byte	PATT
	 .word	feb20230207212633_9_036
@ 054   ----------------------------------------
	.byte	PATT
	 .word	feb20230207212633_9_038
@ 055   ----------------------------------------
	.byte	PATT
	 .word	feb20230207212633_9_039
@ 056   ----------------------------------------
	.byte	PATT
	 .word	feb20230207212633_9_040
@ 057   ----------------------------------------
	.byte		N09   , Gs3 , v060
	.byte		N09   , Cn4 
	.byte	W12
	.byte		        Gs3 
	.byte		N09   , Cn4 
	.byte	W12
	.byte		        Gs3 
	.byte		N09   , Cn4 
	.byte	W12
	.byte		        Gs3 
	.byte		N09   , Cn4 
	.byte	W12
	.byte		        As3 
	.byte		N09   , Dn4 
	.byte	W12
	.byte		        As3 
	.byte		N09   , Dn4 
	.byte	W12
	.byte		        As3 
	.byte		N09   , Dn4 
	.byte	W12
	.byte		        As3 
	.byte		N09   , Dn4 
	.byte	W12
@ 058   ----------------------------------------
	.byte	PATT
	 .word	feb20230207212633_9_036
@ 059   ----------------------------------------
	.byte	PATT
	 .word	feb20230207212633_9_035
@ 060   ----------------------------------------
	.byte		N09   , Fn3 , v060
	.byte		N09   , As3 
	.byte	W12
	.byte		        Fn3 
	.byte		N09   , As3 
	.byte	W12
	.byte		        Fn3 
	.byte		N09   , As3 
	.byte	W12
	.byte		        Fn3 
	.byte		N09   , As3 
	.byte	W12
	.byte		        Fn3 
	.byte		N09   , As3 
	.byte	W12
	.byte		        Fn3 
	.byte		N09   , As3 
	.byte	W12
	.byte		N09   
	.byte		N09   , Ds4 
	.byte	W12
	.byte		        As3 
	.byte		N09   , Ds4 
	.byte	W12
@ 061   ----------------------------------------
	.byte		        Fn3 
	.byte		N09   , As3 
	.byte	W12
	.byte		        Fn3 
	.byte		N09   , As3 
	.byte	W12
	.byte		N09   
	.byte		N09   , Ds4 
	.byte	W12
	.byte		        As3 
	.byte		N09   , Ds4 
	.byte	W12
	.byte		        Fn3 
	.byte		N09   , As3 
	.byte	W12
	.byte		        Fn3 
	.byte		N09   , As3 
	.byte	W12
	.byte		        Fn3 
	.byte		N09   , As3 
	.byte	W12
	.byte		        Fn3 
	.byte		N09   , As3 
	.byte	W12
@ 062   ----------------------------------------
	.byte	PATT
	 .word	feb20230207212633_9_046
@ 063   ----------------------------------------
	.byte	PATT
	 .word	feb20230207212633_9_047
@ 064   ----------------------------------------
	.byte	PATT
	 .word	feb20230207212633_9_048
@ 065   ----------------------------------------
	.byte	PATT
	 .word	feb20230207212633_9_049
@ 066   ----------------------------------------
	.byte		VOL   , 58*feb20230207212633_mvl/mxv
	.byte		N09   , Fn3 , v060
	.byte		N09   , As3 
	.byte	W12
	.byte		        Fn3 
	.byte		N09   , As3 
	.byte	W12
	.byte		        Fn3 
	.byte		N09   , As3 
	.byte	W12
	.byte		N12   , Cs3 , v080
	.byte		N12   , Ds3 , v060
	.byte		N09   , Gs3 
	.byte	W12
	.byte		N12   , Cs3 
	.byte		N09   , Ds3 
	.byte		N09   , Gs3 
	.byte	W12
	.byte		N12   , Cs3 
	.byte		N09   , Ds3 
	.byte		N09   , Gs3 
	.byte	W12
	.byte		N12   , Cs3 
	.byte		N09   , Ds3 
	.byte		N09   , Gs3 
	.byte	W12
	.byte		N12   , Cs3 , v080
	.byte		N09   , Ds3 , v060
	.byte		N09   , Gs3 
	.byte	W12
@ 067   ----------------------------------------
	.byte		        Fn3 
	.byte		N09   , As3 
	.byte	W12
	.byte		        Fn3 
	.byte		N09   , As3 
	.byte	W12
	.byte		        Fn3 
	.byte		N09   , As3 
	.byte	W12
	.byte		N12   , Cs3 , v080
	.byte		N09   , Ds3 , v060
	.byte		N09   , Gs3 
	.byte	W12
	.byte		N12   , Cs3 , v080
	.byte		N09   , Ds3 , v060
	.byte		N09   , Gs3 
	.byte	W12
	.byte		N12   , Cs3 , v080
	.byte		N09   , Ds3 , v060
	.byte		N09   , Gs3 
	.byte	W12
	.byte		N12   , Cs3 , v080
	.byte		N09   , Ds3 , v060
	.byte		N09   , Gs3 
	.byte	W12
	.byte		N12   , Cs3 , v080
	.byte		N09   , Ds3 , v060
	.byte		N09   , Gs3 
	.byte	W12
	.byte	GOTO
	 .word	feb20230207212633_9_B1
feb20230207212633_9_B2:
@ 068   ----------------------------------------
	.byte	FINE

@**************** Track 10 (Midi-Chn.10) ****************@

feb20230207212633_10:
	.byte	KEYSH , feb20230207212633_key+0
feb20230207212633_10_B1:
@ 000   ----------------------------------------
	.byte		VOICE , 124
	.byte		BENDR , 12
	.byte		VOL   , 48*feb20230207212633_mvl/mxv
	.byte		N05   , An1 , v040
	.byte	W18
	.byte		        An1 , v012
	.byte	W06
	.byte		        An1 , v040
	.byte	W06
	.byte		        An1 , v012
	.byte	W06
	.byte		        An1 , v040
	.byte	W06
	.byte		        An1 , v012
	.byte	W06
	.byte		        An1 , v060
	.byte	W06
	.byte		        An1 , v012
	.byte	W12
	.byte		N05   
	.byte	W06
	.byte		        An1 , v060
	.byte	W06
	.byte		        An1 , v012
	.byte	W06
	.byte		        An1 , v060
	.byte	W06
	.byte		        An1 , v012
	.byte	W06
@ 001   ----------------------------------------
	.byte		        An1 , v060
	.byte	W06
	.byte		        An1 , v012
	.byte	W06
	.byte		        An1 , v060
	.byte	W06
	.byte		        An1 , v012
	.byte	W06
	.byte		        An1 , v060
	.byte	W06
	.byte		        An1 , v012
	.byte	W06
	.byte		        An1 , v060
	.byte	W06
	.byte		        An1 , v012
	.byte	W06
	.byte		        Dn1 , v080
	.byte		N05   , En1 
	.byte		N05   , An1 , v060
	.byte	W12
	.byte		        Dn1 , v080
	.byte		N05   , En1 
	.byte	W12
	.byte		        An1 , v060
	.byte	W06
	.byte		        Dn1 , v080
	.byte		N05   , En1 
	.byte	W06
	.byte		        Dn1 
	.byte		N05   , En1 
	.byte	W12
@ 002   ----------------------------------------
feb20230207212633_10_002:
	.byte		N05   , Cn1 , v060
	.byte		N05   , An1 , v080
	.byte	W06
	.byte		N05   
	.byte	W06
	.byte		N05   
	.byte	W06
	.byte		N05   
	.byte	W06
	.byte		        Dn1 
	.byte		N05   , En1 
	.byte		N05   , An1 
	.byte	W06
	.byte		N05   
	.byte	W06
	.byte		N05   
	.byte	W06
	.byte		N05   
	.byte	W06
	.byte		        Cn1 , v060
	.byte		N05   , An1 , v080
	.byte	W06
	.byte		N05   
	.byte	W06
	.byte		N05   
	.byte	W06
	.byte		N05   
	.byte	W06
	.byte		        Dn1 , v060
	.byte		N05   , En1 
	.byte		N05   , An1 , v080
	.byte	W06
	.byte		N05   
	.byte	W06
	.byte		N05   
	.byte	W06
	.byte		N05   
	.byte	W06
	.byte	PEND
@ 003   ----------------------------------------
feb20230207212633_10_003:
	.byte		N05   , An1 , v080
	.byte	W06
	.byte		N05   
	.byte	W06
	.byte		N05   
	.byte	W06
	.byte		N05   
	.byte	W06
	.byte		        Dn1 
	.byte		N05   , En1 , v127
	.byte		N05   , An1 , v080
	.byte	W06
	.byte		N05   
	.byte	W06
	.byte		N05   
	.byte	W06
	.byte		N05   
	.byte	W06
	.byte		        Cn1 , v060
	.byte		N05   , An1 , v080
	.byte	W06
	.byte		N05   
	.byte	W06
	.byte		N05   
	.byte	W06
	.byte		N05   
	.byte	W06
	.byte		        Dn1 
	.byte		N05   , En1 
	.byte		N05   , An1 , v060
	.byte	W06
	.byte		        An1 , v080
	.byte	W06
	.byte		N05   
	.byte	W06
	.byte		N05   
	.byte	W06
	.byte	PEND
@ 004   ----------------------------------------
	.byte	PATT
	 .word	feb20230207212633_10_002
@ 005   ----------------------------------------
	.byte	PATT
	 .word	feb20230207212633_10_003
@ 006   ----------------------------------------
	.byte	PATT
	 .word	feb20230207212633_10_002
@ 007   ----------------------------------------
	.byte	PATT
	 .word	feb20230207212633_10_003
@ 008   ----------------------------------------
	.byte		N05   , Cn1 , v060
	.byte		N05   , An1 , v080
	.byte	W06
	.byte		N05   
	.byte	W06
	.byte		N05   
	.byte	W06
	.byte		N05   
	.byte	W06
	.byte		        Dn1 
	.byte		N05   , En1 
	.byte		N05   , An1 
	.byte	W06
	.byte		N05   
	.byte	W06
	.byte		N05   
	.byte	W06
	.byte		N05   
	.byte	W06
	.byte		        Cn1 , v060
	.byte		N05   , An1 , v080
	.byte	W06
	.byte		N05   
	.byte	W06
	.byte		N05   
	.byte	W06
	.byte		N05   
	.byte	W06
	.byte		        Dn1 , v060
	.byte		N05   , En1 
	.byte		N05   , An1 , v080
	.byte	W06
	.byte		        Cn1 , v040
	.byte		N05   , An1 , v080
	.byte	W06
	.byte		        Dn1 , v060
	.byte		N05   , En1 
	.byte		N05   , An1 , v080
	.byte	W06
	.byte		        Dn1 , v060
	.byte		N05   , En1 
	.byte		N05   , An1 , v080
	.byte	W06
@ 009   ----------------------------------------
	.byte		        Cn1 
	.byte		N05   , En1 
	.byte		N05   , An1 
	.byte	W12
	.byte		        Dn1 , v040
	.byte		N05   , En1 
	.byte	W12
	.byte		        Cn1 , v080
	.byte		N05   , En1 , v040
	.byte		N05   , An1 , v080
	.byte	W12
	.byte		        Dn1 , v040
	.byte		N05   , En1 , v080
	.byte	W12
	.byte		        Cn1 , v040
	.byte		N05   , En1 
	.byte		N05   , An1 , v080
	.byte	W06
	.byte		        Dn1 , v040
	.byte		N05   , En1 
	.byte	W06
	.byte		        Cn1 , v080
	.byte		N05   , En1 , v040
	.byte	W12
	.byte		N06   , Cn1 , v080
	.byte		N06   , Dn1 
	.byte		N10   , An1 
	.byte	W12
	.byte		N05   , Dn1 , v040
	.byte		N05   , En1 
	.byte	W12
@ 010   ----------------------------------------
feb20230207212633_10_010:
	.byte		N05   , Cn1 , v060
	.byte		N05   , An1 , v080
	.byte	W12
	.byte		N05   
	.byte	W06
	.byte		N05   
	.byte	W06
	.byte		        Dn1 
	.byte		N05   , En1 
	.byte		N05   , An1 
	.byte	W06
	.byte		N05   
	.byte	W06
	.byte		N05   
	.byte	W12
	.byte		        Cn1 , v060
	.byte		N05   , An1 , v080
	.byte	W12
	.byte		N05   
	.byte	W06
	.byte		N05   
	.byte	W06
	.byte		        Dn1 , v060
	.byte		N05   , En1 
	.byte		N05   , An1 , v080
	.byte	W06
	.byte		N05   
	.byte	W06
	.byte		N05   
	.byte	W12
	.byte	PEND
@ 011   ----------------------------------------
	.byte	PATT
	 .word	feb20230207212633_10_010
@ 012   ----------------------------------------
	.byte	PATT
	 .word	feb20230207212633_10_010
@ 013   ----------------------------------------
feb20230207212633_10_013:
	.byte		N05   , Cn1 , v060
	.byte		N05   , An1 , v080
	.byte	W12
	.byte		N05   
	.byte	W06
	.byte		N05   
	.byte	W06
	.byte		        Dn1 
	.byte		N05   , En1 
	.byte		N05   , An1 
	.byte	W06
	.byte		N05   
	.byte	W06
	.byte		N05   
	.byte	W12
	.byte		        Cn1 , v060
	.byte		N05   , An1 , v080
	.byte	W06
	.byte		        Dn1 
	.byte		N05   , En1 
	.byte	W06
	.byte		        Cn1 
	.byte		N05   , An1 
	.byte	W06
	.byte		N05   
	.byte	W06
	.byte		N05   
	.byte	W06
	.byte		N05   
	.byte	W06
	.byte		        Dn1 
	.byte		N05   , En1 
	.byte		N05   , An1 
	.byte	W12
	.byte	PEND
@ 014   ----------------------------------------
	.byte	PATT
	 .word	feb20230207212633_10_010
@ 015   ----------------------------------------
	.byte	PATT
	 .word	feb20230207212633_10_010
@ 016   ----------------------------------------
feb20230207212633_10_016:
	.byte		N05   , Cn1 , v060
	.byte		N05   , An1 , v080
	.byte	W12
	.byte		N05   
	.byte	W06
	.byte		N05   
	.byte	W06
	.byte		        Dn1 
	.byte		N05   , En1 
	.byte		N05   , An1 
	.byte	W06
	.byte		N05   
	.byte	W06
	.byte		N05   
	.byte	W12
	.byte		        Cn1 , v060
	.byte		N05   , An1 , v080
	.byte	W12
	.byte		N05   
	.byte	W06
	.byte		N05   
	.byte	W06
	.byte		        Dn1 , v060
	.byte		N05   , En1 
	.byte		N05   , An1 , v080
	.byte	W06
	.byte		N05   
	.byte	W06
	.byte		        Dn1 
	.byte		N05   , En1 
	.byte		N05   , An1 
	.byte	W06
	.byte		        Dn1 
	.byte		N05   , En1 
	.byte	W06
	.byte	PEND
@ 017   ----------------------------------------
	.byte		        Cn1 , v060
	.byte		N05   , An1 , v080
	.byte	W12
	.byte		        Dn1 
	.byte		N05   , En1 
	.byte		N05   , An1 
	.byte	W06
	.byte		N05   
	.byte	W06
	.byte		        Cn1 
	.byte		N05   , An1 
	.byte	W06
	.byte		N05   
	.byte	W06
	.byte		        Dn1 
	.byte		N05   , En1 
	.byte		N05   , An1 
	.byte	W12
	.byte		        Cn1 , v060
	.byte		N05   , An1 , v080
	.byte	W06
	.byte		        En1 
	.byte	W06
	.byte		        Dn1 
	.byte		N05   , En1 
	.byte		N05   , An1 
	.byte	W06
	.byte		N05   
	.byte	W06
	.byte		        Cn1 
	.byte		N05   , An1 
	.byte	W06
	.byte		N05   
	.byte	W06
	.byte		        En1 , v028
	.byte		N05   , An1 , v080
	.byte	W06
	.byte		        Dn1 
	.byte		N05   , En1 
	.byte	W06
@ 018   ----------------------------------------
	.byte	PATT
	 .word	feb20230207212633_10_010
@ 019   ----------------------------------------
	.byte	PATT
	 .word	feb20230207212633_10_010
@ 020   ----------------------------------------
	.byte	PATT
	 .word	feb20230207212633_10_010
@ 021   ----------------------------------------
	.byte	PATT
	 .word	feb20230207212633_10_013
@ 022   ----------------------------------------
	.byte	PATT
	 .word	feb20230207212633_10_010
@ 023   ----------------------------------------
	.byte	PATT
	 .word	feb20230207212633_10_010
@ 024   ----------------------------------------
	.byte	PATT
	 .word	feb20230207212633_10_016
@ 025   ----------------------------------------
	.byte		N05   , Cn1 , v080
	.byte		N05   , An1 
	.byte	W12
	.byte		        Dn1 
	.byte		N05   , En1 
	.byte		N05   , An1 
	.byte	W06
	.byte		N05   
	.byte	W06
	.byte		        Cn1 
	.byte		N05   , An1 
	.byte	W06
	.byte		N05   
	.byte	W06
	.byte		        Dn1 
	.byte		N05   , En1 
	.byte		N05   , An1 
	.byte	W12
	.byte		        Cn1 
	.byte		N05   , An1 
	.byte	W06
	.byte		N05   
	.byte	W06
	.byte		        Dn1 
	.byte		N05   , En1 
	.byte		N05   , An1 
	.byte	W06
	.byte		N05   
	.byte	W06
	.byte		        Dn1 , v104
	.byte		N05   , En1 
	.byte		N05   , An1 , v080
	.byte	W06
	.byte		N05   
	.byte	W06
	.byte		        Dn1 , v104
	.byte		N05   , En1 
	.byte		N05   , An1 , v080
	.byte	W06
	.byte		        Dn1 
	.byte		N05   , En1 
	.byte	W06
@ 026   ----------------------------------------
feb20230207212633_10_026:
	.byte		N05   , Cn1 , v080
	.byte		N05   , Dn1 
	.byte		N05   , En1 
	.byte		N05   , Bn1 
	.byte	W18
	.byte		        Cn1 
	.byte		N05   , Dn1 
	.byte		N05   , En1 
	.byte		N05   , Bn1 
	.byte	W18
	.byte		        Cn1 
	.byte		N05   , Dn1 
	.byte		N05   , En1 
	.byte		N05   , Bn1 
	.byte	W36
	.byte		VOICE , 124
	.byte		N10   , Dn1 , v104
	.byte		N10   , Ds1 
	.byte		N10   , En1 
	.byte	W12
	.byte		VOICE , 124
	.byte		N05   , Cn1 , v080
	.byte		N05   , En1 
	.byte	W12
	.byte	PEND
@ 027   ----------------------------------------
	.byte	PATT
	 .word	feb20230207212633_10_026
@ 028   ----------------------------------------
	.byte	PATT
	 .word	feb20230207212633_10_026
@ 029   ----------------------------------------
	.byte	PATT
	 .word	feb20230207212633_10_026
@ 030   ----------------------------------------
	.byte	PATT
	 .word	feb20230207212633_10_026
@ 031   ----------------------------------------
	.byte	PATT
	 .word	feb20230207212633_10_026
@ 032   ----------------------------------------
	.byte		N05   , Cn1 , v080
	.byte		N05   , Dn1 
	.byte		N05   , En1 
	.byte	W12
	.byte		        Cn1 
	.byte		N05   , Fn2 
	.byte	W06
	.byte		        Cn1 
	.byte		N05   , Dn1 
	.byte		N05   , En1 
	.byte	W12
	.byte		        Cn1 
	.byte		N05   , Fn2 
	.byte	W06
	.byte		        Cn1 
	.byte		N05   , Dn1 
	.byte		N05   , En1 
	.byte	W06
	.byte		        Fn2 
	.byte	W06
	.byte		        Cn1 
	.byte		N05   , Dn1 
	.byte		N05   , En1 
	.byte	W12
	.byte		        Cn1 
	.byte		N05   , Fn2 
	.byte	W06
	.byte		        Cn1 
	.byte		N05   , Dn1 
	.byte		N05   , En1 
	.byte	W12
	.byte		        Cn1 
	.byte		N05   , Fn2 
	.byte	W06
	.byte		        Cn1 
	.byte		N05   , Dn1 
	.byte		N05   , En1 
	.byte	W06
	.byte		        Fn2 
	.byte	W06
@ 033   ----------------------------------------
	.byte		        Cn1 
	.byte		N05   , Dn1 
	.byte		N05   , En1 
	.byte		N05   , An2 
	.byte	W12
	.byte		        Cn1 
	.byte		N05   , Fn2 
	.byte	W12
	.byte		        Cn1 
	.byte		N05   , Dn1 
	.byte		N05   , En1 
	.byte		N05   , An2 
	.byte	W12
	.byte		        Cn1 
	.byte		N05   , Fn2 
	.byte	W12
	.byte		N01   , En1 
	.byte		N01   , Bn1 , v056
	.byte		N01   , An2 , v080
	.byte	W02
	.byte		        En1 
	.byte		N01   , Bn1 , v056
	.byte	W02
	.byte		        En1 , v080
	.byte		N01   , An1 , v056
	.byte	W02
	.byte		N01   
	.byte	W02
	.byte		        Gn1 
	.byte	W02
	.byte		N01   
	.byte	W02
	.byte		N05   , Cn1 , v080
	.byte		N05   , Fn2 
	.byte	W12
	.byte		        Dn1 
	.byte		N05   , En1 
	.byte	W12
	.byte		        Dn1 
	.byte		N05   , En1 
	.byte	W06
	.byte		        Dn1 
	.byte		N05   , En1 
	.byte	W06
@ 034   ----------------------------------------
feb20230207212633_10_034:
	.byte		N05   , Cn1 , v080
	.byte		N05   , Bn1 
	.byte		N05   , Fn2 
	.byte	W12
	.byte		        An1 
	.byte	W12
	.byte		        Dn1 
	.byte		N05   , En1 
	.byte	W12
	.byte		        An1 
	.byte	W12
	.byte		        Cn1 
	.byte		N05   , Bn1 
	.byte		N05   , Fn2 
	.byte	W12
	.byte		        An1 
	.byte	W12
	.byte		        Dn1 
	.byte		N05   , En1 
	.byte	W12
	.byte		        An1 
	.byte	W12
	.byte	PEND
@ 035   ----------------------------------------
	.byte	PATT
	 .word	feb20230207212633_10_034
@ 036   ----------------------------------------
	.byte	PATT
	 .word	feb20230207212633_10_034
@ 037   ----------------------------------------
feb20230207212633_10_037:
	.byte		N05   , Cn1 , v060
	.byte		N05   , Bn1 , v080
	.byte		N05   , Fn2 
	.byte	W12
	.byte		        An1 
	.byte	W12
	.byte		        Dn1 
	.byte		N05   , En1 
	.byte	W12
	.byte		        An1 
	.byte	W12
	.byte		        Cn1 , v060
	.byte		N05   , Bn1 , v080
	.byte		N05   , Fn2 
	.byte	W06
	.byte		        Dn1 
	.byte		N05   , En1 
	.byte	W06
	.byte		        Cn1 
	.byte	W24
	.byte		        Dn1 
	.byte		N05   , En1 
	.byte		N05   , Bn1 
	.byte	W12
	.byte	PEND
@ 038   ----------------------------------------
	.byte	PATT
	 .word	feb20230207212633_10_034
@ 039   ----------------------------------------
	.byte	PATT
	 .word	feb20230207212633_10_034
@ 040   ----------------------------------------
feb20230207212633_10_040:
	.byte		N05   , Cn1 , v080
	.byte		N05   , Bn1 
	.byte		N05   , Ds2 
	.byte	W12
	.byte		        An1 
	.byte	W12
	.byte		        Dn1 
	.byte		N05   , En1 
	.byte	W12
	.byte		        An1 
	.byte	W12
	.byte		        Cn1 
	.byte		N05   , Bn1 
	.byte		N05   , Ds2 
	.byte	W12
	.byte		        An1 
	.byte	W12
	.byte		        Dn1 , v060
	.byte		N05   , En1 
	.byte	W06
	.byte		        Cn1 , v040
	.byte	W06
	.byte		        Dn1 , v060
	.byte		N05   , En1 
	.byte	W06
	.byte		        Dn1 
	.byte		N05   , En1 
	.byte	W06
	.byte	PEND
@ 041   ----------------------------------------
feb20230207212633_10_041:
	.byte		N05   , Cn1 , v080
	.byte		N05   , En1 
	.byte		N05   , An1 
	.byte		N05   , Fn2 
	.byte	W12
	.byte		        Dn1 , v040
	.byte		N05   , En1 
	.byte	W12
	.byte		        Cn1 , v080
	.byte		N05   , En1 , v040
	.byte		N05   , An1 , v080
	.byte		N05   , Fn2 
	.byte	W12
	.byte		        Dn1 , v040
	.byte		N05   , En1 , v080
	.byte	W12
	.byte		        Cn1 , v040
	.byte		N05   , En1 
	.byte		N05   , An1 , v080
	.byte		N05   , Fn2 
	.byte	W06
	.byte		        Dn1 , v040
	.byte		N05   , En1 
	.byte	W06
	.byte		        Cn1 , v080
	.byte		N05   , En1 , v040
	.byte	W12
	.byte		N06   , Cn1 , v080
	.byte		N06   , Dn1 
	.byte		N10   , En1 
	.byte		N06   , An1 
	.byte		N06   , Fn2 
	.byte	W12
	.byte		N05   , Dn1 
	.byte		N05   , En1 
	.byte		N05   , Fn2 
	.byte	W06
	.byte		        Dn1 
	.byte		N05   , En1 
	.byte	W06
	.byte	PEND
@ 042   ----------------------------------------
	.byte	PATT
	 .word	feb20230207212633_10_034
@ 043   ----------------------------------------
	.byte	PATT
	 .word	feb20230207212633_10_034
@ 044   ----------------------------------------
	.byte	PATT
	 .word	feb20230207212633_10_034
@ 045   ----------------------------------------
	.byte	PATT
	 .word	feb20230207212633_10_037
@ 046   ----------------------------------------
	.byte	PATT
	 .word	feb20230207212633_10_034
@ 047   ----------------------------------------
	.byte	PATT
	 .word	feb20230207212633_10_037
@ 048   ----------------------------------------
	.byte	PATT
	 .word	feb20230207212633_10_040
@ 049   ----------------------------------------
	.byte	PATT
	 .word	feb20230207212633_10_041
@ 050   ----------------------------------------
	.byte	PATT
	 .word	feb20230207212633_10_034
@ 051   ----------------------------------------
	.byte	PATT
	 .word	feb20230207212633_10_034
@ 052   ----------------------------------------
	.byte	PATT
	 .word	feb20230207212633_10_034
@ 053   ----------------------------------------
	.byte	PATT
	 .word	feb20230207212633_10_037
@ 054   ----------------------------------------
	.byte	PATT
	 .word	feb20230207212633_10_034
@ 055   ----------------------------------------
	.byte	PATT
	 .word	feb20230207212633_10_034
@ 056   ----------------------------------------
	.byte	PATT
	 .word	feb20230207212633_10_040
@ 057   ----------------------------------------
	.byte	PATT
	 .word	feb20230207212633_10_041
@ 058   ----------------------------------------
	.byte	PATT
	 .word	feb20230207212633_10_034
@ 059   ----------------------------------------
	.byte	PATT
	 .word	feb20230207212633_10_034
@ 060   ----------------------------------------
	.byte	PATT
	 .word	feb20230207212633_10_034
@ 061   ----------------------------------------
	.byte	PATT
	 .word	feb20230207212633_10_037
@ 062   ----------------------------------------
	.byte	PATT
	 .word	feb20230207212633_10_034
@ 063   ----------------------------------------
	.byte	PATT
	 .word	feb20230207212633_10_037
@ 064   ----------------------------------------
	.byte	PATT
	 .word	feb20230207212633_10_040
@ 065   ----------------------------------------
	.byte		N05   , Cn1 , v080
	.byte		N05   , Dn1 
	.byte		N05   , En1 
	.byte		N05   , An1 
	.byte		N05   , Fn2 
	.byte	W12
	.byte		        Dn1 
	.byte		N05   , En1 
	.byte	W06
	.byte		        Dn1 
	.byte	W06
	.byte		        Cn1 
	.byte		N05   , En1 
	.byte		N05   , An1 
	.byte		N05   , Fn2 
	.byte	W12
	.byte		        Dn1 
	.byte		N05   , En1 
	.byte	W12
	.byte		        Cn1 
	.byte		N05   , Dn1 
	.byte		N05   , En1 
	.byte		N05   , An1 
	.byte		N05   , Fn2 
	.byte	W06
	.byte		        Dn1 
	.byte		N05   , En1 
	.byte	W06
	.byte		        Cn1 
	.byte		N05   , Dn1 
	.byte		N05   , En1 
	.byte	W12
	.byte		N06   , Cn1 
	.byte		N06   , Dn1 
	.byte		N10   , En1 
	.byte		N06   , An1 
	.byte		N06   , Fn2 
	.byte	W12
	.byte		N05   , Dn1 
	.byte		N05   , En1 
	.byte		N05   , Fn2 
	.byte	W06
	.byte		        Dn1 
	.byte		N05   , En1 
	.byte	W06
@ 066   ----------------------------------------
	.byte		        En0 
	.byte		N05   , An1 , v127
	.byte		N12   , Bn1 , v080
	.byte	W06
	.byte		N05   , Gn1 , v127
	.byte	W06
	.byte		        An1 
	.byte	W06
	.byte		        En0 , v080
	.byte		N05   , Gn1 , v127
	.byte		N12   , Bn1 , v080
	.byte	W06
	.byte		N05   , An1 , v127
	.byte	W06
	.byte		        Gn1 
	.byte	W06
	.byte		        En0 , v080
	.byte		N05   , An1 , v127
	.byte		N12   , Bn1 , v080
	.byte	W06
	.byte		N05   , Gn1 , v127
	.byte	W06
	.byte		        En0 , v080
	.byte		N05   , An1 , v127
	.byte		N12   , Bn1 , v080
	.byte	W06
	.byte		N05   , Gn1 , v127
	.byte	W06
	.byte		        An1 
	.byte	W06
	.byte		        En0 , v080
	.byte		N05   , Gn1 , v127
	.byte		N05   , Bn1 , v080
	.byte	W06
	.byte		        An1 , v127
	.byte	W06
	.byte		        Gn1 
	.byte	W06
	.byte		        En0 , v080
	.byte		N05   , An1 , v127
	.byte		N05   , Bn1 , v080
	.byte	W06
	.byte		        Gn1 , v127
	.byte	W06
@ 067   ----------------------------------------
	.byte		        En0 
	.byte		N05   , An1 
	.byte		N05   , Bn1 , v080
	.byte	W06
	.byte		        Gn1 , v127
	.byte	W06
	.byte		        En0 
	.byte		N05   , An1 
	.byte		N12   , Bn1 , v080
	.byte	W06
	.byte		N05   , Gn1 , v127
	.byte	W06
	.byte		        En0 
	.byte		N05   , An1 
	.byte		N12   , Bn1 , v080
	.byte	W06
	.byte		N05   , Gn1 , v127
	.byte	W06
	.byte		        En0 
	.byte		N05   , An1 
	.byte		N12   , Bn1 , v080
	.byte	W06
	.byte		N05   , Gn1 
	.byte	W06
	.byte		        En0 , v104
	.byte		N05   , Dn1 
	.byte		N05   , En1 
	.byte		N05   , An1 
	.byte		N12   , Bn1 
	.byte	W06
	.byte		N05   , Dn1 
	.byte		N05   , En1 
	.byte		N05   , Gn1 
	.byte	W06
	.byte		        En0 
	.byte		N05   , An1 
	.byte		N12   , Bn1 
	.byte	W06
	.byte		N05   , Gn1 
	.byte	W06
	.byte		        En0 
	.byte		N05   , Dn1 
	.byte		N05   , En1 
	.byte		N05   , An1 
	.byte		N12   , Bn1 
	.byte	W06
	.byte		N05   , Gn1 , v080
	.byte	W06
	.byte		        En0 
	.byte		N05   , Dn1 , v060
	.byte		N05   , An1 , v080
	.byte		N12   , Bn1 
	.byte	W06
	.byte		N05   , Gn1 
	.byte	W06
	.byte	GOTO
	 .word	feb20230207212633_10_B1
feb20230207212633_10_B2:
@ 068   ----------------------------------------
	.byte	FINE

@**************** Track 11 (Midi-Chn.11) ****************@

feb20230207212633_11:
	.byte	KEYSH , feb20230207212633_key+0
feb20230207212633_11_B1:
@ 000   ----------------------------------------
	.byte		VOICE , 1
	.byte		BENDR , 12
	.byte		VOL   , 85*feb20230207212633_mvl/mxv
	.byte	W96
@ 001   ----------------------------------------
	.byte	W96
@ 002   ----------------------------------------
	.byte	W96
@ 003   ----------------------------------------
	.byte	W96
@ 004   ----------------------------------------
	.byte	W96
@ 005   ----------------------------------------
	.byte	W96
@ 006   ----------------------------------------
	.byte	W96
@ 007   ----------------------------------------
	.byte	W96
@ 008   ----------------------------------------
	.byte	W96
@ 009   ----------------------------------------
	.byte	W96
@ 010   ----------------------------------------
	.byte	W96
@ 011   ----------------------------------------
	.byte	W96
@ 012   ----------------------------------------
	.byte	W96
@ 013   ----------------------------------------
	.byte	W96
@ 014   ----------------------------------------
	.byte	W96
@ 015   ----------------------------------------
	.byte	W96
@ 016   ----------------------------------------
	.byte	W96
@ 017   ----------------------------------------
	.byte	W96
@ 018   ----------------------------------------
	.byte	W96
@ 019   ----------------------------------------
	.byte	W96
@ 020   ----------------------------------------
	.byte	W96
@ 021   ----------------------------------------
	.byte	W96
@ 022   ----------------------------------------
	.byte	W96
@ 023   ----------------------------------------
	.byte	W96
@ 024   ----------------------------------------
	.byte	W96
@ 025   ----------------------------------------
	.byte	W48
	.byte		N12   , Cs4 , v104
	.byte	W12
	.byte		        Ds4 
	.byte	W12
	.byte		        En4 
	.byte	W12
	.byte		        Gs4 
	.byte	W12
@ 026   ----------------------------------------
	.byte		N60   , Bn4 
	.byte	W60
	.byte		N12   , Cs5 
	.byte	W12
	.byte		        Bn4 
	.byte	W12
	.byte		        En4 
	.byte	W12
@ 027   ----------------------------------------
	.byte		N48   , Gs4 
	.byte	W48
	.byte		N12   
	.byte	W12
	.byte		        Fs4 
	.byte	W12
	.byte		N24   , En4 
	.byte	W24
@ 028   ----------------------------------------
	.byte		N60   , Fs4 
	.byte	W60
	.byte		N12   , Bn4 
	.byte	W12
	.byte		        Fs4 
	.byte	W12
	.byte		        Ds4 
	.byte	W12
@ 029   ----------------------------------------
	.byte		N48   , En4 
	.byte	W48
	.byte		N12   , Cs4 
	.byte	W12
	.byte		        Ds4 
	.byte	W12
	.byte		        En4 
	.byte	W12
	.byte		        Gs4 
	.byte	W12
@ 030   ----------------------------------------
	.byte		N48   , Cs5 , v060
	.byte	W96
@ 031   ----------------------------------------
	.byte		        Ds5 
	.byte	W48
	.byte		N24   , As4 
	.byte	W24
	.byte		        Cs5 
	.byte	W24
@ 032   ----------------------------------------
	.byte		N60   
	.byte	W60
	.byte		N12   , Cn5 
	.byte	W12
	.byte		        Cs5 
	.byte	W12
	.byte		TIE   , Ds5 
	.byte	W12
@ 033   ----------------------------------------
	.byte	W96
	.byte		EOT   
@ 034   ----------------------------------------
	.byte	W96
@ 035   ----------------------------------------
	.byte	W96
@ 036   ----------------------------------------
	.byte	W96
@ 037   ----------------------------------------
	.byte	W96
@ 038   ----------------------------------------
	.byte	W96
@ 039   ----------------------------------------
	.byte	W96
@ 040   ----------------------------------------
	.byte	W96
@ 041   ----------------------------------------
	.byte	W96
@ 042   ----------------------------------------
	.byte	W96
@ 043   ----------------------------------------
	.byte	W96
@ 044   ----------------------------------------
	.byte	W96
@ 045   ----------------------------------------
	.byte	W96
@ 046   ----------------------------------------
	.byte	W96
@ 047   ----------------------------------------
	.byte	W96
@ 048   ----------------------------------------
	.byte	W96
@ 049   ----------------------------------------
feb20230207212633_11_049:
	.byte	W60
	.byte		N12   , As3 , v104
	.byte	W12
	.byte		        Fn4 
	.byte	W12
	.byte		        Fs4 
	.byte	W12
	.byte	PEND
@ 050   ----------------------------------------
feb20230207212633_11_050:
	.byte		N24   , Fn4 , v104
	.byte	W24
	.byte		N12   , Ds4 
	.byte	W12
	.byte		N24   , As3 
	.byte	W24
	.byte		N12   , Gs3 
	.byte	W12
	.byte		        Fs3 
	.byte	W12
	.byte		N60   , As3 
	.byte	W12
	.byte	PEND
@ 051   ----------------------------------------
	.byte	PATT
	 .word	feb20230207212633_11_049
@ 052   ----------------------------------------
	.byte		N24   , Fn4 , v104
	.byte	W24
	.byte		N12   , Ds4 
	.byte	W12
	.byte		N24   , As3 
	.byte	W24
	.byte		N12   , Gs3 
	.byte	W12
	.byte		        As3 
	.byte	W12
	.byte		N60   , Ds3 
	.byte	W12
@ 053   ----------------------------------------
	.byte	W60
	.byte		N12   
	.byte	W12
	.byte		        Fs3 
	.byte	W12
	.byte		        Gs3 
	.byte	W12
@ 054   ----------------------------------------
	.byte		N36   , As3 
	.byte	W36
	.byte		N12   , Gs3 
	.byte	W12
	.byte		N36   
	.byte	W36
	.byte		N06   , Fs3 
	.byte	W06
	.byte		        Gs3 
	.byte	W06
@ 055   ----------------------------------------
	.byte		N18   , As3 
	.byte	W18
	.byte		        Bn3 
	.byte	W18
	.byte		N12   , As3 
	.byte	W12
	.byte		N24   , Gs3 
	.byte	W24
	.byte		        Fn3 
	.byte	W24
@ 056   ----------------------------------------
	.byte		N36   , Gs3 
	.byte	W36
	.byte		N12   , Fs3 
	.byte	W12
	.byte		N48   , As3 
	.byte	W48
@ 057   ----------------------------------------
	.byte	PATT
	 .word	feb20230207212633_11_049
@ 058   ----------------------------------------
	.byte	PATT
	 .word	feb20230207212633_11_050
@ 059   ----------------------------------------
	.byte	PATT
	 .word	feb20230207212633_11_049
@ 060   ----------------------------------------
	.byte		N24   , Gs4 , v104
	.byte	W24
	.byte		N12   , Fs4 
	.byte	W12
	.byte		N24   , Fn4 
	.byte	W24
	.byte		N12   , Fs4 
	.byte	W12
	.byte		        Gs4 
	.byte	W12
	.byte		N60   , As4 
	.byte	W12
@ 061   ----------------------------------------
	.byte	W60
	.byte		N12   , Ds4 
	.byte	W12
	.byte		        Fs4 
	.byte	W12
	.byte		        Gs4 
	.byte	W12
@ 062   ----------------------------------------
	.byte		N36   , As4 
	.byte	W36
	.byte		N12   , Gs4 
	.byte	W12
	.byte		N36   
	.byte	W36
	.byte		N06   , Fs4 
	.byte	W06
	.byte		        Gs4 
	.byte	W06
@ 063   ----------------------------------------
	.byte		N18   , As4 
	.byte	W18
	.byte		        Bn4 
	.byte	W18
	.byte		N12   , As4 
	.byte	W12
	.byte		N24   , Gs4 
	.byte	W24
	.byte		        Fn4 
	.byte	W24
@ 064   ----------------------------------------
	.byte		N36   
	.byte	W36
	.byte		N12   , Fs4 
	.byte	W12
	.byte		N48   , Ds4 
	.byte	W48
@ 065   ----------------------------------------
	.byte	W96
@ 066   ----------------------------------------
	.byte	W96
@ 067   ----------------------------------------
	.byte	W96
	.byte	GOTO
	 .word	feb20230207212633_11_B1
feb20230207212633_11_B2:
@ 068   ----------------------------------------
	.byte	FINE

@**************** Track 12 (Midi-Chn.12) ****************@

feb20230207212633_12:
	.byte	KEYSH , feb20230207212633_key+0
feb20230207212633_12_B1:
@ 000   ----------------------------------------
	.byte		VOICE , 50
	.byte		BENDR , 12
	.byte		VOL   , 58*feb20230207212633_mvl/mxv
	.byte	W96
@ 001   ----------------------------------------
	.byte	W96
@ 002   ----------------------------------------
	.byte	W96
@ 003   ----------------------------------------
	.byte	W96
@ 004   ----------------------------------------
	.byte	W96
@ 005   ----------------------------------------
	.byte	W96
@ 006   ----------------------------------------
	.byte	W96
@ 007   ----------------------------------------
	.byte	W96
@ 008   ----------------------------------------
	.byte	W96
@ 009   ----------------------------------------
	.byte	W96
@ 010   ----------------------------------------
	.byte	W96
@ 011   ----------------------------------------
	.byte	W96
@ 012   ----------------------------------------
	.byte	W96
@ 013   ----------------------------------------
	.byte	W96
@ 014   ----------------------------------------
	.byte	W96
@ 015   ----------------------------------------
	.byte	W96
@ 016   ----------------------------------------
	.byte	W96
@ 017   ----------------------------------------
	.byte	W96
@ 018   ----------------------------------------
	.byte	W96
@ 019   ----------------------------------------
	.byte	W96
@ 020   ----------------------------------------
	.byte	W96
@ 021   ----------------------------------------
	.byte	W96
@ 022   ----------------------------------------
	.byte	W96
@ 023   ----------------------------------------
	.byte	W96
@ 024   ----------------------------------------
	.byte	W96
@ 025   ----------------------------------------
	.byte	W96
@ 026   ----------------------------------------
	.byte		N48   , Bn2 , v060
	.byte		N48   , En3 
	.byte		N48   , Bn3 
	.byte	W96
@ 027   ----------------------------------------
	.byte		        Cs3 , v080
	.byte		N48   , En3 
	.byte		N48   , Gs3 
	.byte	W96
@ 028   ----------------------------------------
	.byte		        Fs2 
	.byte		N48   , Bn2 
	.byte		N48   , En3 
	.byte	W96
@ 029   ----------------------------------------
	.byte		        Fs2 
	.byte		N48   , Bn2 
	.byte		N48   , En3 
	.byte	W48
	.byte		        Cs2 
	.byte		N48   , Gs2 
	.byte		N48   , Cs3 
	.byte	W48
@ 030   ----------------------------------------
	.byte		        En3 
	.byte		N48   , Gs3 
	.byte		N48   , Cs4 
	.byte	W96
@ 031   ----------------------------------------
	.byte		        As3 
	.byte		N48   , Ds4 
	.byte	W96
@ 032   ----------------------------------------
	.byte		N96   , Cs3 , v060
	.byte		N96   , Fn3 
	.byte		N96   , Gs3 
	.byte		N96   , Cs4 
	.byte	W96
@ 033   ----------------------------------------
	.byte		        Ds3 
	.byte		N96   , Gn3 
	.byte		N96   , As3 
	.byte		N96   , Ds4 
	.byte	W96
@ 034   ----------------------------------------
	.byte	W96
@ 035   ----------------------------------------
	.byte	W96
@ 036   ----------------------------------------
	.byte	W96
@ 037   ----------------------------------------
	.byte	W96
@ 038   ----------------------------------------
	.byte	W96
@ 039   ----------------------------------------
	.byte	W96
@ 040   ----------------------------------------
	.byte	W96
@ 041   ----------------------------------------
	.byte	W96
@ 042   ----------------------------------------
	.byte	W96
@ 043   ----------------------------------------
	.byte	W96
@ 044   ----------------------------------------
	.byte	W96
@ 045   ----------------------------------------
	.byte	W96
@ 046   ----------------------------------------
	.byte	W96
@ 047   ----------------------------------------
	.byte	W96
@ 048   ----------------------------------------
	.byte	W96
@ 049   ----------------------------------------
	.byte	W96
@ 050   ----------------------------------------
	.byte	W96
@ 051   ----------------------------------------
	.byte	W96
@ 052   ----------------------------------------
	.byte	W96
@ 053   ----------------------------------------
	.byte	W96
@ 054   ----------------------------------------
	.byte	W96
@ 055   ----------------------------------------
	.byte	W96
@ 056   ----------------------------------------
	.byte	W96
@ 057   ----------------------------------------
	.byte	W96
@ 058   ----------------------------------------
	.byte	W96
@ 059   ----------------------------------------
	.byte	W96
@ 060   ----------------------------------------
	.byte	W96
@ 061   ----------------------------------------
	.byte	W96
@ 062   ----------------------------------------
	.byte	W96
@ 063   ----------------------------------------
	.byte	W96
@ 064   ----------------------------------------
	.byte	W96
@ 065   ----------------------------------------
	.byte	W96
@ 066   ----------------------------------------
	.byte	W96
@ 067   ----------------------------------------
	.byte	W96
	.byte	GOTO
	 .word	feb20230207212633_12_B1
feb20230207212633_12_B2:
@ 068   ----------------------------------------
	.byte	FINE

@******************************************************@
	.align	2

feb20230207212633:
	.byte	12	@ NumTrks
	.byte	0	@ NumBlks
	.byte	feb20230207212633_pri	@ Priority
	.byte	feb20230207212633_rev	@ Reverb.

	.word	feb20230207212633_grp

	.word	feb20230207212633_1
	.word	feb20230207212633_2
	.word	feb20230207212633_3
	.word	feb20230207212633_4
	.word	feb20230207212633_5
	.word	feb20230207212633_6
	.word	feb20230207212633_7
	.word	feb20230207212633_8
	.word	feb20230207212633_9
	.word	feb20230207212633_10
	.word	feb20230207212633_11
	.word	feb20230207212633_12

	.end
